G04 #@! TF.GenerationSoftware,KiCad,Pcbnew,5.1.5*
G04 #@! TF.CreationDate,2020-04-18T05:12:52+00:00*
G04 #@! TF.ProjectId,NUC980,4e554339-3830-42e6-9b69-6361645f7063,rev?*
G04 #@! TF.SameCoordinates,Original*
G04 #@! TF.FileFunction,Legend,Top*
G04 #@! TF.FilePolarity,Positive*
%FSLAX46Y46*%
G04 Gerber Fmt 4.6, Leading zero omitted, Abs format (unit mm)*
G04 Created by KiCad (PCBNEW 5.1.5) date 2020-04-18 05:12:52*
%MOMM*%
%LPD*%
G04 APERTURE LIST*
%ADD10C,0.150000*%
%ADD11C,0.010000*%
%ADD12C,0.120000*%
G04 APERTURE END LIST*
D10*
X192730380Y-105250285D02*
X191730380Y-105250285D01*
X192730380Y-104678857D01*
X191730380Y-104678857D01*
X191730380Y-104202666D02*
X192539904Y-104202666D01*
X192635142Y-104155047D01*
X192682761Y-104107428D01*
X192730380Y-104012190D01*
X192730380Y-103821714D01*
X192682761Y-103726476D01*
X192635142Y-103678857D01*
X192539904Y-103631238D01*
X191730380Y-103631238D01*
X192635142Y-102583619D02*
X192682761Y-102631238D01*
X192730380Y-102774095D01*
X192730380Y-102869333D01*
X192682761Y-103012190D01*
X192587523Y-103107428D01*
X192492285Y-103155047D01*
X192301809Y-103202666D01*
X192158952Y-103202666D01*
X191968476Y-103155047D01*
X191873238Y-103107428D01*
X191778000Y-103012190D01*
X191730380Y-102869333D01*
X191730380Y-102774095D01*
X191778000Y-102631238D01*
X191825619Y-102583619D01*
X192730380Y-102107428D02*
X192730380Y-101916952D01*
X192682761Y-101821714D01*
X192635142Y-101774095D01*
X192492285Y-101678857D01*
X192301809Y-101631238D01*
X191920857Y-101631238D01*
X191825619Y-101678857D01*
X191778000Y-101726476D01*
X191730380Y-101821714D01*
X191730380Y-102012190D01*
X191778000Y-102107428D01*
X191825619Y-102155047D01*
X191920857Y-102202666D01*
X192158952Y-102202666D01*
X192254190Y-102155047D01*
X192301809Y-102107428D01*
X192349428Y-102012190D01*
X192349428Y-101821714D01*
X192301809Y-101726476D01*
X192254190Y-101678857D01*
X192158952Y-101631238D01*
X192158952Y-101059809D02*
X192111333Y-101155047D01*
X192063714Y-101202666D01*
X191968476Y-101250285D01*
X191920857Y-101250285D01*
X191825619Y-101202666D01*
X191778000Y-101155047D01*
X191730380Y-101059809D01*
X191730380Y-100869333D01*
X191778000Y-100774095D01*
X191825619Y-100726476D01*
X191920857Y-100678857D01*
X191968476Y-100678857D01*
X192063714Y-100726476D01*
X192111333Y-100774095D01*
X192158952Y-100869333D01*
X192158952Y-101059809D01*
X192206571Y-101155047D01*
X192254190Y-101202666D01*
X192349428Y-101250285D01*
X192539904Y-101250285D01*
X192635142Y-101202666D01*
X192682761Y-101155047D01*
X192730380Y-101059809D01*
X192730380Y-100869333D01*
X192682761Y-100774095D01*
X192635142Y-100726476D01*
X192539904Y-100678857D01*
X192349428Y-100678857D01*
X192254190Y-100726476D01*
X192206571Y-100774095D01*
X192158952Y-100869333D01*
X191730380Y-100059809D02*
X191730380Y-99964571D01*
X191778000Y-99869333D01*
X191825619Y-99821714D01*
X191920857Y-99774095D01*
X192111333Y-99726476D01*
X192349428Y-99726476D01*
X192539904Y-99774095D01*
X192635142Y-99821714D01*
X192682761Y-99869333D01*
X192730380Y-99964571D01*
X192730380Y-100059809D01*
X192682761Y-100155047D01*
X192635142Y-100202666D01*
X192539904Y-100250285D01*
X192349428Y-100297904D01*
X192111333Y-100297904D01*
X191920857Y-100250285D01*
X191825619Y-100202666D01*
X191778000Y-100155047D01*
X191730380Y-100059809D01*
X192730380Y-98059809D02*
X192730380Y-98536000D01*
X191730380Y-98536000D01*
X191825619Y-97012190D02*
X191778000Y-96964571D01*
X191730380Y-96869333D01*
X191730380Y-96631238D01*
X191778000Y-96536000D01*
X191825619Y-96488380D01*
X191920857Y-96440761D01*
X192016095Y-96440761D01*
X192158952Y-96488380D01*
X192730380Y-97059809D01*
X192730380Y-96440761D01*
X191730380Y-95821714D02*
X191730380Y-95726476D01*
X191778000Y-95631238D01*
X191825619Y-95583619D01*
X191920857Y-95536000D01*
X192111333Y-95488380D01*
X192349428Y-95488380D01*
X192539904Y-95536000D01*
X192635142Y-95583619D01*
X192682761Y-95631238D01*
X192730380Y-95726476D01*
X192730380Y-95821714D01*
X192682761Y-95916952D01*
X192635142Y-95964571D01*
X192539904Y-96012190D01*
X192349428Y-96059809D01*
X192111333Y-96059809D01*
X191920857Y-96012190D01*
X191825619Y-95964571D01*
X191778000Y-95916952D01*
X191730380Y-95821714D01*
X191825619Y-95107428D02*
X191778000Y-95059809D01*
X191730380Y-94964571D01*
X191730380Y-94726476D01*
X191778000Y-94631238D01*
X191825619Y-94583619D01*
X191920857Y-94536000D01*
X192016095Y-94536000D01*
X192158952Y-94583619D01*
X192730380Y-95155047D01*
X192730380Y-94536000D01*
X191730380Y-93916952D02*
X191730380Y-93821714D01*
X191778000Y-93726476D01*
X191825619Y-93678857D01*
X191920857Y-93631238D01*
X192111333Y-93583619D01*
X192349428Y-93583619D01*
X192539904Y-93631238D01*
X192635142Y-93678857D01*
X192682761Y-93726476D01*
X192730380Y-93821714D01*
X192730380Y-93916952D01*
X192682761Y-94012190D01*
X192635142Y-94059809D01*
X192539904Y-94107428D01*
X192349428Y-94155047D01*
X192111333Y-94155047D01*
X191920857Y-94107428D01*
X191825619Y-94059809D01*
X191778000Y-94012190D01*
X191730380Y-93916952D01*
X191730380Y-92964571D02*
X191730380Y-92869333D01*
X191778000Y-92774095D01*
X191825619Y-92726476D01*
X191920857Y-92678857D01*
X192111333Y-92631238D01*
X192349428Y-92631238D01*
X192539904Y-92678857D01*
X192635142Y-92726476D01*
X192682761Y-92774095D01*
X192730380Y-92869333D01*
X192730380Y-92964571D01*
X192682761Y-93059809D01*
X192635142Y-93107428D01*
X192539904Y-93155047D01*
X192349428Y-93202666D01*
X192111333Y-93202666D01*
X191920857Y-93155047D01*
X191825619Y-93107428D01*
X191778000Y-93059809D01*
X191730380Y-92964571D01*
X192063714Y-91774095D02*
X192730380Y-91774095D01*
X191682761Y-92012190D02*
X192397047Y-92250285D01*
X192397047Y-91631238D01*
X192730380Y-90726476D02*
X192730380Y-91297904D01*
X192730380Y-91012190D02*
X191730380Y-91012190D01*
X191873238Y-91107428D01*
X191968476Y-91202666D01*
X192016095Y-91297904D01*
X192158952Y-90155047D02*
X192111333Y-90250285D01*
X192063714Y-90297904D01*
X191968476Y-90345523D01*
X191920857Y-90345523D01*
X191825619Y-90297904D01*
X191778000Y-90250285D01*
X191730380Y-90155047D01*
X191730380Y-89964571D01*
X191778000Y-89869333D01*
X191825619Y-89821714D01*
X191920857Y-89774095D01*
X191968476Y-89774095D01*
X192063714Y-89821714D01*
X192111333Y-89869333D01*
X192158952Y-89964571D01*
X192158952Y-90155047D01*
X192206571Y-90250285D01*
X192254190Y-90297904D01*
X192349428Y-90345523D01*
X192539904Y-90345523D01*
X192635142Y-90297904D01*
X192682761Y-90250285D01*
X192730380Y-90155047D01*
X192730380Y-89964571D01*
X192682761Y-89869333D01*
X192635142Y-89821714D01*
X192539904Y-89774095D01*
X192349428Y-89774095D01*
X192254190Y-89821714D01*
X192206571Y-89869333D01*
X192158952Y-89964571D01*
X123809952Y-122277166D02*
X124286142Y-122277166D01*
X123714714Y-122562880D02*
X124048047Y-121562880D01*
X124381380Y-122562880D01*
X125809952Y-122039071D02*
X125952809Y-122086690D01*
X126000428Y-122134309D01*
X126048047Y-122229547D01*
X126048047Y-122372404D01*
X126000428Y-122467642D01*
X125952809Y-122515261D01*
X125857571Y-122562880D01*
X125476619Y-122562880D01*
X125476619Y-121562880D01*
X125809952Y-121562880D01*
X125905190Y-121610500D01*
X125952809Y-121658119D01*
X126000428Y-121753357D01*
X126000428Y-121848595D01*
X125952809Y-121943833D01*
X125905190Y-121991452D01*
X125809952Y-122039071D01*
X125476619Y-122039071D01*
X127095666Y-121562880D02*
X127667095Y-121562880D01*
X127381380Y-122562880D02*
X127381380Y-121562880D01*
X127905190Y-121562880D02*
X128571857Y-122562880D01*
X128571857Y-121562880D02*
X127905190Y-122562880D01*
X128952809Y-122562880D02*
X128952809Y-121562880D01*
X129190904Y-121562880D01*
X129333761Y-121610500D01*
X129429000Y-121705738D01*
X129476619Y-121800976D01*
X129524238Y-121991452D01*
X129524238Y-122134309D01*
X129476619Y-122324785D01*
X129429000Y-122420023D01*
X129333761Y-122515261D01*
X129190904Y-122562880D01*
X128952809Y-122562880D01*
X131286142Y-122562880D02*
X130952809Y-122086690D01*
X130714714Y-122562880D02*
X130714714Y-121562880D01*
X131095666Y-121562880D01*
X131190904Y-121610500D01*
X131238523Y-121658119D01*
X131286142Y-121753357D01*
X131286142Y-121896214D01*
X131238523Y-121991452D01*
X131190904Y-122039071D01*
X131095666Y-122086690D01*
X130714714Y-122086690D01*
X131619476Y-121562880D02*
X132286142Y-122562880D01*
X132286142Y-121562880D02*
X131619476Y-122562880D01*
X132667095Y-122562880D02*
X132667095Y-121562880D01*
X132905190Y-121562880D01*
X133048047Y-121610500D01*
X133143285Y-121705738D01*
X133190904Y-121800976D01*
X133238523Y-121991452D01*
X133238523Y-122134309D01*
X133190904Y-122324785D01*
X133143285Y-122420023D01*
X133048047Y-122515261D01*
X132905190Y-122562880D01*
X132667095Y-122562880D01*
X134952809Y-121610500D02*
X134857571Y-121562880D01*
X134714714Y-121562880D01*
X134571857Y-121610500D01*
X134476619Y-121705738D01*
X134429000Y-121800976D01*
X134381380Y-121991452D01*
X134381380Y-122134309D01*
X134429000Y-122324785D01*
X134476619Y-122420023D01*
X134571857Y-122515261D01*
X134714714Y-122562880D01*
X134809952Y-122562880D01*
X134952809Y-122515261D01*
X135000428Y-122467642D01*
X135000428Y-122134309D01*
X134809952Y-122134309D01*
X135429000Y-122562880D02*
X135429000Y-121562880D01*
X136000428Y-122562880D01*
X136000428Y-121562880D01*
X136476619Y-122562880D02*
X136476619Y-121562880D01*
X136714714Y-121562880D01*
X136857571Y-121610500D01*
X136952809Y-121705738D01*
X137000428Y-121800976D01*
X137048047Y-121991452D01*
X137048047Y-122134309D01*
X137000428Y-122324785D01*
X136952809Y-122420023D01*
X136857571Y-122515261D01*
X136714714Y-122562880D01*
X136476619Y-122562880D01*
X114617547Y-61602928D02*
X115379452Y-61602928D01*
X114998500Y-61983880D02*
X114998500Y-61221976D01*
D11*
G36*
X138083409Y-115543708D02*
G01*
X138083944Y-115491143D01*
X138087660Y-115337119D01*
X138098699Y-115208125D01*
X138118246Y-115099763D01*
X138147483Y-115007638D01*
X138187597Y-114927353D01*
X138239769Y-114854512D01*
X138262433Y-114828495D01*
X138315462Y-114785337D01*
X138387421Y-114746421D01*
X138467184Y-114716427D01*
X138543625Y-114700035D01*
X138571872Y-114698332D01*
X138650174Y-114709005D01*
X138735705Y-114737607D01*
X138816663Y-114779011D01*
X138881246Y-114828095D01*
X138889038Y-114836067D01*
X138943808Y-114903600D01*
X138986563Y-114977552D01*
X139018423Y-115062188D01*
X139040508Y-115161771D01*
X139053938Y-115280566D01*
X139059834Y-115422834D01*
X139060334Y-115488000D01*
X139059935Y-115570855D01*
X139058266Y-115629123D01*
X139054622Y-115668270D01*
X139048293Y-115693763D01*
X139038574Y-115711068D01*
X139030274Y-115720344D01*
X139020192Y-115729106D01*
X139007185Y-115735979D01*
X138987769Y-115741192D01*
X138958460Y-115744973D01*
X138915773Y-115747551D01*
X138856225Y-115749154D01*
X138776330Y-115750011D01*
X138672605Y-115750351D01*
X138571872Y-115750403D01*
X138437519Y-115750734D01*
X138330192Y-115750662D01*
X138278795Y-115749384D01*
X138278795Y-115555019D01*
X138864949Y-115555019D01*
X138864835Y-115431025D01*
X138862696Y-115356415D01*
X138857183Y-115278272D01*
X138849472Y-115213074D01*
X138849155Y-115211090D01*
X138823678Y-115105717D01*
X138784000Y-115023986D01*
X138727538Y-114961816D01*
X138666406Y-114922314D01*
X138598593Y-114897974D01*
X138534919Y-114899861D01*
X138466665Y-114928109D01*
X138396056Y-114983362D01*
X138343735Y-115059927D01*
X138308763Y-115159449D01*
X138296386Y-115225961D01*
X138287694Y-115301461D01*
X138281404Y-115381479D01*
X138278788Y-115449538D01*
X138278776Y-115453569D01*
X138278795Y-115555019D01*
X138278795Y-115749384D01*
X138246881Y-115748590D01*
X138184579Y-115742915D01*
X138140275Y-115732041D01*
X138110960Y-115714368D01*
X138093625Y-115688297D01*
X138085261Y-115652229D01*
X138082859Y-115604566D01*
X138083409Y-115543708D01*
G37*
X138083409Y-115543708D02*
X138083944Y-115491143D01*
X138087660Y-115337119D01*
X138098699Y-115208125D01*
X138118246Y-115099763D01*
X138147483Y-115007638D01*
X138187597Y-114927353D01*
X138239769Y-114854512D01*
X138262433Y-114828495D01*
X138315462Y-114785337D01*
X138387421Y-114746421D01*
X138467184Y-114716427D01*
X138543625Y-114700035D01*
X138571872Y-114698332D01*
X138650174Y-114709005D01*
X138735705Y-114737607D01*
X138816663Y-114779011D01*
X138881246Y-114828095D01*
X138889038Y-114836067D01*
X138943808Y-114903600D01*
X138986563Y-114977552D01*
X139018423Y-115062188D01*
X139040508Y-115161771D01*
X139053938Y-115280566D01*
X139059834Y-115422834D01*
X139060334Y-115488000D01*
X139059935Y-115570855D01*
X139058266Y-115629123D01*
X139054622Y-115668270D01*
X139048293Y-115693763D01*
X139038574Y-115711068D01*
X139030274Y-115720344D01*
X139020192Y-115729106D01*
X139007185Y-115735979D01*
X138987769Y-115741192D01*
X138958460Y-115744973D01*
X138915773Y-115747551D01*
X138856225Y-115749154D01*
X138776330Y-115750011D01*
X138672605Y-115750351D01*
X138571872Y-115750403D01*
X138437519Y-115750734D01*
X138330192Y-115750662D01*
X138278795Y-115749384D01*
X138278795Y-115555019D01*
X138864949Y-115555019D01*
X138864835Y-115431025D01*
X138862696Y-115356415D01*
X138857183Y-115278272D01*
X138849472Y-115213074D01*
X138849155Y-115211090D01*
X138823678Y-115105717D01*
X138784000Y-115023986D01*
X138727538Y-114961816D01*
X138666406Y-114922314D01*
X138598593Y-114897974D01*
X138534919Y-114899861D01*
X138466665Y-114928109D01*
X138396056Y-114983362D01*
X138343735Y-115059927D01*
X138308763Y-115159449D01*
X138296386Y-115225961D01*
X138287694Y-115301461D01*
X138281404Y-115381479D01*
X138278788Y-115449538D01*
X138278776Y-115453569D01*
X138278795Y-115555019D01*
X138278795Y-115749384D01*
X138246881Y-115748590D01*
X138184579Y-115742915D01*
X138140275Y-115732041D01*
X138110960Y-115714368D01*
X138093625Y-115688297D01*
X138085261Y-115652229D01*
X138082859Y-115604566D01*
X138083409Y-115543708D01*
G36*
X138083516Y-113668384D02*
G01*
X138084012Y-113575976D01*
X138085165Y-113506227D01*
X138087244Y-113455437D01*
X138090515Y-113419905D01*
X138095247Y-113395932D01*
X138101707Y-113379818D01*
X138110163Y-113367863D01*
X138114055Y-113363533D01*
X138155404Y-113337205D01*
X138202916Y-113332465D01*
X138245095Y-113349784D01*
X138253620Y-113357793D01*
X138261885Y-113370746D01*
X138268261Y-113391602D01*
X138273059Y-113424230D01*
X138276588Y-113472496D01*
X138279158Y-113540268D01*
X138281081Y-113631414D01*
X138282251Y-113714745D01*
X138286310Y-114044546D01*
X138459150Y-114053560D01*
X138459150Y-113829696D01*
X138459989Y-113732508D01*
X138463496Y-113661357D01*
X138471159Y-113612245D01*
X138484467Y-113581171D01*
X138504905Y-113564138D01*
X138533963Y-113557146D01*
X138560931Y-113556084D01*
X138594021Y-113559384D01*
X138618404Y-113571837D01*
X138635353Y-113597274D01*
X138646143Y-113639525D01*
X138652048Y-113702420D01*
X138654341Y-113789789D01*
X138654535Y-113837475D01*
X138654535Y-114052060D01*
X138864949Y-114052060D01*
X138864949Y-113721409D01*
X138865100Y-113613024D01*
X138865778Y-113530651D01*
X138867320Y-113470243D01*
X138870063Y-113427753D01*
X138874345Y-113399135D01*
X138880503Y-113380342D01*
X138888873Y-113367328D01*
X138895008Y-113360699D01*
X138930813Y-113337961D01*
X138962641Y-113330640D01*
X139001518Y-113341093D01*
X139030274Y-113360699D01*
X139039327Y-113371159D01*
X139046357Y-113384662D01*
X139051618Y-113404840D01*
X139055365Y-113435325D01*
X139057854Y-113479749D01*
X139059339Y-113541745D01*
X139060075Y-113624945D01*
X139060318Y-113732981D01*
X139060334Y-113789043D01*
X139060227Y-113909098D01*
X139059739Y-114002728D01*
X139058613Y-114073563D01*
X139056595Y-114125235D01*
X139053430Y-114161377D01*
X139048863Y-114185622D01*
X139042640Y-114201601D01*
X139034504Y-114212947D01*
X139030274Y-114217386D01*
X139020160Y-114226171D01*
X139007112Y-114233058D01*
X138987634Y-114238275D01*
X138958228Y-114242053D01*
X138915398Y-114244624D01*
X138855648Y-114246218D01*
X138775481Y-114247065D01*
X138671401Y-114247396D01*
X138574492Y-114247445D01*
X138450387Y-114247400D01*
X138352830Y-114247088D01*
X138278310Y-114246242D01*
X138223315Y-114244596D01*
X138184334Y-114241883D01*
X138157857Y-114237837D01*
X138140370Y-114232191D01*
X138128364Y-114224680D01*
X138118327Y-114215036D01*
X138116090Y-114212660D01*
X138106183Y-114201129D01*
X138098512Y-114187732D01*
X138092790Y-114168750D01*
X138088732Y-114140469D01*
X138086052Y-114099172D01*
X138084466Y-114041142D01*
X138083688Y-113962663D01*
X138083432Y-113860020D01*
X138083410Y-113787150D01*
X138083516Y-113668384D01*
G37*
X138083516Y-113668384D02*
X138084012Y-113575976D01*
X138085165Y-113506227D01*
X138087244Y-113455437D01*
X138090515Y-113419905D01*
X138095247Y-113395932D01*
X138101707Y-113379818D01*
X138110163Y-113367863D01*
X138114055Y-113363533D01*
X138155404Y-113337205D01*
X138202916Y-113332465D01*
X138245095Y-113349784D01*
X138253620Y-113357793D01*
X138261885Y-113370746D01*
X138268261Y-113391602D01*
X138273059Y-113424230D01*
X138276588Y-113472496D01*
X138279158Y-113540268D01*
X138281081Y-113631414D01*
X138282251Y-113714745D01*
X138286310Y-114044546D01*
X138459150Y-114053560D01*
X138459150Y-113829696D01*
X138459989Y-113732508D01*
X138463496Y-113661357D01*
X138471159Y-113612245D01*
X138484467Y-113581171D01*
X138504905Y-113564138D01*
X138533963Y-113557146D01*
X138560931Y-113556084D01*
X138594021Y-113559384D01*
X138618404Y-113571837D01*
X138635353Y-113597274D01*
X138646143Y-113639525D01*
X138652048Y-113702420D01*
X138654341Y-113789789D01*
X138654535Y-113837475D01*
X138654535Y-114052060D01*
X138864949Y-114052060D01*
X138864949Y-113721409D01*
X138865100Y-113613024D01*
X138865778Y-113530651D01*
X138867320Y-113470243D01*
X138870063Y-113427753D01*
X138874345Y-113399135D01*
X138880503Y-113380342D01*
X138888873Y-113367328D01*
X138895008Y-113360699D01*
X138930813Y-113337961D01*
X138962641Y-113330640D01*
X139001518Y-113341093D01*
X139030274Y-113360699D01*
X139039327Y-113371159D01*
X139046357Y-113384662D01*
X139051618Y-113404840D01*
X139055365Y-113435325D01*
X139057854Y-113479749D01*
X139059339Y-113541745D01*
X139060075Y-113624945D01*
X139060318Y-113732981D01*
X139060334Y-113789043D01*
X139060227Y-113909098D01*
X139059739Y-114002728D01*
X139058613Y-114073563D01*
X139056595Y-114125235D01*
X139053430Y-114161377D01*
X139048863Y-114185622D01*
X139042640Y-114201601D01*
X139034504Y-114212947D01*
X139030274Y-114217386D01*
X139020160Y-114226171D01*
X139007112Y-114233058D01*
X138987634Y-114238275D01*
X138958228Y-114242053D01*
X138915398Y-114244624D01*
X138855648Y-114246218D01*
X138775481Y-114247065D01*
X138671401Y-114247396D01*
X138574492Y-114247445D01*
X138450387Y-114247400D01*
X138352830Y-114247088D01*
X138278310Y-114246242D01*
X138223315Y-114244596D01*
X138184334Y-114241883D01*
X138157857Y-114237837D01*
X138140370Y-114232191D01*
X138128364Y-114224680D01*
X138118327Y-114215036D01*
X138116090Y-114212660D01*
X138106183Y-114201129D01*
X138098512Y-114187732D01*
X138092790Y-114168750D01*
X138088732Y-114140469D01*
X138086052Y-114099172D01*
X138084466Y-114041142D01*
X138083688Y-113962663D01*
X138083432Y-113860020D01*
X138083410Y-113787150D01*
X138083516Y-113668384D01*
G36*
X138085121Y-112308942D02*
G01*
X138092084Y-112209337D01*
X138102959Y-112116698D01*
X138117338Y-112036412D01*
X138134810Y-111973862D01*
X138154966Y-111934435D01*
X138160899Y-111928383D01*
X138206939Y-111907338D01*
X138254204Y-111913720D01*
X138294642Y-111946361D01*
X138295801Y-111947918D01*
X138308261Y-111967117D01*
X138314813Y-111987159D01*
X138315608Y-112015114D01*
X138310800Y-112058053D01*
X138300539Y-112123045D01*
X138299675Y-112128273D01*
X138287778Y-112225115D01*
X138281909Y-112329598D01*
X138281852Y-112434389D01*
X138287391Y-112532156D01*
X138298309Y-112615566D01*
X138314389Y-112677287D01*
X138316005Y-112681342D01*
X138341093Y-112726118D01*
X138366482Y-112741850D01*
X138391451Y-112729534D01*
X138415280Y-112690169D01*
X138437246Y-112624752D01*
X138456630Y-112534280D01*
X138465962Y-112473954D01*
X138483913Y-112348554D01*
X138500323Y-112248819D01*
X138516612Y-112170500D01*
X138534202Y-112109347D01*
X138554513Y-112061113D01*
X138578967Y-112021549D01*
X138608984Y-111986406D01*
X138638460Y-111958165D01*
X138679531Y-111924662D01*
X138714846Y-111908173D01*
X138758357Y-111903017D01*
X138774292Y-111902830D01*
X138827169Y-111906702D01*
X138866507Y-111922181D01*
X138901424Y-111948969D01*
X138954798Y-112003413D01*
X138995502Y-112064124D01*
X139024864Y-112135612D01*
X139044211Y-112222390D01*
X139054870Y-112328968D01*
X139058169Y-112459857D01*
X139058113Y-112481469D01*
X139056304Y-112568752D01*
X139052193Y-112655313D01*
X139046370Y-112731716D01*
X139039425Y-112788524D01*
X139038628Y-112793118D01*
X139025248Y-112849599D01*
X139008346Y-112897506D01*
X138992895Y-112924627D01*
X138952130Y-112949865D01*
X138904662Y-112951623D01*
X138862359Y-112929866D01*
X138857576Y-112924998D01*
X138843363Y-112904876D01*
X138837240Y-112879712D01*
X138838282Y-112840767D01*
X138843698Y-112793489D01*
X138848537Y-112740659D01*
X138852619Y-112666602D01*
X138855582Y-112580145D01*
X138857061Y-112490117D01*
X138857158Y-112466439D01*
X138856794Y-112376076D01*
X138855040Y-112309943D01*
X138851287Y-112262221D01*
X138844927Y-112227092D01*
X138835351Y-112198736D01*
X138827375Y-112181695D01*
X138805229Y-112144250D01*
X138785172Y-112120375D01*
X138779487Y-112116886D01*
X138756009Y-112124247D01*
X138733281Y-112159241D01*
X138712334Y-112219442D01*
X138694200Y-112302425D01*
X138690161Y-112326874D01*
X138670103Y-112454576D01*
X138653338Y-112556494D01*
X138638647Y-112636560D01*
X138624812Y-112698708D01*
X138610615Y-112746872D01*
X138594837Y-112784986D01*
X138576260Y-112816984D01*
X138553666Y-112846798D01*
X138525837Y-112878364D01*
X138516080Y-112888986D01*
X138479666Y-112926227D01*
X138450816Y-112945941D01*
X138417802Y-112953653D01*
X138376199Y-112954901D01*
X138294615Y-112941169D01*
X138225298Y-112900132D01*
X138168472Y-112832024D01*
X138124361Y-112737081D01*
X138104576Y-112669338D01*
X138091797Y-112595713D01*
X138084568Y-112507515D01*
X138082479Y-112410130D01*
X138085121Y-112308942D01*
G37*
X138085121Y-112308942D02*
X138092084Y-112209337D01*
X138102959Y-112116698D01*
X138117338Y-112036412D01*
X138134810Y-111973862D01*
X138154966Y-111934435D01*
X138160899Y-111928383D01*
X138206939Y-111907338D01*
X138254204Y-111913720D01*
X138294642Y-111946361D01*
X138295801Y-111947918D01*
X138308261Y-111967117D01*
X138314813Y-111987159D01*
X138315608Y-112015114D01*
X138310800Y-112058053D01*
X138300539Y-112123045D01*
X138299675Y-112128273D01*
X138287778Y-112225115D01*
X138281909Y-112329598D01*
X138281852Y-112434389D01*
X138287391Y-112532156D01*
X138298309Y-112615566D01*
X138314389Y-112677287D01*
X138316005Y-112681342D01*
X138341093Y-112726118D01*
X138366482Y-112741850D01*
X138391451Y-112729534D01*
X138415280Y-112690169D01*
X138437246Y-112624752D01*
X138456630Y-112534280D01*
X138465962Y-112473954D01*
X138483913Y-112348554D01*
X138500323Y-112248819D01*
X138516612Y-112170500D01*
X138534202Y-112109347D01*
X138554513Y-112061113D01*
X138578967Y-112021549D01*
X138608984Y-111986406D01*
X138638460Y-111958165D01*
X138679531Y-111924662D01*
X138714846Y-111908173D01*
X138758357Y-111903017D01*
X138774292Y-111902830D01*
X138827169Y-111906702D01*
X138866507Y-111922181D01*
X138901424Y-111948969D01*
X138954798Y-112003413D01*
X138995502Y-112064124D01*
X139024864Y-112135612D01*
X139044211Y-112222390D01*
X139054870Y-112328968D01*
X139058169Y-112459857D01*
X139058113Y-112481469D01*
X139056304Y-112568752D01*
X139052193Y-112655313D01*
X139046370Y-112731716D01*
X139039425Y-112788524D01*
X139038628Y-112793118D01*
X139025248Y-112849599D01*
X139008346Y-112897506D01*
X138992895Y-112924627D01*
X138952130Y-112949865D01*
X138904662Y-112951623D01*
X138862359Y-112929866D01*
X138857576Y-112924998D01*
X138843363Y-112904876D01*
X138837240Y-112879712D01*
X138838282Y-112840767D01*
X138843698Y-112793489D01*
X138848537Y-112740659D01*
X138852619Y-112666602D01*
X138855582Y-112580145D01*
X138857061Y-112490117D01*
X138857158Y-112466439D01*
X138856794Y-112376076D01*
X138855040Y-112309943D01*
X138851287Y-112262221D01*
X138844927Y-112227092D01*
X138835351Y-112198736D01*
X138827375Y-112181695D01*
X138805229Y-112144250D01*
X138785172Y-112120375D01*
X138779487Y-112116886D01*
X138756009Y-112124247D01*
X138733281Y-112159241D01*
X138712334Y-112219442D01*
X138694200Y-112302425D01*
X138690161Y-112326874D01*
X138670103Y-112454576D01*
X138653338Y-112556494D01*
X138638647Y-112636560D01*
X138624812Y-112698708D01*
X138610615Y-112746872D01*
X138594837Y-112784986D01*
X138576260Y-112816984D01*
X138553666Y-112846798D01*
X138525837Y-112878364D01*
X138516080Y-112888986D01*
X138479666Y-112926227D01*
X138450816Y-112945941D01*
X138417802Y-112953653D01*
X138376199Y-112954901D01*
X138294615Y-112941169D01*
X138225298Y-112900132D01*
X138168472Y-112832024D01*
X138124361Y-112737081D01*
X138104576Y-112669338D01*
X138091797Y-112595713D01*
X138084568Y-112507515D01*
X138082479Y-112410130D01*
X138085121Y-112308942D01*
G36*
X138113470Y-111286617D02*
G01*
X138123552Y-111277855D01*
X138136559Y-111270982D01*
X138155975Y-111265769D01*
X138185284Y-111261988D01*
X138227971Y-111259410D01*
X138287519Y-111257807D01*
X138367414Y-111256949D01*
X138471140Y-111256610D01*
X138571872Y-111256557D01*
X138696816Y-111256650D01*
X138795185Y-111257081D01*
X138870465Y-111258077D01*
X138926138Y-111259869D01*
X138965690Y-111262683D01*
X138992605Y-111266750D01*
X139010367Y-111272296D01*
X139022461Y-111279551D01*
X139030274Y-111286617D01*
X139056476Y-111330556D01*
X139054125Y-111377374D01*
X139025548Y-111419263D01*
X139014391Y-111428888D01*
X139001447Y-111436409D01*
X138983136Y-111442088D01*
X138955882Y-111446181D01*
X138916104Y-111448949D01*
X138860226Y-111450650D01*
X138784668Y-111451543D01*
X138685852Y-111451887D01*
X138573978Y-111451942D01*
X138157192Y-111451942D01*
X138120301Y-111415051D01*
X138089264Y-111369579D01*
X138088145Y-111325470D01*
X138113470Y-111286617D01*
G37*
X138113470Y-111286617D02*
X138123552Y-111277855D01*
X138136559Y-111270982D01*
X138155975Y-111265769D01*
X138185284Y-111261988D01*
X138227971Y-111259410D01*
X138287519Y-111257807D01*
X138367414Y-111256949D01*
X138471140Y-111256610D01*
X138571872Y-111256557D01*
X138696816Y-111256650D01*
X138795185Y-111257081D01*
X138870465Y-111258077D01*
X138926138Y-111259869D01*
X138965690Y-111262683D01*
X138992605Y-111266750D01*
X139010367Y-111272296D01*
X139022461Y-111279551D01*
X139030274Y-111286617D01*
X139056476Y-111330556D01*
X139054125Y-111377374D01*
X139025548Y-111419263D01*
X139014391Y-111428888D01*
X139001447Y-111436409D01*
X138983136Y-111442088D01*
X138955882Y-111446181D01*
X138916104Y-111448949D01*
X138860226Y-111450650D01*
X138784668Y-111451543D01*
X138685852Y-111451887D01*
X138573978Y-111451942D01*
X138157192Y-111451942D01*
X138120301Y-111415051D01*
X138089264Y-111369579D01*
X138088145Y-111325470D01*
X138113470Y-111286617D01*
G36*
X138090776Y-109990216D02*
G01*
X138106082Y-109898995D01*
X138129875Y-109828936D01*
X138161204Y-109783358D01*
X138179078Y-109770938D01*
X138220649Y-109758308D01*
X138258256Y-109766807D01*
X138293919Y-109793639D01*
X138310603Y-109835330D01*
X138309248Y-109895824D01*
X138300209Y-109942613D01*
X138282987Y-110046582D01*
X138281351Y-110152834D01*
X138295329Y-110271763D01*
X138301252Y-110304614D01*
X138332431Y-110415199D01*
X138378810Y-110501713D01*
X138439599Y-110563207D01*
X138514008Y-110598732D01*
X138552478Y-110606079D01*
X138630527Y-110601270D01*
X138699581Y-110570220D01*
X138758293Y-110515760D01*
X138805317Y-110440718D01*
X138839307Y-110347924D01*
X138858918Y-110240206D01*
X138862805Y-110120395D01*
X138849620Y-109991319D01*
X138848376Y-109984031D01*
X138838814Y-109932692D01*
X138829578Y-109904226D01*
X138815873Y-109891888D01*
X138792906Y-109888932D01*
X138780743Y-109888865D01*
X138729683Y-109888865D01*
X138729683Y-109980031D01*
X138724168Y-110060536D01*
X138706594Y-110115475D01*
X138675417Y-110147440D01*
X138629094Y-110159026D01*
X138623048Y-110159167D01*
X138583453Y-110152389D01*
X138555181Y-110129145D01*
X138536471Y-110085884D01*
X138525564Y-110019055D01*
X138521554Y-109954324D01*
X138519253Y-109860241D01*
X138522764Y-109791998D01*
X138535719Y-109745455D01*
X138561750Y-109716472D01*
X138604491Y-109700909D01*
X138667574Y-109694625D01*
X138750428Y-109693480D01*
X138842910Y-109695356D01*
X138905818Y-109701000D01*
X138939403Y-109710436D01*
X138942033Y-109712267D01*
X138983998Y-109764079D01*
X139017232Y-109840044D01*
X139041023Y-109935346D01*
X139054663Y-110045170D01*
X139057442Y-110164700D01*
X139048649Y-110289120D01*
X139037849Y-110362297D01*
X139005362Y-110477074D01*
X138952250Y-110583750D01*
X138883319Y-110673065D01*
X138869542Y-110686640D01*
X138811622Y-110730746D01*
X138739840Y-110770543D01*
X138664583Y-110801381D01*
X138596241Y-110818611D01*
X138569993Y-110820688D01*
X138515241Y-110811847D01*
X138447119Y-110788349D01*
X138375414Y-110754703D01*
X138309913Y-110715418D01*
X138266162Y-110680709D01*
X138201083Y-110599557D01*
X138149285Y-110494652D01*
X138111938Y-110369754D01*
X138090217Y-110228621D01*
X138084909Y-110099279D01*
X138090776Y-109990216D01*
G37*
X138090776Y-109990216D02*
X138106082Y-109898995D01*
X138129875Y-109828936D01*
X138161204Y-109783358D01*
X138179078Y-109770938D01*
X138220649Y-109758308D01*
X138258256Y-109766807D01*
X138293919Y-109793639D01*
X138310603Y-109835330D01*
X138309248Y-109895824D01*
X138300209Y-109942613D01*
X138282987Y-110046582D01*
X138281351Y-110152834D01*
X138295329Y-110271763D01*
X138301252Y-110304614D01*
X138332431Y-110415199D01*
X138378810Y-110501713D01*
X138439599Y-110563207D01*
X138514008Y-110598732D01*
X138552478Y-110606079D01*
X138630527Y-110601270D01*
X138699581Y-110570220D01*
X138758293Y-110515760D01*
X138805317Y-110440718D01*
X138839307Y-110347924D01*
X138858918Y-110240206D01*
X138862805Y-110120395D01*
X138849620Y-109991319D01*
X138848376Y-109984031D01*
X138838814Y-109932692D01*
X138829578Y-109904226D01*
X138815873Y-109891888D01*
X138792906Y-109888932D01*
X138780743Y-109888865D01*
X138729683Y-109888865D01*
X138729683Y-109980031D01*
X138724168Y-110060536D01*
X138706594Y-110115475D01*
X138675417Y-110147440D01*
X138629094Y-110159026D01*
X138623048Y-110159167D01*
X138583453Y-110152389D01*
X138555181Y-110129145D01*
X138536471Y-110085884D01*
X138525564Y-110019055D01*
X138521554Y-109954324D01*
X138519253Y-109860241D01*
X138522764Y-109791998D01*
X138535719Y-109745455D01*
X138561750Y-109716472D01*
X138604491Y-109700909D01*
X138667574Y-109694625D01*
X138750428Y-109693480D01*
X138842910Y-109695356D01*
X138905818Y-109701000D01*
X138939403Y-109710436D01*
X138942033Y-109712267D01*
X138983998Y-109764079D01*
X139017232Y-109840044D01*
X139041023Y-109935346D01*
X139054663Y-110045170D01*
X139057442Y-110164700D01*
X139048649Y-110289120D01*
X139037849Y-110362297D01*
X139005362Y-110477074D01*
X138952250Y-110583750D01*
X138883319Y-110673065D01*
X138869542Y-110686640D01*
X138811622Y-110730746D01*
X138739840Y-110770543D01*
X138664583Y-110801381D01*
X138596241Y-110818611D01*
X138569993Y-110820688D01*
X138515241Y-110811847D01*
X138447119Y-110788349D01*
X138375414Y-110754703D01*
X138309913Y-110715418D01*
X138266162Y-110680709D01*
X138201083Y-110599557D01*
X138149285Y-110494652D01*
X138111938Y-110369754D01*
X138090217Y-110228621D01*
X138084909Y-110099279D01*
X138090776Y-109990216D01*
G36*
X138089244Y-109124874D02*
G01*
X138107649Y-109093499D01*
X138137749Y-109052476D01*
X138180960Y-108999678D01*
X138238702Y-108932979D01*
X138312392Y-108850253D01*
X138403448Y-108749374D01*
X138508138Y-108633895D01*
X138726207Y-108393421D01*
X138433508Y-108385906D01*
X138332754Y-108383193D01*
X138257722Y-108380576D01*
X138204084Y-108377474D01*
X138167510Y-108373310D01*
X138143671Y-108367505D01*
X138128238Y-108359478D01*
X138116882Y-108348651D01*
X138112110Y-108342910D01*
X138086877Y-108296937D01*
X138090566Y-108253191D01*
X138112123Y-108218489D01*
X138140835Y-108183007D01*
X138560150Y-108178594D01*
X138683471Y-108177373D01*
X138780348Y-108176751D01*
X138854394Y-108176944D01*
X138909221Y-108178168D01*
X138948443Y-108180638D01*
X138975673Y-108184568D01*
X138994523Y-108190174D01*
X139008605Y-108197672D01*
X139019899Y-108205987D01*
X139040846Y-108223976D01*
X139054731Y-108241875D01*
X139060060Y-108262166D01*
X139055340Y-108287332D01*
X139039077Y-108319854D01*
X139009777Y-108362217D01*
X138965946Y-108416902D01*
X138906091Y-108486391D01*
X138828718Y-108573169D01*
X138739814Y-108671469D01*
X138419435Y-109024664D01*
X138711177Y-109032179D01*
X138811747Y-109034897D01*
X138886604Y-109037521D01*
X138940084Y-109040633D01*
X138976526Y-109044816D01*
X139000268Y-109050651D01*
X139015646Y-109058720D01*
X139027000Y-109069605D01*
X139031626Y-109075175D01*
X139057042Y-109124410D01*
X139053209Y-109170931D01*
X139020733Y-109211443D01*
X139007667Y-109220710D01*
X138992409Y-109227933D01*
X138971296Y-109233366D01*
X138940669Y-109237262D01*
X138896866Y-109239875D01*
X138836227Y-109241461D01*
X138755091Y-109242272D01*
X138649797Y-109242562D01*
X138571872Y-109242593D01*
X138449988Y-109242495D01*
X138354503Y-109242033D01*
X138281755Y-109240951D01*
X138228083Y-109238997D01*
X138189827Y-109235916D01*
X138163327Y-109231454D01*
X138144920Y-109225357D01*
X138130948Y-109217371D01*
X138123011Y-109211443D01*
X138104212Y-109196416D01*
X138090017Y-109182372D01*
X138081846Y-109167184D01*
X138081116Y-109148727D01*
X138089244Y-109124874D01*
G37*
X138089244Y-109124874D02*
X138107649Y-109093499D01*
X138137749Y-109052476D01*
X138180960Y-108999678D01*
X138238702Y-108932979D01*
X138312392Y-108850253D01*
X138403448Y-108749374D01*
X138508138Y-108633895D01*
X138726207Y-108393421D01*
X138433508Y-108385906D01*
X138332754Y-108383193D01*
X138257722Y-108380576D01*
X138204084Y-108377474D01*
X138167510Y-108373310D01*
X138143671Y-108367505D01*
X138128238Y-108359478D01*
X138116882Y-108348651D01*
X138112110Y-108342910D01*
X138086877Y-108296937D01*
X138090566Y-108253191D01*
X138112123Y-108218489D01*
X138140835Y-108183007D01*
X138560150Y-108178594D01*
X138683471Y-108177373D01*
X138780348Y-108176751D01*
X138854394Y-108176944D01*
X138909221Y-108178168D01*
X138948443Y-108180638D01*
X138975673Y-108184568D01*
X138994523Y-108190174D01*
X139008605Y-108197672D01*
X139019899Y-108205987D01*
X139040846Y-108223976D01*
X139054731Y-108241875D01*
X139060060Y-108262166D01*
X139055340Y-108287332D01*
X139039077Y-108319854D01*
X139009777Y-108362217D01*
X138965946Y-108416902D01*
X138906091Y-108486391D01*
X138828718Y-108573169D01*
X138739814Y-108671469D01*
X138419435Y-109024664D01*
X138711177Y-109032179D01*
X138811747Y-109034897D01*
X138886604Y-109037521D01*
X138940084Y-109040633D01*
X138976526Y-109044816D01*
X139000268Y-109050651D01*
X139015646Y-109058720D01*
X139027000Y-109069605D01*
X139031626Y-109075175D01*
X139057042Y-109124410D01*
X139053209Y-109170931D01*
X139020733Y-109211443D01*
X139007667Y-109220710D01*
X138992409Y-109227933D01*
X138971296Y-109233366D01*
X138940669Y-109237262D01*
X138896866Y-109239875D01*
X138836227Y-109241461D01*
X138755091Y-109242272D01*
X138649797Y-109242562D01*
X138571872Y-109242593D01*
X138449988Y-109242495D01*
X138354503Y-109242033D01*
X138281755Y-109240951D01*
X138228083Y-109238997D01*
X138189827Y-109235916D01*
X138163327Y-109231454D01*
X138144920Y-109225357D01*
X138130948Y-109217371D01*
X138123011Y-109211443D01*
X138104212Y-109196416D01*
X138090017Y-109182372D01*
X138081846Y-109167184D01*
X138081116Y-109148727D01*
X138089244Y-109124874D01*
G36*
X138083667Y-107087284D02*
G01*
X138084884Y-106985623D01*
X138087730Y-106907718D01*
X138092874Y-106850419D01*
X138100984Y-106810573D01*
X138112731Y-106785032D01*
X138128782Y-106770643D01*
X138149808Y-106764255D01*
X138176476Y-106762719D01*
X138179626Y-106762711D01*
X138209790Y-106764045D01*
X138233103Y-106770349D01*
X138250506Y-106785078D01*
X138262940Y-106811685D01*
X138271345Y-106853626D01*
X138276665Y-106914354D01*
X138279839Y-106997324D01*
X138281809Y-107105989D01*
X138282245Y-107139295D01*
X138286310Y-107461587D01*
X138372730Y-107466094D01*
X138459150Y-107470602D01*
X138459150Y-107246737D01*
X138459473Y-107159279D01*
X138460837Y-107096831D01*
X138463839Y-107054346D01*
X138469073Y-107026777D01*
X138477135Y-107009078D01*
X138488620Y-106996203D01*
X138488711Y-106996120D01*
X138533471Y-106972770D01*
X138581847Y-106973614D01*
X138623086Y-106998121D01*
X138627325Y-107002971D01*
X138638249Y-107020185D01*
X138645849Y-107043774D01*
X138650697Y-107078993D01*
X138653366Y-107131100D01*
X138654428Y-107205350D01*
X138654535Y-107252838D01*
X138654535Y-107469102D01*
X138864949Y-107469102D01*
X138864949Y-107140780D01*
X138865139Y-107032382D01*
X138865914Y-106950065D01*
X138867584Y-106889851D01*
X138870458Y-106847765D01*
X138874847Y-106819829D01*
X138881059Y-106802066D01*
X138889404Y-106790500D01*
X138892434Y-106787585D01*
X138934434Y-106766064D01*
X138982214Y-106764490D01*
X139023642Y-106782145D01*
X139036937Y-106796115D01*
X139044256Y-106810646D01*
X139049919Y-106833162D01*
X139054123Y-106867224D01*
X139057068Y-106916393D01*
X139058951Y-106984232D01*
X139059970Y-107074302D01*
X139060325Y-107190163D01*
X139060334Y-107216357D01*
X139060256Y-107334161D01*
X139059831Y-107425604D01*
X139058766Y-107494386D01*
X139056769Y-107544204D01*
X139053550Y-107578760D01*
X139048816Y-107601750D01*
X139042277Y-107616874D01*
X139033641Y-107627831D01*
X139027440Y-107633842D01*
X139016457Y-107642890D01*
X139002852Y-107649958D01*
X138983056Y-107655291D01*
X138953502Y-107659132D01*
X138910621Y-107661725D01*
X138850845Y-107663313D01*
X138770607Y-107664139D01*
X138666339Y-107664448D01*
X138578580Y-107664486D01*
X138455608Y-107664392D01*
X138359069Y-107663943D01*
X138285339Y-107662892D01*
X138230790Y-107660990D01*
X138191799Y-107657991D01*
X138164739Y-107653645D01*
X138145984Y-107647706D01*
X138131910Y-107639925D01*
X138123011Y-107633336D01*
X138083410Y-107602186D01*
X138083410Y-107215852D01*
X138083667Y-107087284D01*
G37*
X138083667Y-107087284D02*
X138084884Y-106985623D01*
X138087730Y-106907718D01*
X138092874Y-106850419D01*
X138100984Y-106810573D01*
X138112731Y-106785032D01*
X138128782Y-106770643D01*
X138149808Y-106764255D01*
X138176476Y-106762719D01*
X138179626Y-106762711D01*
X138209790Y-106764045D01*
X138233103Y-106770349D01*
X138250506Y-106785078D01*
X138262940Y-106811685D01*
X138271345Y-106853626D01*
X138276665Y-106914354D01*
X138279839Y-106997324D01*
X138281809Y-107105989D01*
X138282245Y-107139295D01*
X138286310Y-107461587D01*
X138372730Y-107466094D01*
X138459150Y-107470602D01*
X138459150Y-107246737D01*
X138459473Y-107159279D01*
X138460837Y-107096831D01*
X138463839Y-107054346D01*
X138469073Y-107026777D01*
X138477135Y-107009078D01*
X138488620Y-106996203D01*
X138488711Y-106996120D01*
X138533471Y-106972770D01*
X138581847Y-106973614D01*
X138623086Y-106998121D01*
X138627325Y-107002971D01*
X138638249Y-107020185D01*
X138645849Y-107043774D01*
X138650697Y-107078993D01*
X138653366Y-107131100D01*
X138654428Y-107205350D01*
X138654535Y-107252838D01*
X138654535Y-107469102D01*
X138864949Y-107469102D01*
X138864949Y-107140780D01*
X138865139Y-107032382D01*
X138865914Y-106950065D01*
X138867584Y-106889851D01*
X138870458Y-106847765D01*
X138874847Y-106819829D01*
X138881059Y-106802066D01*
X138889404Y-106790500D01*
X138892434Y-106787585D01*
X138934434Y-106766064D01*
X138982214Y-106764490D01*
X139023642Y-106782145D01*
X139036937Y-106796115D01*
X139044256Y-106810646D01*
X139049919Y-106833162D01*
X139054123Y-106867224D01*
X139057068Y-106916393D01*
X139058951Y-106984232D01*
X139059970Y-107074302D01*
X139060325Y-107190163D01*
X139060334Y-107216357D01*
X139060256Y-107334161D01*
X139059831Y-107425604D01*
X139058766Y-107494386D01*
X139056769Y-107544204D01*
X139053550Y-107578760D01*
X139048816Y-107601750D01*
X139042277Y-107616874D01*
X139033641Y-107627831D01*
X139027440Y-107633842D01*
X139016457Y-107642890D01*
X139002852Y-107649958D01*
X138983056Y-107655291D01*
X138953502Y-107659132D01*
X138910621Y-107661725D01*
X138850845Y-107663313D01*
X138770607Y-107664139D01*
X138666339Y-107664448D01*
X138578580Y-107664486D01*
X138455608Y-107664392D01*
X138359069Y-107663943D01*
X138285339Y-107662892D01*
X138230790Y-107660990D01*
X138191799Y-107657991D01*
X138164739Y-107653645D01*
X138145984Y-107647706D01*
X138131910Y-107639925D01*
X138123011Y-107633336D01*
X138083410Y-107602186D01*
X138083410Y-107215852D01*
X138083667Y-107087284D01*
G36*
X138083687Y-106038217D02*
G01*
X138089493Y-105866499D01*
X138107101Y-105720445D01*
X138137563Y-105597647D01*
X138181935Y-105495697D01*
X138241271Y-105412186D01*
X138316624Y-105344707D01*
X138409050Y-105290851D01*
X138411304Y-105289792D01*
X138494024Y-105257651D01*
X138567284Y-105246199D01*
X138641012Y-105255480D01*
X138725135Y-105285539D01*
X138737937Y-105291239D01*
X138812862Y-105330115D01*
X138870757Y-105373805D01*
X138919972Y-105430194D01*
X138968857Y-105507162D01*
X138971409Y-105511634D01*
X139003595Y-105578637D01*
X139027632Y-105654369D01*
X139044351Y-105743696D01*
X139054579Y-105851485D01*
X139059146Y-105982602D01*
X139059543Y-106028928D01*
X139060334Y-106249524D01*
X139020733Y-106280674D01*
X139007711Y-106289914D01*
X138992504Y-106297122D01*
X138971466Y-106302550D01*
X138940950Y-106306449D01*
X138897311Y-106309071D01*
X138864949Y-106309926D01*
X138864949Y-106101409D01*
X138864949Y-105976418D01*
X138862810Y-105903277D01*
X138857181Y-105828193D01*
X138849243Y-105766570D01*
X138848575Y-105762851D01*
X138819212Y-105653401D01*
X138775097Y-105568506D01*
X138714183Y-105505482D01*
X138634424Y-105461640D01*
X138613284Y-105454017D01*
X138580362Y-105446544D01*
X138547836Y-105449779D01*
X138504564Y-105465521D01*
X138483307Y-105475010D01*
X138426820Y-105506083D01*
X138387191Y-105543521D01*
X138359594Y-105584713D01*
X138323682Y-105667224D01*
X138297668Y-105772821D01*
X138282688Y-105895836D01*
X138279392Y-105984930D01*
X138278795Y-106101409D01*
X138864949Y-106101409D01*
X138864949Y-106309926D01*
X138836900Y-106310668D01*
X138756072Y-106311490D01*
X138651181Y-106311790D01*
X138569162Y-106311824D01*
X138157192Y-106311824D01*
X138120301Y-106274933D01*
X138105348Y-106258560D01*
X138095108Y-106240857D01*
X138088701Y-106216135D01*
X138085247Y-106178706D01*
X138083867Y-106122881D01*
X138083681Y-106042972D01*
X138083687Y-106038217D01*
G37*
X138083687Y-106038217D02*
X138089493Y-105866499D01*
X138107101Y-105720445D01*
X138137563Y-105597647D01*
X138181935Y-105495697D01*
X138241271Y-105412186D01*
X138316624Y-105344707D01*
X138409050Y-105290851D01*
X138411304Y-105289792D01*
X138494024Y-105257651D01*
X138567284Y-105246199D01*
X138641012Y-105255480D01*
X138725135Y-105285539D01*
X138737937Y-105291239D01*
X138812862Y-105330115D01*
X138870757Y-105373805D01*
X138919972Y-105430194D01*
X138968857Y-105507162D01*
X138971409Y-105511634D01*
X139003595Y-105578637D01*
X139027632Y-105654369D01*
X139044351Y-105743696D01*
X139054579Y-105851485D01*
X139059146Y-105982602D01*
X139059543Y-106028928D01*
X139060334Y-106249524D01*
X139020733Y-106280674D01*
X139007711Y-106289914D01*
X138992504Y-106297122D01*
X138971466Y-106302550D01*
X138940950Y-106306449D01*
X138897311Y-106309071D01*
X138864949Y-106309926D01*
X138864949Y-106101409D01*
X138864949Y-105976418D01*
X138862810Y-105903277D01*
X138857181Y-105828193D01*
X138849243Y-105766570D01*
X138848575Y-105762851D01*
X138819212Y-105653401D01*
X138775097Y-105568506D01*
X138714183Y-105505482D01*
X138634424Y-105461640D01*
X138613284Y-105454017D01*
X138580362Y-105446544D01*
X138547836Y-105449779D01*
X138504564Y-105465521D01*
X138483307Y-105475010D01*
X138426820Y-105506083D01*
X138387191Y-105543521D01*
X138359594Y-105584713D01*
X138323682Y-105667224D01*
X138297668Y-105772821D01*
X138282688Y-105895836D01*
X138279392Y-105984930D01*
X138278795Y-106101409D01*
X138864949Y-106101409D01*
X138864949Y-106309926D01*
X138836900Y-106310668D01*
X138756072Y-106311490D01*
X138651181Y-106311790D01*
X138569162Y-106311824D01*
X138157192Y-106311824D01*
X138120301Y-106274933D01*
X138105348Y-106258560D01*
X138095108Y-106240857D01*
X138088701Y-106216135D01*
X138085247Y-106178706D01*
X138083867Y-106122881D01*
X138083681Y-106042972D01*
X138083687Y-106038217D01*
G36*
X138086030Y-102408453D02*
G01*
X138095350Y-102382372D01*
X138095806Y-102381366D01*
X138122834Y-102345948D01*
X138150636Y-102326434D01*
X138163672Y-102322616D01*
X138180992Y-102322805D01*
X138205667Y-102328178D01*
X138240764Y-102339912D01*
X138289353Y-102359187D01*
X138354502Y-102387178D01*
X138439281Y-102425064D01*
X138546759Y-102474022D01*
X138605503Y-102500969D01*
X138710373Y-102549630D01*
X138806814Y-102595310D01*
X138891298Y-102636266D01*
X138960300Y-102670754D01*
X139010294Y-102697031D01*
X139037754Y-102713354D01*
X139041547Y-102716584D01*
X139058280Y-102757911D01*
X139056039Y-102804591D01*
X139035687Y-102842030D01*
X139034032Y-102843556D01*
X139011486Y-102858449D01*
X138967571Y-102883431D01*
X138907940Y-102915421D01*
X138838246Y-102951340D01*
X138812563Y-102964248D01*
X138617397Y-103061686D01*
X138829407Y-103167894D01*
X138902661Y-103205803D01*
X138966190Y-103240973D01*
X139015131Y-103270532D01*
X139044622Y-103291606D01*
X139050876Y-103298748D01*
X139059345Y-103354262D01*
X139041547Y-103400071D01*
X139022525Y-103413546D01*
X138980249Y-103436864D01*
X138918880Y-103468123D01*
X138842576Y-103505420D01*
X138755499Y-103546854D01*
X138661807Y-103590522D01*
X138565661Y-103634522D01*
X138471221Y-103676952D01*
X138382645Y-103715910D01*
X138304096Y-103749493D01*
X138239731Y-103775799D01*
X138193711Y-103792926D01*
X138170197Y-103798971D01*
X138169345Y-103798909D01*
X138139756Y-103784200D01*
X138109620Y-103754798D01*
X138108308Y-103753067D01*
X138087882Y-103716930D01*
X138088080Y-103683506D01*
X138091931Y-103670978D01*
X138100253Y-103655713D01*
X138116625Y-103639502D01*
X138144442Y-103620401D01*
X138187100Y-103596465D01*
X138247995Y-103565749D01*
X138330525Y-103526309D01*
X138406707Y-103490742D01*
X138495014Y-103449823D01*
X138574426Y-103413156D01*
X138640796Y-103382646D01*
X138689975Y-103360198D01*
X138717813Y-103347717D01*
X138722168Y-103345897D01*
X138715049Y-103337710D01*
X138685241Y-103318895D01*
X138637096Y-103291954D01*
X138574963Y-103259392D01*
X138549328Y-103246434D01*
X138462765Y-103202540D01*
X138399725Y-103168689D01*
X138356542Y-103142103D01*
X138329552Y-103120005D01*
X138315088Y-103099616D01*
X138309487Y-103078160D01*
X138308854Y-103064177D01*
X138311040Y-103039512D01*
X138320079Y-103017898D01*
X138339697Y-102996422D01*
X138373617Y-102972170D01*
X138425562Y-102942230D01*
X138499258Y-102903687D01*
X138541180Y-102882422D01*
X138607994Y-102847928D01*
X138663401Y-102817844D01*
X138702727Y-102794823D01*
X138721296Y-102781520D01*
X138722069Y-102779711D01*
X138707455Y-102771120D01*
X138669507Y-102751886D01*
X138612196Y-102723935D01*
X138539496Y-102689193D01*
X138455376Y-102649587D01*
X138413594Y-102630104D01*
X138305763Y-102579420D01*
X138222790Y-102538607D01*
X138161966Y-102505546D01*
X138120585Y-102478119D01*
X138095940Y-102454208D01*
X138085324Y-102431692D01*
X138086030Y-102408453D01*
G37*
X138086030Y-102408453D02*
X138095350Y-102382372D01*
X138095806Y-102381366D01*
X138122834Y-102345948D01*
X138150636Y-102326434D01*
X138163672Y-102322616D01*
X138180992Y-102322805D01*
X138205667Y-102328178D01*
X138240764Y-102339912D01*
X138289353Y-102359187D01*
X138354502Y-102387178D01*
X138439281Y-102425064D01*
X138546759Y-102474022D01*
X138605503Y-102500969D01*
X138710373Y-102549630D01*
X138806814Y-102595310D01*
X138891298Y-102636266D01*
X138960300Y-102670754D01*
X139010294Y-102697031D01*
X139037754Y-102713354D01*
X139041547Y-102716584D01*
X139058280Y-102757911D01*
X139056039Y-102804591D01*
X139035687Y-102842030D01*
X139034032Y-102843556D01*
X139011486Y-102858449D01*
X138967571Y-102883431D01*
X138907940Y-102915421D01*
X138838246Y-102951340D01*
X138812563Y-102964248D01*
X138617397Y-103061686D01*
X138829407Y-103167894D01*
X138902661Y-103205803D01*
X138966190Y-103240973D01*
X139015131Y-103270532D01*
X139044622Y-103291606D01*
X139050876Y-103298748D01*
X139059345Y-103354262D01*
X139041547Y-103400071D01*
X139022525Y-103413546D01*
X138980249Y-103436864D01*
X138918880Y-103468123D01*
X138842576Y-103505420D01*
X138755499Y-103546854D01*
X138661807Y-103590522D01*
X138565661Y-103634522D01*
X138471221Y-103676952D01*
X138382645Y-103715910D01*
X138304096Y-103749493D01*
X138239731Y-103775799D01*
X138193711Y-103792926D01*
X138170197Y-103798971D01*
X138169345Y-103798909D01*
X138139756Y-103784200D01*
X138109620Y-103754798D01*
X138108308Y-103753067D01*
X138087882Y-103716930D01*
X138088080Y-103683506D01*
X138091931Y-103670978D01*
X138100253Y-103655713D01*
X138116625Y-103639502D01*
X138144442Y-103620401D01*
X138187100Y-103596465D01*
X138247995Y-103565749D01*
X138330525Y-103526309D01*
X138406707Y-103490742D01*
X138495014Y-103449823D01*
X138574426Y-103413156D01*
X138640796Y-103382646D01*
X138689975Y-103360198D01*
X138717813Y-103347717D01*
X138722168Y-103345897D01*
X138715049Y-103337710D01*
X138685241Y-103318895D01*
X138637096Y-103291954D01*
X138574963Y-103259392D01*
X138549328Y-103246434D01*
X138462765Y-103202540D01*
X138399725Y-103168689D01*
X138356542Y-103142103D01*
X138329552Y-103120005D01*
X138315088Y-103099616D01*
X138309487Y-103078160D01*
X138308854Y-103064177D01*
X138311040Y-103039512D01*
X138320079Y-103017898D01*
X138339697Y-102996422D01*
X138373617Y-102972170D01*
X138425562Y-102942230D01*
X138499258Y-102903687D01*
X138541180Y-102882422D01*
X138607994Y-102847928D01*
X138663401Y-102817844D01*
X138702727Y-102794823D01*
X138721296Y-102781520D01*
X138722069Y-102779711D01*
X138707455Y-102771120D01*
X138669507Y-102751886D01*
X138612196Y-102723935D01*
X138539496Y-102689193D01*
X138455376Y-102649587D01*
X138413594Y-102630104D01*
X138305763Y-102579420D01*
X138222790Y-102538607D01*
X138161966Y-102505546D01*
X138120585Y-102478119D01*
X138095940Y-102454208D01*
X138085324Y-102431692D01*
X138086030Y-102408453D01*
G36*
X138092477Y-101817396D02*
G01*
X138112142Y-101785826D01*
X138140873Y-101750344D01*
X138568966Y-101750344D01*
X138694190Y-101750457D01*
X138792847Y-101750941D01*
X138868430Y-101752014D01*
X138924433Y-101753892D01*
X138964347Y-101756794D01*
X138991666Y-101760937D01*
X139009881Y-101766538D01*
X139022486Y-101773815D01*
X139028696Y-101778976D01*
X139055980Y-101820832D01*
X139054867Y-101868495D01*
X139031602Y-101910247D01*
X139002871Y-101945729D01*
X138140873Y-101945729D01*
X138112142Y-101910247D01*
X138091242Y-101876002D01*
X138083410Y-101848037D01*
X138092477Y-101817396D01*
G37*
X138092477Y-101817396D02*
X138112142Y-101785826D01*
X138140873Y-101750344D01*
X138568966Y-101750344D01*
X138694190Y-101750457D01*
X138792847Y-101750941D01*
X138868430Y-101752014D01*
X138924433Y-101753892D01*
X138964347Y-101756794D01*
X138991666Y-101760937D01*
X139009881Y-101766538D01*
X139022486Y-101773815D01*
X139028696Y-101778976D01*
X139055980Y-101820832D01*
X139054867Y-101868495D01*
X139031602Y-101910247D01*
X139002871Y-101945729D01*
X138140873Y-101945729D01*
X138112142Y-101910247D01*
X138091242Y-101876002D01*
X138083410Y-101848037D01*
X138092477Y-101817396D01*
G36*
X138083539Y-100786323D02*
G01*
X138084043Y-100681535D01*
X138085096Y-100600201D01*
X138086876Y-100539020D01*
X138089557Y-100494689D01*
X138093314Y-100463906D01*
X138098325Y-100443369D01*
X138104763Y-100429775D01*
X138109712Y-100423197D01*
X138153029Y-100389056D01*
X138198003Y-100384926D01*
X138238860Y-100406024D01*
X138255186Y-100419821D01*
X138266318Y-100434668D01*
X138273250Y-100456185D01*
X138276977Y-100489992D01*
X138278494Y-100541708D01*
X138278794Y-100616953D01*
X138278795Y-100631731D01*
X138278795Y-100826025D01*
X138639505Y-100826025D01*
X138753201Y-100826153D01*
X138840685Y-100826734D01*
X138905802Y-100828064D01*
X138952398Y-100830440D01*
X138984319Y-100834156D01*
X139005412Y-100839508D01*
X139019523Y-100846793D01*
X139030274Y-100856084D01*
X139056696Y-100899929D01*
X139054614Y-100945700D01*
X139024469Y-100987210D01*
X139020733Y-100990259D01*
X139006610Y-101000188D01*
X138990086Y-101007752D01*
X138967146Y-101013271D01*
X138933773Y-101017067D01*
X138885955Y-101019458D01*
X138819674Y-101020766D01*
X138730918Y-101021309D01*
X138629963Y-101021409D01*
X138278795Y-101021409D01*
X138278795Y-101206950D01*
X138278256Y-101286573D01*
X138276157Y-101341696D01*
X138271771Y-101377868D01*
X138264376Y-101400638D01*
X138253245Y-101415553D01*
X138251310Y-101417364D01*
X138207057Y-101439142D01*
X138157029Y-101437216D01*
X138113470Y-101412179D01*
X138105020Y-101402496D01*
X138098321Y-101390012D01*
X138093169Y-101371397D01*
X138089361Y-101343323D01*
X138086697Y-101302459D01*
X138084972Y-101245478D01*
X138083984Y-101169048D01*
X138083532Y-101069843D01*
X138083412Y-100944531D01*
X138083410Y-100917867D01*
X138083539Y-100786323D01*
G37*
X138083539Y-100786323D02*
X138084043Y-100681535D01*
X138085096Y-100600201D01*
X138086876Y-100539020D01*
X138089557Y-100494689D01*
X138093314Y-100463906D01*
X138098325Y-100443369D01*
X138104763Y-100429775D01*
X138109712Y-100423197D01*
X138153029Y-100389056D01*
X138198003Y-100384926D01*
X138238860Y-100406024D01*
X138255186Y-100419821D01*
X138266318Y-100434668D01*
X138273250Y-100456185D01*
X138276977Y-100489992D01*
X138278494Y-100541708D01*
X138278794Y-100616953D01*
X138278795Y-100631731D01*
X138278795Y-100826025D01*
X138639505Y-100826025D01*
X138753201Y-100826153D01*
X138840685Y-100826734D01*
X138905802Y-100828064D01*
X138952398Y-100830440D01*
X138984319Y-100834156D01*
X139005412Y-100839508D01*
X139019523Y-100846793D01*
X139030274Y-100856084D01*
X139056696Y-100899929D01*
X139054614Y-100945700D01*
X139024469Y-100987210D01*
X139020733Y-100990259D01*
X139006610Y-101000188D01*
X138990086Y-101007752D01*
X138967146Y-101013271D01*
X138933773Y-101017067D01*
X138885955Y-101019458D01*
X138819674Y-101020766D01*
X138730918Y-101021309D01*
X138629963Y-101021409D01*
X138278795Y-101021409D01*
X138278795Y-101206950D01*
X138278256Y-101286573D01*
X138276157Y-101341696D01*
X138271771Y-101377868D01*
X138264376Y-101400638D01*
X138253245Y-101415553D01*
X138251310Y-101417364D01*
X138207057Y-101439142D01*
X138157029Y-101437216D01*
X138113470Y-101412179D01*
X138105020Y-101402496D01*
X138098321Y-101390012D01*
X138093169Y-101371397D01*
X138089361Y-101343323D01*
X138086697Y-101302459D01*
X138084972Y-101245478D01*
X138083984Y-101169048D01*
X138083532Y-101069843D01*
X138083412Y-100944531D01*
X138083410Y-100917867D01*
X138083539Y-100786323D01*
G36*
X138090688Y-99101141D02*
G01*
X138120301Y-99059365D01*
X138157192Y-99022475D01*
X138569162Y-99022475D01*
X138691486Y-99022571D01*
X138787398Y-99023028D01*
X138860544Y-99024097D01*
X138914570Y-99026029D01*
X138953123Y-99029077D01*
X138979848Y-99033491D01*
X138998394Y-99039524D01*
X139012405Y-99047426D01*
X139020733Y-99053625D01*
X139053449Y-99094539D01*
X139057000Y-99141518D01*
X139036937Y-99184456D01*
X139025092Y-99198644D01*
X139009358Y-99208128D01*
X138984022Y-99213849D01*
X138943370Y-99216747D01*
X138881688Y-99217762D01*
X138834038Y-99217859D01*
X138654535Y-99217859D01*
X138654535Y-99879161D01*
X138817833Y-99879161D01*
X138892505Y-99879845D01*
X138943824Y-99882581D01*
X138978477Y-99888396D01*
X139003155Y-99898316D01*
X139020733Y-99910311D01*
X139053357Y-99951454D01*
X139057220Y-99997983D01*
X139034032Y-100042527D01*
X139021876Y-100054688D01*
X139005761Y-100063277D01*
X138980660Y-100068942D01*
X138941544Y-100072331D01*
X138883386Y-100074092D01*
X138801158Y-100074872D01*
X138782286Y-100074964D01*
X138627357Y-100075608D01*
X138499674Y-100075940D01*
X138396427Y-100075832D01*
X138314803Y-100075155D01*
X138251992Y-100073782D01*
X138205181Y-100071584D01*
X138171559Y-100068434D01*
X138148315Y-100064202D01*
X138132636Y-100058762D01*
X138121711Y-100051985D01*
X138113470Y-100044486D01*
X138087107Y-100002067D01*
X138090688Y-99957828D01*
X138120301Y-99916052D01*
X138139407Y-99899147D01*
X138160511Y-99888371D01*
X138190568Y-99882359D01*
X138236533Y-99879744D01*
X138305360Y-99879161D01*
X138459150Y-99879161D01*
X138459150Y-99217859D01*
X138301339Y-99217859D01*
X138228636Y-99217184D01*
X138179545Y-99214474D01*
X138147636Y-99208699D01*
X138126478Y-99198831D01*
X138113470Y-99187800D01*
X138087107Y-99145381D01*
X138090688Y-99101141D01*
G37*
X138090688Y-99101141D02*
X138120301Y-99059365D01*
X138157192Y-99022475D01*
X138569162Y-99022475D01*
X138691486Y-99022571D01*
X138787398Y-99023028D01*
X138860544Y-99024097D01*
X138914570Y-99026029D01*
X138953123Y-99029077D01*
X138979848Y-99033491D01*
X138998394Y-99039524D01*
X139012405Y-99047426D01*
X139020733Y-99053625D01*
X139053449Y-99094539D01*
X139057000Y-99141518D01*
X139036937Y-99184456D01*
X139025092Y-99198644D01*
X139009358Y-99208128D01*
X138984022Y-99213849D01*
X138943370Y-99216747D01*
X138881688Y-99217762D01*
X138834038Y-99217859D01*
X138654535Y-99217859D01*
X138654535Y-99879161D01*
X138817833Y-99879161D01*
X138892505Y-99879845D01*
X138943824Y-99882581D01*
X138978477Y-99888396D01*
X139003155Y-99898316D01*
X139020733Y-99910311D01*
X139053357Y-99951454D01*
X139057220Y-99997983D01*
X139034032Y-100042527D01*
X139021876Y-100054688D01*
X139005761Y-100063277D01*
X138980660Y-100068942D01*
X138941544Y-100072331D01*
X138883386Y-100074092D01*
X138801158Y-100074872D01*
X138782286Y-100074964D01*
X138627357Y-100075608D01*
X138499674Y-100075940D01*
X138396427Y-100075832D01*
X138314803Y-100075155D01*
X138251992Y-100073782D01*
X138205181Y-100071584D01*
X138171559Y-100068434D01*
X138148315Y-100064202D01*
X138132636Y-100058762D01*
X138121711Y-100051985D01*
X138113470Y-100044486D01*
X138087107Y-100002067D01*
X138090688Y-99957828D01*
X138120301Y-99916052D01*
X138139407Y-99899147D01*
X138160511Y-99888371D01*
X138190568Y-99882359D01*
X138236533Y-99879744D01*
X138305360Y-99879161D01*
X138459150Y-99879161D01*
X138459150Y-99217859D01*
X138301339Y-99217859D01*
X138228636Y-99217184D01*
X138179545Y-99214474D01*
X138147636Y-99208699D01*
X138126478Y-99198831D01*
X138113470Y-99187800D01*
X138087107Y-99145381D01*
X138090688Y-99101141D01*
G36*
X129560933Y-111171318D02*
G01*
X129608172Y-111035071D01*
X129682527Y-110908221D01*
X129783987Y-110794933D01*
X129912543Y-110699372D01*
X129993572Y-110656446D01*
X130106908Y-110619295D01*
X130237751Y-110601288D01*
X130372265Y-110603283D01*
X130494158Y-110625423D01*
X130643107Y-110685936D01*
X130772309Y-110773686D01*
X130879223Y-110884212D01*
X130961306Y-111013054D01*
X131016016Y-111155753D01*
X131040810Y-111307849D01*
X131033147Y-111464881D01*
X131016772Y-111542286D01*
X130958089Y-111693141D01*
X130868543Y-111827125D01*
X130750893Y-111941006D01*
X130607902Y-112031552D01*
X130592286Y-112039212D01*
X130533686Y-112065694D01*
X130484334Y-112082322D01*
X130432270Y-112091350D01*
X130365539Y-112095032D01*
X130292929Y-112095643D01*
X130205691Y-112094633D01*
X130142624Y-112090072D01*
X130091636Y-112079666D01*
X130040633Y-112061121D01*
X129990313Y-112038230D01*
X129847470Y-111952846D01*
X129731810Y-111847699D01*
X129643325Y-111726955D01*
X129582005Y-111594779D01*
X129547839Y-111455337D01*
X129540818Y-111312795D01*
X129560933Y-111171318D01*
G37*
X129560933Y-111171318D02*
X129608172Y-111035071D01*
X129682527Y-110908221D01*
X129783987Y-110794933D01*
X129912543Y-110699372D01*
X129993572Y-110656446D01*
X130106908Y-110619295D01*
X130237751Y-110601288D01*
X130372265Y-110603283D01*
X130494158Y-110625423D01*
X130643107Y-110685936D01*
X130772309Y-110773686D01*
X130879223Y-110884212D01*
X130961306Y-111013054D01*
X131016016Y-111155753D01*
X131040810Y-111307849D01*
X131033147Y-111464881D01*
X131016772Y-111542286D01*
X130958089Y-111693141D01*
X130868543Y-111827125D01*
X130750893Y-111941006D01*
X130607902Y-112031552D01*
X130592286Y-112039212D01*
X130533686Y-112065694D01*
X130484334Y-112082322D01*
X130432270Y-112091350D01*
X130365539Y-112095032D01*
X130292929Y-112095643D01*
X130205691Y-112094633D01*
X130142624Y-112090072D01*
X130091636Y-112079666D01*
X130040633Y-112061121D01*
X129990313Y-112038230D01*
X129847470Y-111952846D01*
X129731810Y-111847699D01*
X129643325Y-111726955D01*
X129582005Y-111594779D01*
X129547839Y-111455337D01*
X129540818Y-111312795D01*
X129560933Y-111171318D01*
G36*
X130777089Y-98527429D02*
G01*
X130777723Y-98373124D01*
X130778042Y-98320679D01*
X130782786Y-97599500D01*
X133549572Y-97590429D01*
X133924756Y-97589231D01*
X134265417Y-97588168D01*
X134573318Y-97587173D01*
X134850221Y-97586177D01*
X135097888Y-97585112D01*
X135318081Y-97583909D01*
X135512562Y-97582501D01*
X135683094Y-97580818D01*
X135831440Y-97578794D01*
X135959361Y-97576359D01*
X136068620Y-97573446D01*
X136160979Y-97569985D01*
X136238200Y-97565910D01*
X136302046Y-97561151D01*
X136354278Y-97555640D01*
X136396660Y-97549309D01*
X136430953Y-97542090D01*
X136458920Y-97533915D01*
X136482324Y-97524715D01*
X136502925Y-97514423D01*
X136522487Y-97502969D01*
X136542772Y-97490285D01*
X136565543Y-97476305D01*
X136570393Y-97473439D01*
X136652433Y-97425360D01*
X136642929Y-98815072D01*
X136490295Y-98824143D01*
X136417045Y-98829082D01*
X136374696Y-98834229D01*
X136357892Y-98841214D01*
X136361277Y-98851663D01*
X136370960Y-98860429D01*
X136406229Y-98898612D01*
X136451563Y-98960845D01*
X136501546Y-99038359D01*
X136550761Y-99122387D01*
X136593791Y-99204161D01*
X136622101Y-99266948D01*
X136668624Y-99414046D01*
X136701579Y-99582820D01*
X136719707Y-99760809D01*
X136721750Y-99935553D01*
X136706447Y-100094593D01*
X136706009Y-100097212D01*
X136651402Y-100314832D01*
X136564401Y-100518545D01*
X136446876Y-100706387D01*
X136300697Y-100876393D01*
X136127734Y-101026598D01*
X135929857Y-101155036D01*
X135708936Y-101259743D01*
X135545286Y-101316754D01*
X135408375Y-101354349D01*
X135275798Y-101382229D01*
X135139502Y-101401247D01*
X134991433Y-101412255D01*
X134823537Y-101416105D01*
X134686440Y-101414400D01*
X134686440Y-100075641D01*
X134916329Y-100069306D01*
X135114111Y-100049321D01*
X135281539Y-100015073D01*
X135420369Y-99965945D01*
X135532358Y-99901324D01*
X135619259Y-99820595D01*
X135680692Y-99727409D01*
X135703626Y-99678920D01*
X135717375Y-99636866D01*
X135723666Y-99589980D01*
X135724222Y-99526996D01*
X135721773Y-99459143D01*
X135710004Y-99325705D01*
X135686955Y-99220168D01*
X135675410Y-99187000D01*
X135641311Y-99111265D01*
X135598491Y-99031386D01*
X135577057Y-98996500D01*
X135517556Y-98905786D01*
X133631584Y-98905786D01*
X133571771Y-99005572D01*
X133504185Y-99144733D01*
X133464214Y-99286913D01*
X133451622Y-99426910D01*
X133466173Y-99559526D01*
X133507632Y-99679560D01*
X133575763Y-99781812D01*
X133608466Y-99814805D01*
X133715619Y-99894333D01*
X133845327Y-99958701D01*
X133999814Y-100008447D01*
X134181302Y-100044109D01*
X134392015Y-100066225D01*
X134634175Y-100075333D01*
X134686440Y-100075641D01*
X134686440Y-101414400D01*
X134629374Y-101413690D01*
X134330713Y-101398395D01*
X134061325Y-101367642D01*
X133817285Y-101320619D01*
X133594670Y-101256518D01*
X133389556Y-101174528D01*
X133328746Y-101145270D01*
X133130440Y-101027419D01*
X132954212Y-100885004D01*
X132802908Y-100721371D01*
X132679371Y-100539869D01*
X132586447Y-100343847D01*
X132548115Y-100226345D01*
X132525359Y-100110946D01*
X132511820Y-99972093D01*
X132507492Y-99821426D01*
X132512368Y-99670587D01*
X132526444Y-99531215D01*
X132548525Y-99419309D01*
X132591828Y-99286116D01*
X132647511Y-99157021D01*
X132709936Y-99044072D01*
X132752303Y-98983957D01*
X132783807Y-98942490D01*
X132802990Y-98913455D01*
X132805714Y-98906850D01*
X132788163Y-98904802D01*
X132737875Y-98902893D01*
X132658400Y-98901164D01*
X132553286Y-98899659D01*
X132426083Y-98898419D01*
X132280339Y-98897487D01*
X132119603Y-98896905D01*
X131955884Y-98896714D01*
X131746188Y-98896821D01*
X131569396Y-98897342D01*
X131422126Y-98898584D01*
X131300997Y-98900852D01*
X131202627Y-98904450D01*
X131123634Y-98909683D01*
X131060638Y-98916856D01*
X131010255Y-98926274D01*
X130969105Y-98938242D01*
X130933806Y-98953065D01*
X130900977Y-98971048D01*
X130867235Y-98992495D01*
X130863057Y-98995255D01*
X130819356Y-99022917D01*
X130789305Y-99039618D01*
X130782967Y-99041857D01*
X130780967Y-99024357D01*
X130779340Y-98974426D01*
X130778112Y-98895915D01*
X130777311Y-98792677D01*
X130776961Y-98668564D01*
X130777089Y-98527429D01*
G37*
X130777089Y-98527429D02*
X130777723Y-98373124D01*
X130778042Y-98320679D01*
X130782786Y-97599500D01*
X133549572Y-97590429D01*
X133924756Y-97589231D01*
X134265417Y-97588168D01*
X134573318Y-97587173D01*
X134850221Y-97586177D01*
X135097888Y-97585112D01*
X135318081Y-97583909D01*
X135512562Y-97582501D01*
X135683094Y-97580818D01*
X135831440Y-97578794D01*
X135959361Y-97576359D01*
X136068620Y-97573446D01*
X136160979Y-97569985D01*
X136238200Y-97565910D01*
X136302046Y-97561151D01*
X136354278Y-97555640D01*
X136396660Y-97549309D01*
X136430953Y-97542090D01*
X136458920Y-97533915D01*
X136482324Y-97524715D01*
X136502925Y-97514423D01*
X136522487Y-97502969D01*
X136542772Y-97490285D01*
X136565543Y-97476305D01*
X136570393Y-97473439D01*
X136652433Y-97425360D01*
X136642929Y-98815072D01*
X136490295Y-98824143D01*
X136417045Y-98829082D01*
X136374696Y-98834229D01*
X136357892Y-98841214D01*
X136361277Y-98851663D01*
X136370960Y-98860429D01*
X136406229Y-98898612D01*
X136451563Y-98960845D01*
X136501546Y-99038359D01*
X136550761Y-99122387D01*
X136593791Y-99204161D01*
X136622101Y-99266948D01*
X136668624Y-99414046D01*
X136701579Y-99582820D01*
X136719707Y-99760809D01*
X136721750Y-99935553D01*
X136706447Y-100094593D01*
X136706009Y-100097212D01*
X136651402Y-100314832D01*
X136564401Y-100518545D01*
X136446876Y-100706387D01*
X136300697Y-100876393D01*
X136127734Y-101026598D01*
X135929857Y-101155036D01*
X135708936Y-101259743D01*
X135545286Y-101316754D01*
X135408375Y-101354349D01*
X135275798Y-101382229D01*
X135139502Y-101401247D01*
X134991433Y-101412255D01*
X134823537Y-101416105D01*
X134686440Y-101414400D01*
X134686440Y-100075641D01*
X134916329Y-100069306D01*
X135114111Y-100049321D01*
X135281539Y-100015073D01*
X135420369Y-99965945D01*
X135532358Y-99901324D01*
X135619259Y-99820595D01*
X135680692Y-99727409D01*
X135703626Y-99678920D01*
X135717375Y-99636866D01*
X135723666Y-99589980D01*
X135724222Y-99526996D01*
X135721773Y-99459143D01*
X135710004Y-99325705D01*
X135686955Y-99220168D01*
X135675410Y-99187000D01*
X135641311Y-99111265D01*
X135598491Y-99031386D01*
X135577057Y-98996500D01*
X135517556Y-98905786D01*
X133631584Y-98905786D01*
X133571771Y-99005572D01*
X133504185Y-99144733D01*
X133464214Y-99286913D01*
X133451622Y-99426910D01*
X133466173Y-99559526D01*
X133507632Y-99679560D01*
X133575763Y-99781812D01*
X133608466Y-99814805D01*
X133715619Y-99894333D01*
X133845327Y-99958701D01*
X133999814Y-100008447D01*
X134181302Y-100044109D01*
X134392015Y-100066225D01*
X134634175Y-100075333D01*
X134686440Y-100075641D01*
X134686440Y-101414400D01*
X134629374Y-101413690D01*
X134330713Y-101398395D01*
X134061325Y-101367642D01*
X133817285Y-101320619D01*
X133594670Y-101256518D01*
X133389556Y-101174528D01*
X133328746Y-101145270D01*
X133130440Y-101027419D01*
X132954212Y-100885004D01*
X132802908Y-100721371D01*
X132679371Y-100539869D01*
X132586447Y-100343847D01*
X132548115Y-100226345D01*
X132525359Y-100110946D01*
X132511820Y-99972093D01*
X132507492Y-99821426D01*
X132512368Y-99670587D01*
X132526444Y-99531215D01*
X132548525Y-99419309D01*
X132591828Y-99286116D01*
X132647511Y-99157021D01*
X132709936Y-99044072D01*
X132752303Y-98983957D01*
X132783807Y-98942490D01*
X132802990Y-98913455D01*
X132805714Y-98906850D01*
X132788163Y-98904802D01*
X132737875Y-98902893D01*
X132658400Y-98901164D01*
X132553286Y-98899659D01*
X132426083Y-98898419D01*
X132280339Y-98897487D01*
X132119603Y-98896905D01*
X131955884Y-98896714D01*
X131746188Y-98896821D01*
X131569396Y-98897342D01*
X131422126Y-98898584D01*
X131300997Y-98900852D01*
X131202627Y-98904450D01*
X131123634Y-98909683D01*
X131060638Y-98916856D01*
X131010255Y-98926274D01*
X130969105Y-98938242D01*
X130933806Y-98953065D01*
X130900977Y-98971048D01*
X130867235Y-98992495D01*
X130863057Y-98995255D01*
X130819356Y-99022917D01*
X130789305Y-99039618D01*
X130782967Y-99041857D01*
X130780967Y-99024357D01*
X130779340Y-98974426D01*
X130778112Y-98895915D01*
X130777311Y-98792677D01*
X130776961Y-98668564D01*
X130777089Y-98527429D01*
G36*
X132504730Y-103383368D02*
G01*
X132511535Y-103293477D01*
X132545753Y-103036285D01*
X132600331Y-102808515D01*
X132676020Y-102609057D01*
X132773570Y-102436803D01*
X132893732Y-102290641D01*
X133037258Y-102169464D01*
X133204898Y-102072161D01*
X133386286Y-102001109D01*
X133444146Y-101983073D01*
X133498329Y-101967368D01*
X133551752Y-101953808D01*
X133607333Y-101942208D01*
X133667988Y-101932383D01*
X133736635Y-101924147D01*
X133816190Y-101917316D01*
X133909572Y-101911705D01*
X134019696Y-101907128D01*
X134149481Y-101903400D01*
X134301842Y-101900335D01*
X134479698Y-101897750D01*
X134685965Y-101895458D01*
X134923561Y-101893275D01*
X135109857Y-101891714D01*
X136388929Y-101881215D01*
X136512018Y-101813179D01*
X136571317Y-101780962D01*
X136617377Y-101756988D01*
X136641893Y-101745550D01*
X136643553Y-101745143D01*
X136645454Y-101762625D01*
X136647205Y-101812426D01*
X136648758Y-101890579D01*
X136650062Y-101993118D01*
X136651070Y-102116078D01*
X136651731Y-102255490D01*
X136651997Y-102407389D01*
X136652000Y-102425500D01*
X136652000Y-103105857D01*
X136497786Y-103105857D01*
X136428094Y-103107018D01*
X136374794Y-103110113D01*
X136346217Y-103114568D01*
X136343572Y-103116537D01*
X136354653Y-103134545D01*
X136383736Y-103171607D01*
X136424579Y-103219778D01*
X136425524Y-103220859D01*
X136490971Y-103308765D01*
X136556688Y-103419783D01*
X136616219Y-103541369D01*
X136663109Y-103660979D01*
X136679133Y-103713643D01*
X136699485Y-103818449D01*
X136712472Y-103947050D01*
X136717909Y-104087675D01*
X136715611Y-104228552D01*
X136705392Y-104357907D01*
X136690689Y-104448429D01*
X136625499Y-104670420D01*
X136532594Y-104870271D01*
X136413126Y-105046681D01*
X136268247Y-105198350D01*
X136099110Y-105323976D01*
X135906867Y-105422259D01*
X135790214Y-105464659D01*
X135676833Y-105491232D01*
X135540722Y-105508842D01*
X135394437Y-105516990D01*
X135373151Y-105516722D01*
X135373151Y-104289679D01*
X135481850Y-104279504D01*
X135572185Y-104245622D01*
X135655995Y-104183000D01*
X135680571Y-104158948D01*
X135747011Y-104073449D01*
X135789574Y-103974627D01*
X135810177Y-103856232D01*
X135811694Y-103731555D01*
X135801677Y-103613302D01*
X135782085Y-103522761D01*
X135767370Y-103483440D01*
X135727265Y-103412568D01*
X135670863Y-103337475D01*
X135607561Y-103268962D01*
X135546755Y-103217828D01*
X135524449Y-103204250D01*
X135493212Y-103193695D01*
X135443507Y-103186190D01*
X135370587Y-103181387D01*
X135269703Y-103178935D01*
X135173689Y-103178429D01*
X135061750Y-103178772D01*
X134980809Y-103180157D01*
X134925585Y-103183119D01*
X134890794Y-103188192D01*
X134871154Y-103195910D01*
X134861380Y-103206808D01*
X134859824Y-103210179D01*
X134855029Y-103239471D01*
X134851108Y-103297244D01*
X134848414Y-103375696D01*
X134847299Y-103467026D01*
X134847298Y-103486857D01*
X134849246Y-103608937D01*
X134855041Y-103703251D01*
X134865475Y-103778193D01*
X134880714Y-103840097D01*
X134938784Y-103993651D01*
X135010179Y-104114068D01*
X135096039Y-104202390D01*
X135197507Y-104259661D01*
X135315725Y-104286922D01*
X135373151Y-104289679D01*
X135373151Y-105516722D01*
X135250533Y-105515177D01*
X135121565Y-105502904D01*
X135069460Y-105493330D01*
X134875997Y-105432199D01*
X134697993Y-105339243D01*
X134537155Y-105216217D01*
X134395190Y-105064876D01*
X134273806Y-104886975D01*
X134174709Y-104684268D01*
X134114533Y-104511929D01*
X134082919Y-104396747D01*
X134058354Y-104286577D01*
X134040039Y-104174281D01*
X134027178Y-104052725D01*
X134018972Y-103914771D01*
X134014624Y-103753285D01*
X134013400Y-103607285D01*
X134012215Y-103174355D01*
X133882080Y-103182649D01*
X133740883Y-103206199D01*
X133619518Y-103256297D01*
X133521017Y-103330809D01*
X133448409Y-103427601D01*
X133412979Y-103512829D01*
X133390650Y-103634944D01*
X133387443Y-103780317D01*
X133402177Y-103942133D01*
X133433670Y-104113578D01*
X133480740Y-104287837D01*
X133542203Y-104458096D01*
X133598417Y-104581824D01*
X133627283Y-104641353D01*
X133647443Y-104686758D01*
X133655310Y-104709850D01*
X133655058Y-104711103D01*
X133637437Y-104719071D01*
X133590733Y-104738969D01*
X133519418Y-104768923D01*
X133427969Y-104807061D01*
X133320859Y-104851512D01*
X133211549Y-104896695D01*
X132773740Y-105077333D01*
X132752636Y-104948845D01*
X132742047Y-104893154D01*
X132724263Y-104809436D01*
X132700898Y-104704861D01*
X132673565Y-104586601D01*
X132643881Y-104461828D01*
X132631818Y-104412143D01*
X132581962Y-104197193D01*
X132544584Y-104009005D01*
X132518927Y-103840554D01*
X132504235Y-103684814D01*
X132499755Y-103534760D01*
X132504730Y-103383368D01*
G37*
X132504730Y-103383368D02*
X132511535Y-103293477D01*
X132545753Y-103036285D01*
X132600331Y-102808515D01*
X132676020Y-102609057D01*
X132773570Y-102436803D01*
X132893732Y-102290641D01*
X133037258Y-102169464D01*
X133204898Y-102072161D01*
X133386286Y-102001109D01*
X133444146Y-101983073D01*
X133498329Y-101967368D01*
X133551752Y-101953808D01*
X133607333Y-101942208D01*
X133667988Y-101932383D01*
X133736635Y-101924147D01*
X133816190Y-101917316D01*
X133909572Y-101911705D01*
X134019696Y-101907128D01*
X134149481Y-101903400D01*
X134301842Y-101900335D01*
X134479698Y-101897750D01*
X134685965Y-101895458D01*
X134923561Y-101893275D01*
X135109857Y-101891714D01*
X136388929Y-101881215D01*
X136512018Y-101813179D01*
X136571317Y-101780962D01*
X136617377Y-101756988D01*
X136641893Y-101745550D01*
X136643553Y-101745143D01*
X136645454Y-101762625D01*
X136647205Y-101812426D01*
X136648758Y-101890579D01*
X136650062Y-101993118D01*
X136651070Y-102116078D01*
X136651731Y-102255490D01*
X136651997Y-102407389D01*
X136652000Y-102425500D01*
X136652000Y-103105857D01*
X136497786Y-103105857D01*
X136428094Y-103107018D01*
X136374794Y-103110113D01*
X136346217Y-103114568D01*
X136343572Y-103116537D01*
X136354653Y-103134545D01*
X136383736Y-103171607D01*
X136424579Y-103219778D01*
X136425524Y-103220859D01*
X136490971Y-103308765D01*
X136556688Y-103419783D01*
X136616219Y-103541369D01*
X136663109Y-103660979D01*
X136679133Y-103713643D01*
X136699485Y-103818449D01*
X136712472Y-103947050D01*
X136717909Y-104087675D01*
X136715611Y-104228552D01*
X136705392Y-104357907D01*
X136690689Y-104448429D01*
X136625499Y-104670420D01*
X136532594Y-104870271D01*
X136413126Y-105046681D01*
X136268247Y-105198350D01*
X136099110Y-105323976D01*
X135906867Y-105422259D01*
X135790214Y-105464659D01*
X135676833Y-105491232D01*
X135540722Y-105508842D01*
X135394437Y-105516990D01*
X135373151Y-105516722D01*
X135373151Y-104289679D01*
X135481850Y-104279504D01*
X135572185Y-104245622D01*
X135655995Y-104183000D01*
X135680571Y-104158948D01*
X135747011Y-104073449D01*
X135789574Y-103974627D01*
X135810177Y-103856232D01*
X135811694Y-103731555D01*
X135801677Y-103613302D01*
X135782085Y-103522761D01*
X135767370Y-103483440D01*
X135727265Y-103412568D01*
X135670863Y-103337475D01*
X135607561Y-103268962D01*
X135546755Y-103217828D01*
X135524449Y-103204250D01*
X135493212Y-103193695D01*
X135443507Y-103186190D01*
X135370587Y-103181387D01*
X135269703Y-103178935D01*
X135173689Y-103178429D01*
X135061750Y-103178772D01*
X134980809Y-103180157D01*
X134925585Y-103183119D01*
X134890794Y-103188192D01*
X134871154Y-103195910D01*
X134861380Y-103206808D01*
X134859824Y-103210179D01*
X134855029Y-103239471D01*
X134851108Y-103297244D01*
X134848414Y-103375696D01*
X134847299Y-103467026D01*
X134847298Y-103486857D01*
X134849246Y-103608937D01*
X134855041Y-103703251D01*
X134865475Y-103778193D01*
X134880714Y-103840097D01*
X134938784Y-103993651D01*
X135010179Y-104114068D01*
X135096039Y-104202390D01*
X135197507Y-104259661D01*
X135315725Y-104286922D01*
X135373151Y-104289679D01*
X135373151Y-105516722D01*
X135250533Y-105515177D01*
X135121565Y-105502904D01*
X135069460Y-105493330D01*
X134875997Y-105432199D01*
X134697993Y-105339243D01*
X134537155Y-105216217D01*
X134395190Y-105064876D01*
X134273806Y-104886975D01*
X134174709Y-104684268D01*
X134114533Y-104511929D01*
X134082919Y-104396747D01*
X134058354Y-104286577D01*
X134040039Y-104174281D01*
X134027178Y-104052725D01*
X134018972Y-103914771D01*
X134014624Y-103753285D01*
X134013400Y-103607285D01*
X134012215Y-103174355D01*
X133882080Y-103182649D01*
X133740883Y-103206199D01*
X133619518Y-103256297D01*
X133521017Y-103330809D01*
X133448409Y-103427601D01*
X133412979Y-103512829D01*
X133390650Y-103634944D01*
X133387443Y-103780317D01*
X133402177Y-103942133D01*
X133433670Y-104113578D01*
X133480740Y-104287837D01*
X133542203Y-104458096D01*
X133598417Y-104581824D01*
X133627283Y-104641353D01*
X133647443Y-104686758D01*
X133655310Y-104709850D01*
X133655058Y-104711103D01*
X133637437Y-104719071D01*
X133590733Y-104738969D01*
X133519418Y-104768923D01*
X133427969Y-104807061D01*
X133320859Y-104851512D01*
X133211549Y-104896695D01*
X132773740Y-105077333D01*
X132752636Y-104948845D01*
X132742047Y-104893154D01*
X132724263Y-104809436D01*
X132700898Y-104704861D01*
X132673565Y-104586601D01*
X132643881Y-104461828D01*
X132631818Y-104412143D01*
X132581962Y-104197193D01*
X132544584Y-104009005D01*
X132518927Y-103840554D01*
X132504235Y-103684814D01*
X132499755Y-103534760D01*
X132504730Y-103383368D01*
G36*
X131046231Y-106987622D02*
G01*
X131067649Y-106791981D01*
X131105985Y-106602438D01*
X131163238Y-106411283D01*
X131241409Y-106210804D01*
X131342496Y-105993292D01*
X131362076Y-105954120D01*
X131406362Y-105864228D01*
X131446239Y-105779447D01*
X131477898Y-105708145D01*
X131497532Y-105658690D01*
X131500004Y-105651092D01*
X131521817Y-105578286D01*
X131995944Y-105904197D01*
X132111823Y-105983877D01*
X132217694Y-106056728D01*
X132309962Y-106120270D01*
X132385033Y-106172028D01*
X132439313Y-106209523D01*
X132469207Y-106230277D01*
X132473941Y-106233649D01*
X132464042Y-106247345D01*
X132434285Y-106281057D01*
X132390073Y-106328756D01*
X132365084Y-106355080D01*
X132246456Y-106504228D01*
X132156313Y-106671732D01*
X132106936Y-106816072D01*
X132091429Y-106902717D01*
X132081979Y-107011204D01*
X132078761Y-107128773D01*
X132081951Y-107242666D01*
X132091724Y-107340121D01*
X132099209Y-107379010D01*
X132159512Y-107554288D01*
X132251590Y-107712235D01*
X132375273Y-107852732D01*
X132530393Y-107975665D01*
X132716781Y-108080915D01*
X132934270Y-108168365D01*
X133182692Y-108237900D01*
X133395357Y-108279225D01*
X133489241Y-108290006D01*
X133610524Y-108297352D01*
X133750493Y-108301333D01*
X133900431Y-108302021D01*
X134051622Y-108299486D01*
X134195351Y-108293800D01*
X134322903Y-108285033D01*
X134425562Y-108273256D01*
X134441401Y-108270707D01*
X134696536Y-108214519D01*
X134922342Y-108137964D01*
X135119831Y-108040574D01*
X135290014Y-107921886D01*
X135382022Y-107837637D01*
X135506943Y-107686230D01*
X135599540Y-107520183D01*
X135659309Y-107342299D01*
X135685746Y-107155378D01*
X135678348Y-106962222D01*
X135636611Y-106765631D01*
X135595771Y-106649403D01*
X135513990Y-106488562D01*
X135396678Y-106322787D01*
X135317345Y-106229927D01*
X135271429Y-106177786D01*
X135237742Y-106136820D01*
X135221510Y-106113502D01*
X135221015Y-106110607D01*
X135237601Y-106100200D01*
X135281432Y-106073233D01*
X135348748Y-106032004D01*
X135435794Y-105978811D01*
X135538810Y-105915950D01*
X135654041Y-105845719D01*
X135718231Y-105806628D01*
X136208677Y-105508036D01*
X136392915Y-105880839D01*
X136459093Y-106015631D01*
X136511278Y-106124825D01*
X136552060Y-106215093D01*
X136584033Y-106293112D01*
X136609787Y-106365556D01*
X136631914Y-106439099D01*
X136653007Y-106520416D01*
X136671530Y-106598357D01*
X136685863Y-106667634D01*
X136696694Y-106740083D01*
X136704626Y-106822958D01*
X136710258Y-106923512D01*
X136714192Y-107048997D01*
X136715891Y-107133572D01*
X136717050Y-107254246D01*
X136716465Y-107369958D01*
X136714304Y-107473049D01*
X136710732Y-107555862D01*
X136705917Y-107610740D01*
X136705437Y-107613992D01*
X136643786Y-107898957D01*
X136550285Y-108166558D01*
X136424993Y-108416703D01*
X136267974Y-108649296D01*
X136079289Y-108864243D01*
X135859000Y-109061450D01*
X135663214Y-109204273D01*
X135406949Y-109356320D01*
X135136317Y-109479227D01*
X134849149Y-109573590D01*
X134543276Y-109640001D01*
X134216528Y-109679056D01*
X133884739Y-109691360D01*
X133563779Y-109681241D01*
X133267646Y-109649439D01*
X132991345Y-109594946D01*
X132729881Y-109516750D01*
X132478258Y-109413841D01*
X132452190Y-109401553D01*
X132208507Y-109266180D01*
X131976618Y-109099911D01*
X131761323Y-108907459D01*
X131567422Y-108693534D01*
X131399715Y-108462845D01*
X131276696Y-108247891D01*
X131180345Y-108030742D01*
X131110551Y-107813132D01*
X131065413Y-107586638D01*
X131043031Y-107342834D01*
X131039731Y-107197072D01*
X131046231Y-106987622D01*
G37*
X131046231Y-106987622D02*
X131067649Y-106791981D01*
X131105985Y-106602438D01*
X131163238Y-106411283D01*
X131241409Y-106210804D01*
X131342496Y-105993292D01*
X131362076Y-105954120D01*
X131406362Y-105864228D01*
X131446239Y-105779447D01*
X131477898Y-105708145D01*
X131497532Y-105658690D01*
X131500004Y-105651092D01*
X131521817Y-105578286D01*
X131995944Y-105904197D01*
X132111823Y-105983877D01*
X132217694Y-106056728D01*
X132309962Y-106120270D01*
X132385033Y-106172028D01*
X132439313Y-106209523D01*
X132469207Y-106230277D01*
X132473941Y-106233649D01*
X132464042Y-106247345D01*
X132434285Y-106281057D01*
X132390073Y-106328756D01*
X132365084Y-106355080D01*
X132246456Y-106504228D01*
X132156313Y-106671732D01*
X132106936Y-106816072D01*
X132091429Y-106902717D01*
X132081979Y-107011204D01*
X132078761Y-107128773D01*
X132081951Y-107242666D01*
X132091724Y-107340121D01*
X132099209Y-107379010D01*
X132159512Y-107554288D01*
X132251590Y-107712235D01*
X132375273Y-107852732D01*
X132530393Y-107975665D01*
X132716781Y-108080915D01*
X132934270Y-108168365D01*
X133182692Y-108237900D01*
X133395357Y-108279225D01*
X133489241Y-108290006D01*
X133610524Y-108297352D01*
X133750493Y-108301333D01*
X133900431Y-108302021D01*
X134051622Y-108299486D01*
X134195351Y-108293800D01*
X134322903Y-108285033D01*
X134425562Y-108273256D01*
X134441401Y-108270707D01*
X134696536Y-108214519D01*
X134922342Y-108137964D01*
X135119831Y-108040574D01*
X135290014Y-107921886D01*
X135382022Y-107837637D01*
X135506943Y-107686230D01*
X135599540Y-107520183D01*
X135659309Y-107342299D01*
X135685746Y-107155378D01*
X135678348Y-106962222D01*
X135636611Y-106765631D01*
X135595771Y-106649403D01*
X135513990Y-106488562D01*
X135396678Y-106322787D01*
X135317345Y-106229927D01*
X135271429Y-106177786D01*
X135237742Y-106136820D01*
X135221510Y-106113502D01*
X135221015Y-106110607D01*
X135237601Y-106100200D01*
X135281432Y-106073233D01*
X135348748Y-106032004D01*
X135435794Y-105978811D01*
X135538810Y-105915950D01*
X135654041Y-105845719D01*
X135718231Y-105806628D01*
X136208677Y-105508036D01*
X136392915Y-105880839D01*
X136459093Y-106015631D01*
X136511278Y-106124825D01*
X136552060Y-106215093D01*
X136584033Y-106293112D01*
X136609787Y-106365556D01*
X136631914Y-106439099D01*
X136653007Y-106520416D01*
X136671530Y-106598357D01*
X136685863Y-106667634D01*
X136696694Y-106740083D01*
X136704626Y-106822958D01*
X136710258Y-106923512D01*
X136714192Y-107048997D01*
X136715891Y-107133572D01*
X136717050Y-107254246D01*
X136716465Y-107369958D01*
X136714304Y-107473049D01*
X136710732Y-107555862D01*
X136705917Y-107610740D01*
X136705437Y-107613992D01*
X136643786Y-107898957D01*
X136550285Y-108166558D01*
X136424993Y-108416703D01*
X136267974Y-108649296D01*
X136079289Y-108864243D01*
X135859000Y-109061450D01*
X135663214Y-109204273D01*
X135406949Y-109356320D01*
X135136317Y-109479227D01*
X134849149Y-109573590D01*
X134543276Y-109640001D01*
X134216528Y-109679056D01*
X133884739Y-109691360D01*
X133563779Y-109681241D01*
X133267646Y-109649439D01*
X132991345Y-109594946D01*
X132729881Y-109516750D01*
X132478258Y-109413841D01*
X132452190Y-109401553D01*
X132208507Y-109266180D01*
X131976618Y-109099911D01*
X131761323Y-108907459D01*
X131567422Y-108693534D01*
X131399715Y-108462845D01*
X131276696Y-108247891D01*
X131180345Y-108030742D01*
X131110551Y-107813132D01*
X131065413Y-107586638D01*
X131043031Y-107342834D01*
X131039731Y-107197072D01*
X131046231Y-106987622D01*
G36*
X130138660Y-115439089D02*
G01*
X130138707Y-115089540D01*
X130138714Y-114926830D01*
X130138715Y-112322429D01*
X130292238Y-112322429D01*
X130479063Y-112306043D01*
X130651367Y-112256588D01*
X130810175Y-112173620D01*
X130956510Y-112056695D01*
X130996032Y-112017136D01*
X131108138Y-111874830D01*
X131189899Y-111717922D01*
X131241353Y-111551072D01*
X131262537Y-111378939D01*
X131253487Y-111206185D01*
X131214242Y-111037470D01*
X131144838Y-110877454D01*
X131045311Y-110730798D01*
X130985265Y-110664932D01*
X130838043Y-110542192D01*
X130676147Y-110452188D01*
X130501427Y-110395706D01*
X130315735Y-110373529D01*
X130297467Y-110373234D01*
X130138720Y-110372072D01*
X130138717Y-110302300D01*
X130147118Y-110240405D01*
X130167556Y-110183865D01*
X130169667Y-110180128D01*
X130176293Y-110167358D01*
X130181454Y-110155632D01*
X130186651Y-110144906D01*
X130193390Y-110135139D01*
X130203171Y-110126288D01*
X130217500Y-110118311D01*
X130237878Y-110111165D01*
X130265808Y-110104808D01*
X130302795Y-110099198D01*
X130350340Y-110094293D01*
X130409947Y-110090049D01*
X130483119Y-110086424D01*
X130571359Y-110083377D01*
X130676170Y-110080864D01*
X130799055Y-110078844D01*
X130941517Y-110077274D01*
X131105060Y-110076112D01*
X131291186Y-110075314D01*
X131501398Y-110074840D01*
X131737200Y-110074646D01*
X132000094Y-110074690D01*
X132291584Y-110074930D01*
X132613172Y-110075323D01*
X132966362Y-110075827D01*
X133352657Y-110076400D01*
X133773560Y-110076999D01*
X133824840Y-110077068D01*
X134248426Y-110077605D01*
X134637230Y-110078061D01*
X134992753Y-110078484D01*
X135316498Y-110078921D01*
X135609966Y-110079422D01*
X135874661Y-110080035D01*
X136112085Y-110080808D01*
X136323740Y-110081789D01*
X136511129Y-110083026D01*
X136675754Y-110084568D01*
X136819117Y-110086463D01*
X136942720Y-110088759D01*
X137048067Y-110091504D01*
X137136659Y-110094747D01*
X137210000Y-110098536D01*
X137269590Y-110102919D01*
X137316933Y-110107945D01*
X137353531Y-110113661D01*
X137380886Y-110120116D01*
X137400502Y-110127359D01*
X137413879Y-110135437D01*
X137422521Y-110144398D01*
X137427930Y-110154292D01*
X137431608Y-110165165D01*
X137435058Y-110177067D01*
X137439782Y-110190046D01*
X137441220Y-110193217D01*
X137444451Y-110203181D01*
X137447420Y-110219859D01*
X137450137Y-110244707D01*
X137452613Y-110279180D01*
X137454858Y-110324736D01*
X137456883Y-110382830D01*
X137458698Y-110454919D01*
X137460315Y-110542458D01*
X137461743Y-110646905D01*
X137462993Y-110769715D01*
X137464076Y-110912345D01*
X137465002Y-111076251D01*
X137465782Y-111262890D01*
X137466426Y-111473716D01*
X137466946Y-111710188D01*
X137467351Y-111973761D01*
X137467652Y-112265890D01*
X137467860Y-112588034D01*
X137467985Y-112941647D01*
X137468038Y-113328186D01*
X137468029Y-113749108D01*
X137468016Y-113885456D01*
X137467947Y-114315716D01*
X137467834Y-114711164D01*
X137467665Y-115073273D01*
X137467430Y-115403517D01*
X137467116Y-115703371D01*
X137466713Y-115974308D01*
X137466207Y-116217800D01*
X137465589Y-116435323D01*
X137464846Y-116628350D01*
X137463968Y-116798354D01*
X137462941Y-116946810D01*
X137461756Y-117075190D01*
X137460400Y-117184969D01*
X137458862Y-117277620D01*
X137457130Y-117354617D01*
X137455194Y-117417434D01*
X137453040Y-117467544D01*
X137450659Y-117506421D01*
X137448037Y-117535538D01*
X137445165Y-117556371D01*
X137442030Y-117570391D01*
X137439159Y-117578034D01*
X137433430Y-117591618D01*
X137429206Y-117604090D01*
X137424985Y-117615498D01*
X137419268Y-117625889D01*
X137410555Y-117635309D01*
X137397345Y-117643808D01*
X137378137Y-117651430D01*
X137351433Y-117658225D01*
X137315730Y-117664238D01*
X137269530Y-117669517D01*
X137211332Y-117674110D01*
X137139635Y-117678064D01*
X137052940Y-117681425D01*
X136949746Y-117684241D01*
X136828553Y-117686560D01*
X136687860Y-117688428D01*
X136633857Y-117688916D01*
X136633857Y-117204704D01*
X136633857Y-115493256D01*
X136583964Y-115526187D01*
X136532693Y-115558947D01*
X136483869Y-115586689D01*
X136434076Y-115609807D01*
X136379898Y-115628697D01*
X136317916Y-115643751D01*
X136244715Y-115655367D01*
X136156878Y-115663936D01*
X136050988Y-115669856D01*
X135923628Y-115673519D01*
X135771381Y-115675321D01*
X135590832Y-115675656D01*
X135378562Y-115674919D01*
X135299755Y-115674501D01*
X134454911Y-115669786D01*
X135183557Y-115134572D01*
X135390265Y-114982946D01*
X135570260Y-114851581D01*
X135725925Y-114739057D01*
X135859647Y-114643957D01*
X135973809Y-114564862D01*
X136070797Y-114500353D01*
X136152994Y-114449012D01*
X136222786Y-114409420D01*
X136282558Y-114380160D01*
X136334693Y-114359812D01*
X136381576Y-114346958D01*
X136425593Y-114340181D01*
X136469127Y-114338060D01*
X136514564Y-114339179D01*
X136520275Y-114339464D01*
X136633933Y-114345357D01*
X136633857Y-112469771D01*
X136493189Y-112609278D01*
X136454715Y-112647135D01*
X136417279Y-112683047D01*
X136378814Y-112718593D01*
X136337258Y-112755347D01*
X136290545Y-112794886D01*
X136236610Y-112838786D01*
X136173390Y-112888623D01*
X136098818Y-112945972D01*
X136010832Y-113012411D01*
X135907365Y-113089515D01*
X135786354Y-113178861D01*
X135645734Y-113282024D01*
X135483440Y-113400580D01*
X135297407Y-113536105D01*
X135085571Y-113690177D01*
X134911804Y-113816462D01*
X134693501Y-113974954D01*
X134502629Y-114113216D01*
X134337374Y-114232499D01*
X134195926Y-114334057D01*
X134076471Y-114419141D01*
X133977198Y-114489005D01*
X133896295Y-114544900D01*
X133831949Y-114588080D01*
X133782347Y-114619797D01*
X133745679Y-114641302D01*
X133720132Y-114653850D01*
X133703893Y-114658692D01*
X133695355Y-114657237D01*
X133672635Y-114639599D01*
X133624543Y-114601466D01*
X133553938Y-114545138D01*
X133463678Y-114472916D01*
X133356621Y-114387101D01*
X133235627Y-114289994D01*
X133103554Y-114183896D01*
X132963260Y-114071109D01*
X132817603Y-113953932D01*
X132669444Y-113834667D01*
X132588000Y-113769067D01*
X132588000Y-112140314D01*
X132710465Y-112072621D01*
X132832929Y-112004929D01*
X136388929Y-112004929D01*
X136511393Y-112072621D01*
X136633857Y-112140314D01*
X136633857Y-111339559D01*
X136633802Y-111148398D01*
X136633551Y-110990501D01*
X136632979Y-110862848D01*
X136631959Y-110762419D01*
X136630365Y-110686193D01*
X136628070Y-110631148D01*
X136624950Y-110594264D01*
X136620877Y-110572521D01*
X136615725Y-110562898D01*
X136609367Y-110562373D01*
X136601679Y-110567926D01*
X136601615Y-110567984D01*
X136568524Y-110590860D01*
X136514719Y-110621151D01*
X136461008Y-110647903D01*
X136352643Y-110698643D01*
X134470322Y-110703818D01*
X132588000Y-110708993D01*
X132588000Y-112140314D01*
X132588000Y-113769067D01*
X132521639Y-113715615D01*
X132377047Y-113599077D01*
X132238528Y-113487354D01*
X132108939Y-113382746D01*
X131991140Y-113287556D01*
X131887988Y-113204083D01*
X131802343Y-113134629D01*
X131737062Y-113081494D01*
X131699000Y-113050285D01*
X131556670Y-112929097D01*
X131428230Y-112812507D01*
X131317886Y-112704603D01*
X131229841Y-112609470D01*
X131175862Y-112541957D01*
X131118429Y-112462127D01*
X131118429Y-114298108D01*
X131226165Y-114297592D01*
X131305372Y-114302724D01*
X131378805Y-114322015D01*
X131448415Y-114351877D01*
X131487741Y-114371288D01*
X131526707Y-114392159D01*
X131567901Y-114416396D01*
X131613908Y-114445906D01*
X131667317Y-114482594D01*
X131730714Y-114528368D01*
X131806685Y-114585135D01*
X131897817Y-114654800D01*
X132006698Y-114739270D01*
X132135914Y-114840453D01*
X132288052Y-114960253D01*
X132465698Y-115100579D01*
X132485742Y-115116429D01*
X133185508Y-115669786D01*
X132410504Y-115675143D01*
X132178368Y-115676221D01*
X131981846Y-115675992D01*
X131820292Y-115674443D01*
X131693056Y-115671563D01*
X131599492Y-115667341D01*
X131538952Y-115661766D01*
X131527468Y-115659893D01*
X131406499Y-115630495D01*
X131297446Y-115591978D01*
X131209763Y-115548026D01*
X131172574Y-115521621D01*
X131118429Y-115476060D01*
X131118429Y-116340530D01*
X131118605Y-116546745D01*
X131119179Y-116719188D01*
X131120217Y-116860373D01*
X131121787Y-116972812D01*
X131123954Y-117059017D01*
X131126788Y-117121502D01*
X131130353Y-117162779D01*
X131134718Y-117185360D01*
X131139949Y-117191759D01*
X131141107Y-117191317D01*
X131168769Y-117172991D01*
X131212615Y-117142396D01*
X131234791Y-117126567D01*
X131256920Y-117110202D01*
X131276709Y-117095492D01*
X131296106Y-117082344D01*
X131317058Y-117070667D01*
X131341512Y-117060368D01*
X131371416Y-117051354D01*
X131408717Y-117043532D01*
X131455363Y-117036809D01*
X131513301Y-117031094D01*
X131584479Y-117026293D01*
X131670844Y-117022315D01*
X131774344Y-117019065D01*
X131896925Y-117016452D01*
X132040537Y-117014383D01*
X132207125Y-117012766D01*
X132398637Y-117011507D01*
X132617022Y-117010515D01*
X132864226Y-117009696D01*
X133142196Y-117008958D01*
X133452881Y-117008209D01*
X133738300Y-117007508D01*
X134056492Y-117006847D01*
X134360077Y-117006503D01*
X134647115Y-117006468D01*
X134915669Y-117006732D01*
X135163798Y-117007285D01*
X135389563Y-117008120D01*
X135591026Y-117009227D01*
X135766246Y-117010596D01*
X135913286Y-117012219D01*
X136030206Y-117014087D01*
X136115067Y-117016189D01*
X136165929Y-117018518D01*
X136171304Y-117018959D01*
X136294613Y-117035008D01*
X136393644Y-117060064D01*
X136480070Y-117098221D01*
X136565565Y-117153572D01*
X136574893Y-117160496D01*
X136633857Y-117204704D01*
X136633857Y-117688916D01*
X136526168Y-117689892D01*
X136341976Y-117691001D01*
X136133784Y-117691801D01*
X135900091Y-117692339D01*
X135639398Y-117692662D01*
X135350204Y-117692817D01*
X135031009Y-117692854D01*
X134680313Y-117692817D01*
X134296614Y-117692755D01*
X133878414Y-117692715D01*
X133795393Y-117692714D01*
X133372789Y-117692691D01*
X132984981Y-117692612D01*
X132630480Y-117692467D01*
X132307797Y-117692244D01*
X132015442Y-117691931D01*
X131751927Y-117691517D01*
X131515762Y-117690991D01*
X131305458Y-117690340D01*
X131119526Y-117689553D01*
X130956475Y-117688619D01*
X130814818Y-117687526D01*
X130693064Y-117686263D01*
X130589725Y-117684817D01*
X130503311Y-117683179D01*
X130432333Y-117681334D01*
X130375301Y-117679274D01*
X130330727Y-117676985D01*
X130297121Y-117674456D01*
X130272993Y-117671676D01*
X130256856Y-117668633D01*
X130247218Y-117665316D01*
X130246978Y-117665193D01*
X130232255Y-117658360D01*
X130218926Y-117652670D01*
X130206922Y-117646374D01*
X130196173Y-117637728D01*
X130186611Y-117624986D01*
X130178167Y-117606400D01*
X130170771Y-117580226D01*
X130164354Y-117544716D01*
X130158848Y-117498125D01*
X130154183Y-117438707D01*
X130150291Y-117364715D01*
X130147102Y-117274403D01*
X130144547Y-117166025D01*
X130142558Y-117037835D01*
X130141065Y-116888087D01*
X130139998Y-116715034D01*
X130139291Y-116516931D01*
X130138872Y-116292031D01*
X130138673Y-116038588D01*
X130138626Y-115754856D01*
X130138660Y-115439089D01*
G37*
X130138660Y-115439089D02*
X130138707Y-115089540D01*
X130138714Y-114926830D01*
X130138715Y-112322429D01*
X130292238Y-112322429D01*
X130479063Y-112306043D01*
X130651367Y-112256588D01*
X130810175Y-112173620D01*
X130956510Y-112056695D01*
X130996032Y-112017136D01*
X131108138Y-111874830D01*
X131189899Y-111717922D01*
X131241353Y-111551072D01*
X131262537Y-111378939D01*
X131253487Y-111206185D01*
X131214242Y-111037470D01*
X131144838Y-110877454D01*
X131045311Y-110730798D01*
X130985265Y-110664932D01*
X130838043Y-110542192D01*
X130676147Y-110452188D01*
X130501427Y-110395706D01*
X130315735Y-110373529D01*
X130297467Y-110373234D01*
X130138720Y-110372072D01*
X130138717Y-110302300D01*
X130147118Y-110240405D01*
X130167556Y-110183865D01*
X130169667Y-110180128D01*
X130176293Y-110167358D01*
X130181454Y-110155632D01*
X130186651Y-110144906D01*
X130193390Y-110135139D01*
X130203171Y-110126288D01*
X130217500Y-110118311D01*
X130237878Y-110111165D01*
X130265808Y-110104808D01*
X130302795Y-110099198D01*
X130350340Y-110094293D01*
X130409947Y-110090049D01*
X130483119Y-110086424D01*
X130571359Y-110083377D01*
X130676170Y-110080864D01*
X130799055Y-110078844D01*
X130941517Y-110077274D01*
X131105060Y-110076112D01*
X131291186Y-110075314D01*
X131501398Y-110074840D01*
X131737200Y-110074646D01*
X132000094Y-110074690D01*
X132291584Y-110074930D01*
X132613172Y-110075323D01*
X132966362Y-110075827D01*
X133352657Y-110076400D01*
X133773560Y-110076999D01*
X133824840Y-110077068D01*
X134248426Y-110077605D01*
X134637230Y-110078061D01*
X134992753Y-110078484D01*
X135316498Y-110078921D01*
X135609966Y-110079422D01*
X135874661Y-110080035D01*
X136112085Y-110080808D01*
X136323740Y-110081789D01*
X136511129Y-110083026D01*
X136675754Y-110084568D01*
X136819117Y-110086463D01*
X136942720Y-110088759D01*
X137048067Y-110091504D01*
X137136659Y-110094747D01*
X137210000Y-110098536D01*
X137269590Y-110102919D01*
X137316933Y-110107945D01*
X137353531Y-110113661D01*
X137380886Y-110120116D01*
X137400502Y-110127359D01*
X137413879Y-110135437D01*
X137422521Y-110144398D01*
X137427930Y-110154292D01*
X137431608Y-110165165D01*
X137435058Y-110177067D01*
X137439782Y-110190046D01*
X137441220Y-110193217D01*
X137444451Y-110203181D01*
X137447420Y-110219859D01*
X137450137Y-110244707D01*
X137452613Y-110279180D01*
X137454858Y-110324736D01*
X137456883Y-110382830D01*
X137458698Y-110454919D01*
X137460315Y-110542458D01*
X137461743Y-110646905D01*
X137462993Y-110769715D01*
X137464076Y-110912345D01*
X137465002Y-111076251D01*
X137465782Y-111262890D01*
X137466426Y-111473716D01*
X137466946Y-111710188D01*
X137467351Y-111973761D01*
X137467652Y-112265890D01*
X137467860Y-112588034D01*
X137467985Y-112941647D01*
X137468038Y-113328186D01*
X137468029Y-113749108D01*
X137468016Y-113885456D01*
X137467947Y-114315716D01*
X137467834Y-114711164D01*
X137467665Y-115073273D01*
X137467430Y-115403517D01*
X137467116Y-115703371D01*
X137466713Y-115974308D01*
X137466207Y-116217800D01*
X137465589Y-116435323D01*
X137464846Y-116628350D01*
X137463968Y-116798354D01*
X137462941Y-116946810D01*
X137461756Y-117075190D01*
X137460400Y-117184969D01*
X137458862Y-117277620D01*
X137457130Y-117354617D01*
X137455194Y-117417434D01*
X137453040Y-117467544D01*
X137450659Y-117506421D01*
X137448037Y-117535538D01*
X137445165Y-117556371D01*
X137442030Y-117570391D01*
X137439159Y-117578034D01*
X137433430Y-117591618D01*
X137429206Y-117604090D01*
X137424985Y-117615498D01*
X137419268Y-117625889D01*
X137410555Y-117635309D01*
X137397345Y-117643808D01*
X137378137Y-117651430D01*
X137351433Y-117658225D01*
X137315730Y-117664238D01*
X137269530Y-117669517D01*
X137211332Y-117674110D01*
X137139635Y-117678064D01*
X137052940Y-117681425D01*
X136949746Y-117684241D01*
X136828553Y-117686560D01*
X136687860Y-117688428D01*
X136633857Y-117688916D01*
X136633857Y-117204704D01*
X136633857Y-115493256D01*
X136583964Y-115526187D01*
X136532693Y-115558947D01*
X136483869Y-115586689D01*
X136434076Y-115609807D01*
X136379898Y-115628697D01*
X136317916Y-115643751D01*
X136244715Y-115655367D01*
X136156878Y-115663936D01*
X136050988Y-115669856D01*
X135923628Y-115673519D01*
X135771381Y-115675321D01*
X135590832Y-115675656D01*
X135378562Y-115674919D01*
X135299755Y-115674501D01*
X134454911Y-115669786D01*
X135183557Y-115134572D01*
X135390265Y-114982946D01*
X135570260Y-114851581D01*
X135725925Y-114739057D01*
X135859647Y-114643957D01*
X135973809Y-114564862D01*
X136070797Y-114500353D01*
X136152994Y-114449012D01*
X136222786Y-114409420D01*
X136282558Y-114380160D01*
X136334693Y-114359812D01*
X136381576Y-114346958D01*
X136425593Y-114340181D01*
X136469127Y-114338060D01*
X136514564Y-114339179D01*
X136520275Y-114339464D01*
X136633933Y-114345357D01*
X136633857Y-112469771D01*
X136493189Y-112609278D01*
X136454715Y-112647135D01*
X136417279Y-112683047D01*
X136378814Y-112718593D01*
X136337258Y-112755347D01*
X136290545Y-112794886D01*
X136236610Y-112838786D01*
X136173390Y-112888623D01*
X136098818Y-112945972D01*
X136010832Y-113012411D01*
X135907365Y-113089515D01*
X135786354Y-113178861D01*
X135645734Y-113282024D01*
X135483440Y-113400580D01*
X135297407Y-113536105D01*
X135085571Y-113690177D01*
X134911804Y-113816462D01*
X134693501Y-113974954D01*
X134502629Y-114113216D01*
X134337374Y-114232499D01*
X134195926Y-114334057D01*
X134076471Y-114419141D01*
X133977198Y-114489005D01*
X133896295Y-114544900D01*
X133831949Y-114588080D01*
X133782347Y-114619797D01*
X133745679Y-114641302D01*
X133720132Y-114653850D01*
X133703893Y-114658692D01*
X133695355Y-114657237D01*
X133672635Y-114639599D01*
X133624543Y-114601466D01*
X133553938Y-114545138D01*
X133463678Y-114472916D01*
X133356621Y-114387101D01*
X133235627Y-114289994D01*
X133103554Y-114183896D01*
X132963260Y-114071109D01*
X132817603Y-113953932D01*
X132669444Y-113834667D01*
X132588000Y-113769067D01*
X132588000Y-112140314D01*
X132710465Y-112072621D01*
X132832929Y-112004929D01*
X136388929Y-112004929D01*
X136511393Y-112072621D01*
X136633857Y-112140314D01*
X136633857Y-111339559D01*
X136633802Y-111148398D01*
X136633551Y-110990501D01*
X136632979Y-110862848D01*
X136631959Y-110762419D01*
X136630365Y-110686193D01*
X136628070Y-110631148D01*
X136624950Y-110594264D01*
X136620877Y-110572521D01*
X136615725Y-110562898D01*
X136609367Y-110562373D01*
X136601679Y-110567926D01*
X136601615Y-110567984D01*
X136568524Y-110590860D01*
X136514719Y-110621151D01*
X136461008Y-110647903D01*
X136352643Y-110698643D01*
X134470322Y-110703818D01*
X132588000Y-110708993D01*
X132588000Y-112140314D01*
X132588000Y-113769067D01*
X132521639Y-113715615D01*
X132377047Y-113599077D01*
X132238528Y-113487354D01*
X132108939Y-113382746D01*
X131991140Y-113287556D01*
X131887988Y-113204083D01*
X131802343Y-113134629D01*
X131737062Y-113081494D01*
X131699000Y-113050285D01*
X131556670Y-112929097D01*
X131428230Y-112812507D01*
X131317886Y-112704603D01*
X131229841Y-112609470D01*
X131175862Y-112541957D01*
X131118429Y-112462127D01*
X131118429Y-114298108D01*
X131226165Y-114297592D01*
X131305372Y-114302724D01*
X131378805Y-114322015D01*
X131448415Y-114351877D01*
X131487741Y-114371288D01*
X131526707Y-114392159D01*
X131567901Y-114416396D01*
X131613908Y-114445906D01*
X131667317Y-114482594D01*
X131730714Y-114528368D01*
X131806685Y-114585135D01*
X131897817Y-114654800D01*
X132006698Y-114739270D01*
X132135914Y-114840453D01*
X132288052Y-114960253D01*
X132465698Y-115100579D01*
X132485742Y-115116429D01*
X133185508Y-115669786D01*
X132410504Y-115675143D01*
X132178368Y-115676221D01*
X131981846Y-115675992D01*
X131820292Y-115674443D01*
X131693056Y-115671563D01*
X131599492Y-115667341D01*
X131538952Y-115661766D01*
X131527468Y-115659893D01*
X131406499Y-115630495D01*
X131297446Y-115591978D01*
X131209763Y-115548026D01*
X131172574Y-115521621D01*
X131118429Y-115476060D01*
X131118429Y-116340530D01*
X131118605Y-116546745D01*
X131119179Y-116719188D01*
X131120217Y-116860373D01*
X131121787Y-116972812D01*
X131123954Y-117059017D01*
X131126788Y-117121502D01*
X131130353Y-117162779D01*
X131134718Y-117185360D01*
X131139949Y-117191759D01*
X131141107Y-117191317D01*
X131168769Y-117172991D01*
X131212615Y-117142396D01*
X131234791Y-117126567D01*
X131256920Y-117110202D01*
X131276709Y-117095492D01*
X131296106Y-117082344D01*
X131317058Y-117070667D01*
X131341512Y-117060368D01*
X131371416Y-117051354D01*
X131408717Y-117043532D01*
X131455363Y-117036809D01*
X131513301Y-117031094D01*
X131584479Y-117026293D01*
X131670844Y-117022315D01*
X131774344Y-117019065D01*
X131896925Y-117016452D01*
X132040537Y-117014383D01*
X132207125Y-117012766D01*
X132398637Y-117011507D01*
X132617022Y-117010515D01*
X132864226Y-117009696D01*
X133142196Y-117008958D01*
X133452881Y-117008209D01*
X133738300Y-117007508D01*
X134056492Y-117006847D01*
X134360077Y-117006503D01*
X134647115Y-117006468D01*
X134915669Y-117006732D01*
X135163798Y-117007285D01*
X135389563Y-117008120D01*
X135591026Y-117009227D01*
X135766246Y-117010596D01*
X135913286Y-117012219D01*
X136030206Y-117014087D01*
X136115067Y-117016189D01*
X136165929Y-117018518D01*
X136171304Y-117018959D01*
X136294613Y-117035008D01*
X136393644Y-117060064D01*
X136480070Y-117098221D01*
X136565565Y-117153572D01*
X136574893Y-117160496D01*
X136633857Y-117204704D01*
X136633857Y-117688916D01*
X136526168Y-117689892D01*
X136341976Y-117691001D01*
X136133784Y-117691801D01*
X135900091Y-117692339D01*
X135639398Y-117692662D01*
X135350204Y-117692817D01*
X135031009Y-117692854D01*
X134680313Y-117692817D01*
X134296614Y-117692755D01*
X133878414Y-117692715D01*
X133795393Y-117692714D01*
X133372789Y-117692691D01*
X132984981Y-117692612D01*
X132630480Y-117692467D01*
X132307797Y-117692244D01*
X132015442Y-117691931D01*
X131751927Y-117691517D01*
X131515762Y-117690991D01*
X131305458Y-117690340D01*
X131119526Y-117689553D01*
X130956475Y-117688619D01*
X130814818Y-117687526D01*
X130693064Y-117686263D01*
X130589725Y-117684817D01*
X130503311Y-117683179D01*
X130432333Y-117681334D01*
X130375301Y-117679274D01*
X130330727Y-117676985D01*
X130297121Y-117674456D01*
X130272993Y-117671676D01*
X130256856Y-117668633D01*
X130247218Y-117665316D01*
X130246978Y-117665193D01*
X130232255Y-117658360D01*
X130218926Y-117652670D01*
X130206922Y-117646374D01*
X130196173Y-117637728D01*
X130186611Y-117624986D01*
X130178167Y-117606400D01*
X130170771Y-117580226D01*
X130164354Y-117544716D01*
X130158848Y-117498125D01*
X130154183Y-117438707D01*
X130150291Y-117364715D01*
X130147102Y-117274403D01*
X130144547Y-117166025D01*
X130142558Y-117037835D01*
X130141065Y-116888087D01*
X130139998Y-116715034D01*
X130139291Y-116516931D01*
X130138872Y-116292031D01*
X130138673Y-116038588D01*
X130138626Y-115754856D01*
X130138660Y-115439089D01*
D12*
X181130000Y-133561000D02*
X181130000Y-128040000D01*
X179120000Y-134140000D02*
X179120000Y-133561000D01*
X178470000Y-133561000D02*
X179120000Y-133561000D01*
X178470000Y-133561000D02*
X178470000Y-128040000D01*
X178470000Y-128040000D02*
X179180000Y-128040000D01*
X180420000Y-133561000D02*
X181130000Y-133561000D01*
X180420000Y-128040000D02*
X181130000Y-128040000D01*
X183820000Y-128040000D02*
X184530000Y-128040000D01*
X183820000Y-133561000D02*
X184530000Y-133561000D01*
X181870000Y-128040000D02*
X182580000Y-128040000D01*
X181870000Y-133561000D02*
X181870000Y-128040000D01*
X181870000Y-133561000D02*
X182520000Y-133561000D01*
X182520000Y-134140000D02*
X182520000Y-133561000D01*
X184530000Y-133561000D02*
X184530000Y-128040000D01*
X171960000Y-71023752D02*
X171960000Y-68251248D01*
X168540000Y-71023752D02*
X168540000Y-68251248D01*
X146790000Y-71023752D02*
X146790000Y-68251248D01*
X150210000Y-71023752D02*
X150210000Y-68251248D01*
X153938675Y-91668880D02*
X154168880Y-91438675D01*
X153217426Y-90947631D02*
X153447631Y-90717426D01*
X152802369Y-90418880D02*
X153032574Y-90188675D01*
X152081120Y-89697631D02*
X152311325Y-89467426D01*
X141995522Y-80524273D02*
X142225727Y-80754478D01*
X141274273Y-81245522D02*
X141504478Y-81475727D01*
X144652199Y-81593709D02*
X145017883Y-81228025D01*
X145656291Y-82597801D02*
X146021975Y-82232117D01*
X141267883Y-93728025D02*
X140902199Y-94093709D01*
X142271975Y-94732117D02*
X141906291Y-95097801D01*
X146274273Y-83004478D02*
X146504478Y-82774273D01*
X146995522Y-83725727D02*
X147225727Y-83495522D01*
X140197631Y-92581120D02*
X139967426Y-92811325D01*
X140918880Y-93302369D02*
X140688675Y-93532574D01*
X137254478Y-85725727D02*
X137024273Y-85495522D01*
X137975727Y-85004478D02*
X137745522Y-84774273D01*
X118764578Y-60890000D02*
X118247422Y-60890000D01*
X118764578Y-62310000D02*
X118247422Y-62310000D01*
X120638500Y-68257922D02*
X120638500Y-68775078D01*
X122058500Y-68257922D02*
X122058500Y-68775078D01*
X117921721Y-70804500D02*
X118247279Y-70804500D01*
X117921721Y-69784500D02*
X118247279Y-69784500D01*
X117787922Y-67171500D02*
X118305078Y-67171500D01*
X117787922Y-68591500D02*
X118305078Y-68591500D01*
X174153922Y-113060000D02*
X174671078Y-113060000D01*
X174153922Y-111640000D02*
X174671078Y-111640000D01*
X174399721Y-110860000D02*
X174725279Y-110860000D01*
X174399721Y-109840000D02*
X174725279Y-109840000D01*
X155924273Y-89154478D02*
X156154478Y-88924273D01*
X156645522Y-89875727D02*
X156875727Y-89645522D01*
X160875727Y-89554478D02*
X160645522Y-89324273D01*
X160154478Y-90275727D02*
X159924273Y-90045522D01*
X122620500Y-104650221D02*
X122620500Y-104975779D01*
X121600500Y-104650221D02*
X121600500Y-104975779D01*
X113575279Y-100890000D02*
X113249721Y-100890000D01*
X113575279Y-101910000D02*
X113249721Y-101910000D01*
X121200279Y-85503500D02*
X120874721Y-85503500D01*
X121200279Y-86523500D02*
X120874721Y-86523500D01*
X110315000Y-91388779D02*
X110315000Y-91063221D01*
X111335000Y-91388779D02*
X111335000Y-91063221D01*
X111335000Y-81350721D02*
X111335000Y-81676279D01*
X110315000Y-81350721D02*
X110315000Y-81676279D01*
X121718000Y-92817422D02*
X121718000Y-93334578D01*
X123138000Y-92817422D02*
X123138000Y-93334578D01*
X117503922Y-93303500D02*
X118021078Y-93303500D01*
X117503922Y-94723500D02*
X118021078Y-94723500D01*
X117253922Y-79473500D02*
X117771078Y-79473500D01*
X117253922Y-78053500D02*
X117771078Y-78053500D01*
X126375279Y-118108000D02*
X126049721Y-118108000D01*
X126375279Y-119128000D02*
X126049721Y-119128000D01*
X110000000Y-63265000D02*
X107715000Y-63265000D01*
X107715000Y-63265000D02*
X107715000Y-64735000D01*
X107715000Y-64735000D02*
X110000000Y-64735000D01*
X114600000Y-63150000D02*
X114600000Y-66450000D01*
X114600000Y-66450000D02*
X120000000Y-66450000D01*
X114600000Y-63150000D02*
X120000000Y-63150000D01*
X139927000Y-134479500D02*
X139927000Y-132194500D01*
X138457000Y-134479500D02*
X139927000Y-134479500D01*
X138457000Y-132194500D02*
X138457000Y-134479500D01*
X141441500Y-132194500D02*
X141441500Y-134479500D01*
X141441500Y-134479500D02*
X142911500Y-134479500D01*
X142911500Y-134479500D02*
X142911500Y-132194500D01*
X144021975Y-79267883D02*
X143656291Y-78902199D01*
X143017883Y-80271975D02*
X142652199Y-79906291D01*
X143771975Y-96232117D02*
X143406291Y-96597801D01*
X142767883Y-95228025D02*
X142402199Y-95593709D01*
X171310000Y-55141422D02*
X171310000Y-55658578D01*
X169890000Y-55141422D02*
X169890000Y-55658578D01*
X165582117Y-98621975D02*
X165947801Y-98256291D01*
X164578025Y-97617883D02*
X164943709Y-97252199D01*
X150740000Y-49935000D02*
X167380000Y-49935000D01*
X150740000Y-49935000D02*
X150740000Y-57640000D01*
X167380000Y-49935000D02*
X167380000Y-57640000D01*
X150740000Y-65815000D02*
X167380000Y-65815000D01*
X150740000Y-65815000D02*
X150740000Y-60140000D01*
X167380000Y-65815000D02*
X167380000Y-60140000D01*
X150500000Y-57500000D02*
X150000000Y-58000000D01*
X150000000Y-58000000D02*
X150000000Y-57000000D01*
X150000000Y-57000000D02*
X150500000Y-57500000D01*
X144000000Y-63760000D02*
X143000000Y-63760000D01*
X147250000Y-50010000D02*
X147250000Y-49510000D01*
X146250000Y-50010000D02*
X147250000Y-50010000D01*
X146250000Y-58010000D02*
X146250000Y-50010000D01*
X146250000Y-63510000D02*
X146250000Y-61510000D01*
X133750000Y-63510000D02*
X146250000Y-63510000D01*
X133750000Y-61510000D02*
X133750000Y-63510000D01*
X133750000Y-50010000D02*
X133750000Y-58010000D01*
X132750000Y-50010000D02*
X133750000Y-50010000D01*
X132750000Y-49510000D02*
X132750000Y-50010000D01*
X147250000Y-49510000D02*
X132750000Y-49510000D01*
X120030000Y-49660000D02*
X128970000Y-49660000D01*
X120030000Y-55170000D02*
X120030000Y-53370000D01*
X120030000Y-49660000D02*
X120030000Y-51120000D01*
X128970000Y-49660000D02*
X128970000Y-51120000D01*
X128970000Y-55170000D02*
X128970000Y-53370000D01*
X117650000Y-59310000D02*
X117650000Y-49890000D01*
X117650000Y-49890000D02*
X107270000Y-49890000D01*
X107270000Y-49890000D02*
X107270000Y-59310000D01*
X117650000Y-59310000D02*
X116050000Y-59310000D01*
X107270000Y-59310000D02*
X108870000Y-59310000D01*
X113950000Y-59310000D02*
X110970000Y-59310000D01*
X117650000Y-53200000D02*
X107270000Y-53200000D01*
X114700000Y-60600000D02*
X115000000Y-60000000D01*
X115000000Y-60000000D02*
X115300000Y-60600000D01*
X115300000Y-60600000D02*
X114700000Y-60600000D01*
D10*
X189150000Y-63100000D02*
X189150000Y-55800000D01*
X177850000Y-64500000D02*
X174650000Y-64500000D01*
X172650000Y-55700000D02*
X172650000Y-64500000D01*
X172650000Y-53200000D02*
X172650000Y-50000000D01*
X172650000Y-50000000D02*
X189150000Y-50000000D01*
X189150000Y-50000000D02*
X189150000Y-53200000D01*
D12*
X145750000Y-129450000D02*
X145750000Y-129150000D01*
X145750000Y-129150000D02*
X145250000Y-129150000D01*
X151625000Y-129740000D02*
X145460000Y-129740000D01*
X145460000Y-129740000D02*
X145460000Y-129440000D01*
X145460000Y-129440000D02*
X144390000Y-129440000D01*
X144390000Y-129440000D02*
X144390000Y-135160000D01*
X144390000Y-135160000D02*
X151625000Y-135160000D01*
X151625000Y-129740000D02*
X157790000Y-129740000D01*
X157790000Y-129740000D02*
X157790000Y-129440000D01*
X157790000Y-129440000D02*
X158860000Y-129440000D01*
X158860000Y-129440000D02*
X158860000Y-135160000D01*
X158860000Y-135160000D02*
X151625000Y-135160000D01*
X168977000Y-78613000D02*
X171637000Y-78613000D01*
X168977000Y-78613000D02*
X168977000Y-83753000D01*
X168977000Y-83753000D02*
X171637000Y-83753000D01*
X171637000Y-78613000D02*
X171637000Y-83753000D01*
X171637000Y-76013000D02*
X171637000Y-77343000D01*
X170307000Y-76013000D02*
X171637000Y-76013000D01*
X195350000Y-71850000D02*
X195050000Y-71850000D01*
X195050000Y-71850000D02*
X195050000Y-72350000D01*
X195640000Y-67225000D02*
X195640000Y-72140000D01*
X195640000Y-72140000D02*
X195340000Y-72140000D01*
X195340000Y-72140000D02*
X195340000Y-73210000D01*
X195340000Y-73210000D02*
X201060000Y-73210000D01*
X201060000Y-73210000D02*
X201060000Y-67225000D01*
X195640000Y-67225000D02*
X195640000Y-62310000D01*
X195640000Y-62310000D02*
X195340000Y-62310000D01*
X195340000Y-62310000D02*
X195340000Y-61240000D01*
X195340000Y-61240000D02*
X201060000Y-61240000D01*
X201060000Y-61240000D02*
X201060000Y-67225000D01*
X199830000Y-75410000D02*
X194630000Y-75410000D01*
X199830000Y-123730000D02*
X199830000Y-75410000D01*
X194630000Y-126330000D02*
X194630000Y-75410000D01*
X199830000Y-123730000D02*
X197230000Y-123730000D01*
X197230000Y-123730000D02*
X197230000Y-126330000D01*
X197230000Y-126330000D02*
X194630000Y-126330000D01*
X199830000Y-125000000D02*
X199830000Y-126330000D01*
X199830000Y-126330000D02*
X198500000Y-126330000D01*
X174260000Y-135160000D02*
X167025000Y-135160000D01*
X174260000Y-129440000D02*
X174260000Y-135160000D01*
X173190000Y-129440000D02*
X174260000Y-129440000D01*
X173190000Y-129740000D02*
X173190000Y-129440000D01*
X167025000Y-129740000D02*
X173190000Y-129740000D01*
X159790000Y-135160000D02*
X167025000Y-135160000D01*
X159790000Y-129440000D02*
X159790000Y-135160000D01*
X160860000Y-129440000D02*
X159790000Y-129440000D01*
X160860000Y-129740000D02*
X160860000Y-129440000D01*
X167025000Y-129740000D02*
X160860000Y-129740000D01*
X161150000Y-129150000D02*
X160650000Y-129150000D01*
X161150000Y-129450000D02*
X161150000Y-129150000D01*
X116290000Y-125690000D02*
X116290000Y-135110000D01*
X116290000Y-135110000D02*
X136950000Y-135110000D01*
X136950000Y-135110000D02*
X136950000Y-125690000D01*
X116290000Y-125690000D02*
X117950000Y-125690000D01*
X136950000Y-125690000D02*
X135290000Y-125690000D01*
X120050000Y-125690000D02*
X121760000Y-125690000D01*
X123860000Y-125690000D02*
X125570000Y-125690000D01*
X127670000Y-125690000D02*
X129380000Y-125690000D01*
X131480000Y-125690000D02*
X133190000Y-125690000D01*
X116290000Y-131800000D02*
X136950000Y-131800000D01*
X119300000Y-124400000D02*
X119000000Y-125000000D01*
X119000000Y-125000000D02*
X118700000Y-124400000D01*
X118700000Y-124400000D02*
X119300000Y-124400000D01*
X193090000Y-59910000D02*
X202510000Y-59910000D01*
X202510000Y-59910000D02*
X202510000Y-50680000D01*
X202510000Y-50680000D02*
X193090000Y-50680000D01*
X193090000Y-59910000D02*
X193090000Y-58250000D01*
X193090000Y-50680000D02*
X193090000Y-52340000D01*
X193090000Y-56150000D02*
X193090000Y-54440000D01*
X199200000Y-59910000D02*
X199200000Y-50680000D01*
X191800000Y-56900000D02*
X192400000Y-57200000D01*
X192400000Y-57200000D02*
X191800000Y-57500000D01*
X191800000Y-57500000D02*
X191800000Y-56900000D01*
X119000000Y-123800000D02*
X116200000Y-123800000D01*
X116200000Y-123800000D02*
X116200000Y-121800000D01*
X116200000Y-121800000D02*
X119000000Y-121800000D01*
X119000000Y-121800000D02*
X119000000Y-123800000D01*
X119825000Y-87163500D02*
X122825000Y-87163500D01*
X119825000Y-90363500D02*
X122825000Y-90363500D01*
X117175000Y-89363500D02*
X117175000Y-92363500D01*
X113975000Y-89363500D02*
X113975000Y-92363500D01*
X117175000Y-83363500D02*
X117175000Y-80363500D01*
X113975000Y-83363500D02*
X113975000Y-80363500D01*
X116640000Y-103020000D02*
X116640000Y-103950000D01*
X116640000Y-106180000D02*
X116640000Y-105250000D01*
X116640000Y-106180000D02*
X118800000Y-106180000D01*
X116640000Y-103020000D02*
X118100000Y-103020000D01*
X137524273Y-90504478D02*
X137754478Y-90274273D01*
X138245522Y-91225727D02*
X138475727Y-90995522D01*
X139552369Y-92418880D02*
X139782574Y-92188675D01*
X138831120Y-91697631D02*
X139061325Y-91467426D01*
X147717426Y-95688675D02*
X147947631Y-95918880D01*
X148438675Y-94967426D02*
X148668880Y-95197631D01*
X149967426Y-93438675D02*
X150197631Y-93668880D01*
X150688675Y-92717426D02*
X150918880Y-92947631D01*
X149552369Y-93831120D02*
X149782574Y-94061325D01*
X148831120Y-94552369D02*
X149061325Y-94782574D01*
X147302369Y-96081120D02*
X147532574Y-96311325D01*
X146581120Y-96802369D02*
X146811325Y-97032574D01*
X151197631Y-88331120D02*
X150967426Y-88561325D01*
X151918880Y-89052369D02*
X151688675Y-89282574D01*
X141438675Y-86032574D02*
X141668880Y-85802369D01*
X140717426Y-85311325D02*
X140947631Y-85081120D01*
X124267500Y-60225721D02*
X124267500Y-60551279D01*
X125287500Y-60225721D02*
X125287500Y-60551279D01*
X123446000Y-60225721D02*
X123446000Y-60551279D01*
X122426000Y-60225721D02*
X122426000Y-60551279D01*
X139510000Y-67124721D02*
X139510000Y-67450279D01*
X138490000Y-67124721D02*
X138490000Y-67450279D01*
X140490000Y-67049721D02*
X140490000Y-67375279D01*
X141510000Y-67049721D02*
X141510000Y-67375279D01*
X126290000Y-60249721D02*
X126290000Y-60575279D01*
X127310000Y-60249721D02*
X127310000Y-60575279D01*
X121710000Y-60224721D02*
X121710000Y-60550279D01*
X120690000Y-60224721D02*
X120690000Y-60550279D01*
X112562779Y-64510000D02*
X112237221Y-64510000D01*
X112562779Y-63490000D02*
X112237221Y-63490000D01*
X133562779Y-67110000D02*
X133237221Y-67110000D01*
X133562779Y-66090000D02*
X133237221Y-66090000D01*
X130362779Y-66090000D02*
X130037221Y-66090000D01*
X130362779Y-67110000D02*
X130037221Y-67110000D01*
X170649721Y-109840000D02*
X170975279Y-109840000D01*
X170649721Y-110860000D02*
X170975279Y-110860000D01*
X182290000Y-67037221D02*
X182290000Y-67362779D01*
X183310000Y-67037221D02*
X183310000Y-67362779D01*
X193583779Y-64844200D02*
X193258221Y-64844200D01*
X193583779Y-65864200D02*
X193258221Y-65864200D01*
X120710000Y-104649721D02*
X120710000Y-104975279D01*
X119690000Y-104649721D02*
X119690000Y-104975279D01*
X113575279Y-108110000D02*
X113249721Y-108110000D01*
X113575279Y-107090000D02*
X113249721Y-107090000D01*
X121200279Y-83753500D02*
X120874721Y-83753500D01*
X121200279Y-84773500D02*
X120874721Y-84773500D01*
X121237779Y-83023500D02*
X120912221Y-83023500D01*
X121237779Y-82003500D02*
X120912221Y-82003500D01*
X113085000Y-91388779D02*
X113085000Y-91063221D01*
X112065000Y-91388779D02*
X112065000Y-91063221D01*
X113085000Y-87813221D02*
X113085000Y-88138779D01*
X112065000Y-87813221D02*
X112065000Y-88138779D01*
X113085000Y-81350721D02*
X113085000Y-81676279D01*
X112065000Y-81350721D02*
X112065000Y-81676279D01*
X113085000Y-84926279D02*
X113085000Y-84600721D01*
X112065000Y-84926279D02*
X112065000Y-84600721D01*
X120837221Y-122290000D02*
X121162779Y-122290000D01*
X120837221Y-123310000D02*
X121162779Y-123310000D01*
X139710000Y-129624721D02*
X139710000Y-129950279D01*
X138690000Y-129624721D02*
X138690000Y-129950279D01*
X141690000Y-129637221D02*
X141690000Y-129962779D01*
X142710000Y-129637221D02*
X142710000Y-129962779D01*
X114421000Y-103270000D02*
X108900000Y-103270000D01*
X115000000Y-105280000D02*
X114421000Y-105280000D01*
X114421000Y-105930000D02*
X114421000Y-105280000D01*
X114421000Y-105930000D02*
X108900000Y-105930000D01*
X108900000Y-105930000D02*
X108900000Y-105220000D01*
X114421000Y-103980000D02*
X114421000Y-103270000D01*
X108900000Y-103980000D02*
X108900000Y-103270000D01*
X177020000Y-128040000D02*
X177730000Y-128040000D01*
X177020000Y-133561000D02*
X177730000Y-133561000D01*
X175070000Y-128040000D02*
X175780000Y-128040000D01*
X175070000Y-133561000D02*
X175070000Y-128040000D01*
X175070000Y-133561000D02*
X175720000Y-133561000D01*
X175720000Y-134140000D02*
X175720000Y-133561000D01*
X177730000Y-133561000D02*
X177730000Y-128040000D01*
X153530000Y-82350000D02*
X153530000Y-80750000D01*
X153530000Y-80750000D02*
X152005000Y-80750000D01*
X152005000Y-80750000D02*
X152005000Y-73550000D01*
X152005000Y-73550000D02*
X153530000Y-73550000D01*
X163580000Y-80750000D02*
X165105000Y-80750000D01*
X165105000Y-80750000D02*
X165105000Y-73550000D01*
X165105000Y-73550000D02*
X163580000Y-73550000D01*
X166983827Y-106471231D02*
X167355058Y-106100000D01*
X167355058Y-106100000D02*
X166983827Y-105728769D01*
X157671231Y-115783827D02*
X157300000Y-116155058D01*
X157300000Y-116155058D02*
X156928769Y-115783827D01*
X156928769Y-96416173D02*
X157300000Y-96044942D01*
X157300000Y-96044942D02*
X157671231Y-96416173D01*
X147616173Y-105728769D02*
X147244942Y-106100000D01*
X147244942Y-106100000D02*
X147616173Y-106471231D01*
X147616173Y-106471231D02*
X146704005Y-107383399D01*
X118640000Y-115800000D02*
X118640000Y-117750000D01*
X118640000Y-115800000D02*
X118640000Y-113850000D01*
X123760000Y-115800000D02*
X123760000Y-117750000D01*
X123760000Y-115800000D02*
X123760000Y-112350000D01*
X139997487Y-80669060D02*
X137169060Y-83497487D01*
X142330940Y-83002513D02*
X139997487Y-80669060D01*
X165496016Y-120449569D02*
X170021499Y-124975052D01*
X170021499Y-124975052D02*
X171718555Y-123277996D01*
X171718555Y-123277996D02*
X167193072Y-118752513D01*
X167193072Y-118752513D02*
X165496016Y-120449569D01*
X166097056Y-119848528D02*
X165036396Y-119636396D01*
X165036396Y-119636396D02*
X164894975Y-119494975D01*
X166592031Y-119353553D02*
X166379899Y-118292893D01*
X166379899Y-118292893D02*
X166238478Y-118151472D01*
X158668629Y-94204163D02*
X161002082Y-91870710D01*
X161002082Y-91870710D02*
X158173655Y-89042283D01*
X175255000Y-99350000D02*
X176055000Y-100150000D01*
X176055000Y-100150000D02*
X176055000Y-109350000D01*
X176055000Y-109350000D02*
X170645000Y-109350000D01*
X170645000Y-109350000D02*
X170645000Y-99350000D01*
X170645000Y-99350000D02*
X175255000Y-99350000D01*
X152888675Y-118032574D02*
X153118880Y-117802369D01*
X152167426Y-117311325D02*
X152397631Y-117081120D01*
X150967426Y-116111325D02*
X151197631Y-115881120D01*
X151688675Y-116832574D02*
X151918880Y-116602369D01*
X149767426Y-114911325D02*
X149997631Y-114681120D01*
X150488675Y-115632574D02*
X150718880Y-115402369D01*
X149510227Y-117800978D02*
X149280022Y-117570773D01*
X148788978Y-118522227D02*
X148558773Y-118292022D01*
X147986503Y-89002513D02*
X148233991Y-89250000D01*
X148233991Y-89250000D02*
X147986503Y-89497487D01*
X142513497Y-89497487D02*
X142266009Y-89250000D01*
X142266009Y-89250000D02*
X142513497Y-89002513D01*
X145002513Y-91986503D02*
X145250000Y-92233991D01*
X145250000Y-92233991D02*
X145497487Y-91986503D01*
X145497487Y-86513497D02*
X145250000Y-86266009D01*
X117835000Y-84553500D02*
X118285000Y-84553500D01*
X118285000Y-84553500D02*
X118285000Y-85003500D01*
X115515000Y-87773500D02*
X115065000Y-87773500D01*
X115065000Y-87773500D02*
X115065000Y-87323500D01*
X117835000Y-87773500D02*
X118285000Y-87773500D01*
X118285000Y-87773500D02*
X118285000Y-87323500D01*
X115515000Y-84553500D02*
X115065000Y-84553500D01*
M02*
