G04 #@! TF.GenerationSoftware,KiCad,Pcbnew,5.1.5*
G04 #@! TF.CreationDate,2020-04-18T05:12:52+00:00*
G04 #@! TF.ProjectId,NUC980,4e554339-3830-42e6-9b69-6361645f7063,rev?*
G04 #@! TF.SameCoordinates,Original*
G04 #@! TF.FileFunction,Legend,Bot*
G04 #@! TF.FilePolarity,Positive*
%FSLAX46Y46*%
G04 Gerber Fmt 4.6, Leading zero omitted, Abs format (unit mm)*
G04 Created by KiCad (PCBNEW 5.1.5) date 2020-04-18 05:12:52*
%MOMM*%
%LPD*%
G04 APERTURE LIST*
%ADD10C,0.120000*%
G04 APERTURE END LIST*
D10*
X153081926Y-112579325D02*
X153312131Y-112349120D01*
X153803175Y-113300574D02*
X154033380Y-113070369D01*
X162374721Y-80490000D02*
X162700279Y-80490000D01*
X162374721Y-81510000D02*
X162700279Y-81510000D01*
X162374721Y-83260000D02*
X162700279Y-83260000D01*
X162374721Y-82240000D02*
X162700279Y-82240000D01*
X154625279Y-81510000D02*
X154299721Y-81510000D01*
X154625279Y-80490000D02*
X154299721Y-80490000D01*
X154625279Y-82240000D02*
X154299721Y-82240000D01*
X154625279Y-83260000D02*
X154299721Y-83260000D01*
X147490000Y-55762779D02*
X147490000Y-55437221D01*
X148510000Y-55762779D02*
X148510000Y-55437221D01*
X131710000Y-55437221D02*
X131710000Y-55762779D01*
X130690000Y-55437221D02*
X130690000Y-55762779D01*
X180975279Y-61890000D02*
X180649721Y-61890000D01*
X180975279Y-62910000D02*
X180649721Y-62910000D01*
X180921078Y-61110000D02*
X180403922Y-61110000D01*
X180921078Y-59690000D02*
X180403922Y-59690000D01*
X163802369Y-120281120D02*
X164032574Y-120511325D01*
X163081120Y-121002369D02*
X163311325Y-121232574D01*
X167124273Y-117045522D02*
X167354478Y-117275727D01*
X167845522Y-116324273D02*
X168075727Y-116554478D01*
X168554478Y-96324273D02*
X168324273Y-96554478D01*
X169275727Y-97045522D02*
X169045522Y-97275727D01*
X118553922Y-90273500D02*
X119071078Y-90273500D01*
X118553922Y-88853500D02*
X119071078Y-88853500D01*
X115333578Y-88853500D02*
X114816422Y-88853500D01*
X115333578Y-90273500D02*
X114816422Y-90273500D01*
X115333578Y-82053500D02*
X114816422Y-82053500D01*
X115333578Y-83473500D02*
X114816422Y-83473500D01*
X149367426Y-108711325D02*
X149597631Y-108481120D01*
X150088675Y-109432574D02*
X150318880Y-109202369D01*
X118699721Y-82253500D02*
X119025279Y-82253500D01*
X118699721Y-83273500D02*
X119025279Y-83273500D01*
X158354478Y-96724273D02*
X158124273Y-96954478D01*
X159075727Y-97445522D02*
X158845522Y-97675727D01*
X163232574Y-101688675D02*
X163002369Y-101918880D01*
X162511325Y-100967426D02*
X162281120Y-101197631D01*
X149324273Y-103445522D02*
X149554478Y-103675727D01*
X150045522Y-102724273D02*
X150275727Y-102954478D01*
X160711325Y-113275727D02*
X160481120Y-113045522D01*
X161432574Y-112554478D02*
X161202369Y-112324273D01*
X160216675Y-93644880D02*
X160446880Y-93414675D01*
X159495426Y-92923631D02*
X159725631Y-92693426D01*
X166275727Y-107854478D02*
X166045522Y-107624273D01*
X165554478Y-108575727D02*
X165324273Y-108345522D01*
X147884888Y-100280796D02*
X147519204Y-99915112D01*
X146880796Y-101284888D02*
X146515112Y-100919204D01*
X166182117Y-99421975D02*
X166547801Y-99056291D01*
X165178025Y-98417883D02*
X165543709Y-98052199D01*
X160832574Y-99288675D02*
X160602369Y-99518880D01*
X160111325Y-98567426D02*
X159881120Y-98797631D01*
X163719204Y-114715112D02*
X164084888Y-115080796D01*
X162715112Y-115719204D02*
X163080796Y-116084888D01*
X149045522Y-108275727D02*
X149275727Y-108045522D01*
X148324273Y-107554478D02*
X148554478Y-107324273D01*
X161719204Y-95084888D02*
X162084888Y-94719204D01*
X160715112Y-94080796D02*
X161080796Y-93715112D01*
X160275727Y-113604478D02*
X160045522Y-113374273D01*
X159554478Y-114325727D02*
X159324273Y-114095522D01*
X147821975Y-111782117D02*
X147456291Y-112147801D01*
X146817883Y-110778025D02*
X146452199Y-111143709D01*
X147824273Y-105095522D02*
X148054478Y-105325727D01*
X148545522Y-104374273D02*
X148775727Y-104604478D01*
X155295522Y-97624273D02*
X155525727Y-97854478D01*
X154574273Y-98345522D02*
X154804478Y-98575727D01*
X145417883Y-102821975D02*
X145052199Y-102456291D01*
X146421975Y-101817883D02*
X146056291Y-101452199D01*
X161311325Y-99767426D02*
X161081120Y-99997631D01*
X162032574Y-100488675D02*
X161802369Y-100718880D01*
X150481120Y-109797631D02*
X150711325Y-109567426D01*
X151202369Y-110518880D02*
X151432574Y-110288675D01*
X148480796Y-112515112D02*
X148115112Y-112880796D01*
X149484888Y-113519204D02*
X149119204Y-113884888D01*
X157918880Y-115997631D02*
X157688675Y-115767426D01*
X157197631Y-116718880D02*
X156967426Y-116488675D01*
X163515112Y-96880796D02*
X163880796Y-96515112D01*
X164519204Y-97884888D02*
X164884888Y-97519204D01*
X156621975Y-117217883D02*
X156256291Y-116852199D01*
X155617883Y-118221975D02*
X155252199Y-117856291D01*
X181849721Y-58710000D02*
X182175279Y-58710000D01*
X181849721Y-57690000D02*
X182175279Y-57690000D01*
X146421975Y-110382117D02*
X146056291Y-110747801D01*
X145417883Y-109378025D02*
X145052199Y-109743709D01*
X144884888Y-103480796D02*
X144519204Y-103115112D01*
X143880796Y-104484888D02*
X143515112Y-104119204D01*
X150080796Y-114115112D02*
X149715112Y-114480796D01*
X151084888Y-115119204D02*
X150719204Y-115484888D01*
X160919204Y-117715112D02*
X161284888Y-118080796D01*
X159915112Y-118719204D02*
X160280796Y-119084888D01*
X144423224Y-106762563D02*
X142443325Y-108742462D01*
X142443325Y-108742462D02*
X143857538Y-110156675D01*
X143857538Y-110156675D02*
X145837437Y-108176776D01*
X145837437Y-108176776D02*
X144423224Y-106762563D01*
X199000000Y-56200000D02*
X197000000Y-56200000D01*
X199000000Y-59000000D02*
X199000000Y-56200000D01*
X197000000Y-59000000D02*
X199000000Y-59000000D01*
X197000000Y-56200000D02*
X197000000Y-59000000D01*
X165510000Y-68049721D02*
X165510000Y-68375279D01*
X164490000Y-68049721D02*
X164490000Y-68375279D01*
X166490000Y-68049721D02*
X166490000Y-68375279D01*
X167510000Y-68049721D02*
X167510000Y-68375279D01*
X154260000Y-68087221D02*
X154260000Y-68412779D01*
X153240000Y-68087221D02*
X153240000Y-68412779D01*
X151490000Y-68087221D02*
X151490000Y-68412779D01*
X152510000Y-68087221D02*
X152510000Y-68412779D01*
X163510000Y-68049721D02*
X163510000Y-68375279D01*
X162490000Y-68049721D02*
X162490000Y-68375279D01*
X154990000Y-68087221D02*
X154990000Y-68412779D01*
X156010000Y-68087221D02*
X156010000Y-68412779D01*
X154990000Y-71662779D02*
X154990000Y-71337221D01*
X156010000Y-71662779D02*
X156010000Y-71337221D01*
X162490000Y-71700279D02*
X162490000Y-71374721D01*
X163510000Y-71700279D02*
X163510000Y-71374721D01*
X167354478Y-95124273D02*
X167124273Y-95354478D01*
X168075727Y-95845522D02*
X167845522Y-96075727D01*
X153155825Y-104982074D02*
X152925620Y-104751869D01*
X153877074Y-104260825D02*
X153646869Y-104030620D01*
X152012825Y-106061574D02*
X151782620Y-105831369D01*
X152734074Y-105340325D02*
X152503869Y-105110120D01*
X158124273Y-115245522D02*
X158354478Y-115475727D01*
X158845522Y-114524273D02*
X159075727Y-114754478D01*
X198510000Y-54362779D02*
X198510000Y-54037221D01*
X197490000Y-54362779D02*
X197490000Y-54037221D01*
X172750000Y-106180000D02*
X173750000Y-106180000D01*
X172750000Y-102820000D02*
X173750000Y-102820000D01*
X177720000Y-65700000D02*
X177720000Y-64700000D01*
X181080000Y-65700000D02*
X181080000Y-64700000D01*
X188280000Y-65700000D02*
X188280000Y-64700000D01*
X184920000Y-65700000D02*
X184920000Y-64700000D01*
X199763000Y-71085500D02*
X198763000Y-71085500D01*
X199763000Y-67725500D02*
X198763000Y-67725500D01*
X177720000Y-124900000D02*
X177720000Y-125900000D01*
X181080000Y-124900000D02*
X181080000Y-125900000D01*
X187600000Y-61360000D02*
X184150000Y-61360000D01*
X187600000Y-61360000D02*
X189550000Y-61360000D01*
X187600000Y-56240000D02*
X185650000Y-56240000D01*
X187600000Y-56240000D02*
X189550000Y-56240000D01*
X158250478Y-110649273D02*
X158020273Y-110879478D01*
X158971727Y-111370522D02*
X158741522Y-111600727D01*
X157765227Y-110227522D02*
X157535022Y-110457727D01*
X157043978Y-109506273D02*
X156813773Y-109736478D01*
X155837478Y-108363273D02*
X155607273Y-108593478D01*
X156558727Y-109084522D02*
X156328522Y-109314727D01*
X158172325Y-108347574D02*
X157942120Y-108117369D01*
X158893574Y-107626325D02*
X158663369Y-107396120D01*
M02*
