M48
; DRILL file {KiCad 5.1.5} date 2020年04月18日 星期六 05时12分55秒
; FORMAT={-:-/ absolute / inch / decimal}
; #@! TF.CreationDate,2020-04-18T05:12:55+00:00
; #@! TF.GenerationSoftware,Kicad,Pcbnew,5.1.5
FMAT,2
INCH
T1C0.0120
T2C0.0197
T3C0.0236
T4C0.0315
T5C0.0320
T6C0.0350
T7C0.0362
T8C0.0394
T9C0.0472
T10C0.0618
T11C0.0906
T12C0.1260
T13C0.0236
T14C0.0394
T15C0.1280
%
G90
G05
T1
X4.4325Y-3.3975
X4.4975Y-3.42
X4.4981Y-3.3592
X4.584Y-3.305
X4.6Y-3.485
X4.6134Y-3.2989
X4.6427Y-3.3056
X4.685Y-3.4
X4.775Y-2.2875
X4.8075Y-4.0425
X4.86Y-4.53
X4.863Y-4.5599
X4.865Y-4.59
X4.8925Y-3.6275
X4.925Y-4.53
X4.93Y-4.59
X4.94Y-3.8825
X4.96Y-4.5525
X5.0275Y-2.2825
X5.04Y-4.4675
X5.0525Y-3.9225
X5.0875Y-4.895
X5.195Y-4.895
X5.215Y-2.81
X5.215Y-2.9225
X5.225Y-3.415
X5.225Y-3.5025
X5.235Y-4.4675
X5.27Y-3.5025
X5.27Y-3.5475
X5.3102Y-3.4573
X5.345Y-3.5025
X5.36Y-4.21
X5.3611Y-3.4064
X5.3625Y-3.365
X5.3968Y-3.5242
X5.4225Y-4.4675
X5.432Y-3.519
X5.4343Y-3.6181
X5.4475Y-5.0375
X5.475Y-5.0225
X5.4875Y-4.993
X5.5025Y-4.939
X5.509Y-3.555
X5.5125Y-3.9575
X5.518Y-3.4568
X5.52Y-4.5625
X5.5245Y-4.87
X5.5245Y-4.905
X5.528Y-3.5308
X5.5314Y-3.6248
X5.5375Y-5.08
X5.547Y-3.554
X5.5475Y-3.9625
X5.577Y-3.715
X5.5875Y-4.6525
X5.5875Y-4.7475
X5.595Y-3.8775
X5.595Y-4.045
X5.6056Y-3.5824
X5.6075Y-4.3725
X5.6075Y-4.4925
X5.6265Y-4.8225
X5.6268Y-3.6037
X5.6275Y-4.939
X5.63Y-3.245
X5.6325Y-3.2975
X5.635Y-5.08
X5.645Y-3.9625
X5.6725Y-3.8425
X5.6809Y-4.9066
X5.6825Y-4.0275
X5.685Y-3.9625
X5.6879Y-3.6459
X5.695Y-5.1
X5.705Y-4.9325
X5.71Y-5.0725
X5.7196Y-4.8519
X5.7225Y-3.865
X5.7238Y-3.6412
X5.727Y-5.0475
X5.7275Y-4.2275
X5.7347Y-3.9675
X5.7475Y-5.001
X5.751Y-3.667
X5.755Y-4.1275
X5.7635Y-4.865
X5.775Y-4.2075
X5.7786Y-3.6496
X5.785Y-3.17
X5.785Y-5.001
X5.7862Y-4.0788
X5.79Y-4.1725
X5.795Y-4.8691
X5.807Y-4.7628
X5.82Y-5.001
X5.8327Y-4.0348
X5.8387Y-3.7592
X5.865Y-4.355
X5.8739Y-4.9236
X5.8747Y-4.9536
X5.8747Y-4.99
X5.8747Y-5.02
X5.8775Y-3.5425
X5.8795Y-3.7175
X5.885Y-3.831
X5.885Y-4.2275
X5.885Y-4.7275
X5.89Y-3.9825
X5.905Y-3.57
X5.905Y-4.18
X5.925Y-3.415
X5.925Y-3.769
X5.926Y-3.346
X5.9274Y-3.6705
X5.9275Y-4.775
X5.9287Y-4.9238
X5.9407Y-4.9531
X5.95Y-3.2525
X5.9525Y-4.1965
X5.9527Y-4.985
X5.957Y-3.917
X5.9575Y-4.7761
X5.9575Y-4.1
X5.966Y-3.8194
X5.9693Y-4.2541
X5.97Y-3.89
X5.975Y-5.01
X5.982Y-2.941
X5.984Y-2.763
X5.9846Y-4.4671
X5.9866Y-4.2822
X5.9875Y-4.7761
X5.988Y-3.794
X5.99Y-4.8661
X6.0Y-4.335
X6.0123Y-3.7688
X6.0125Y-3.4525
X6.0225Y-4.775
X6.023Y-3.997
X6.044Y-3.972
X6.05Y-3.545
X6.0525Y-3.4975
X6.053Y-4.3818
X6.07Y-4.6225
X6.0715Y-4.96
X6.077Y-3.938
X6.0819Y-4.691
X6.0825Y-3.7
X6.085Y-4.735
X6.0875Y-4.1125
X6.111Y-3.146
X6.1175Y-2.899
X6.1175Y-3.93
X6.1271Y-4.3379
X6.1273Y-4.9874
X6.1275Y-4.455
X6.13Y-4.9575
X6.1325Y-5.0175
X6.1325Y-5.0475
X6.135Y-4.8975
X6.1375Y-3.4375
X6.139Y-5.0768
X6.1571Y-4.3679
X6.16Y-3.76
X6.1625Y-3.3325
X6.1625Y-3.9125
X6.17Y-4.7325
X6.18Y-4.1975
X6.1875Y-3.7725
X6.1875Y-4.035
X6.1925Y-4.42
X6.2Y-3.9275
X6.2Y-4.53
X6.2222Y-3.8487
X6.225Y-4.0
X6.2275Y-4.8975
X6.245Y-3.8825
X6.25Y-3.48
X6.25Y-4.7025
X6.25Y-4.7625
X6.255Y-4.62
X6.2559Y-4.0959
X6.2725Y-3.9025
X6.2933Y-3.7706
X6.295Y-3.965
X6.2952Y-4.8802
X6.2975Y-3.3325
X6.3075Y-4.165
X6.3262Y-5.0157
X6.33Y-4.875
X6.3325Y-4.0225
X6.3327Y-4.9049
X6.3333Y-4.94
X6.3333Y-4.9775
X6.3375Y-4.0725
X6.35Y-4.125
X6.3625Y-4.0375
X6.368Y-3.147
X6.379Y-4.4935
X6.3873Y-4.9375
X6.3902Y-4.9674
X6.3927Y-4.9973
X6.4025Y-3.55
X6.42Y-2.899
X6.42Y-4.8755
X6.42Y-4.9055
X6.4232Y-3.9057
X6.428Y-4.9344
X6.43Y-4.9943
X6.4301Y-4.9643
X6.4411Y-4.6473
X6.4625Y-3.83
X6.467Y-2.785
X6.4673Y-3.5173
X6.4748Y-4.9325
X6.4748Y-4.9925
X6.475Y-4.9625
X6.5147Y-3.4897
X6.5325Y-4.196
X6.5471Y-3.4771
X6.555Y-3.7325
X6.5575Y-3.805
X6.5784Y-4.96
X6.5784Y-4.99
X6.5785Y-4.9295
X6.5875Y-3.7
X6.59Y-4.3075
X6.6075Y-3.24
X6.6275Y-4.175
X6.6535Y-4.0945
X6.6755Y-4.175
X6.6898Y-3.9994
X6.7Y-3.65
X6.715Y-4.4075
X6.7556Y-3.4665
X6.775Y-3.9025
X6.785Y-3.4805
X6.7875Y-4.425
X6.8012Y-4.0059
X6.82Y-3.495
X6.8248Y-4.2977
X6.8325Y-4.9145
X6.8531Y-3.8459
X6.8625Y-3.4375
X6.8625Y-4.2075
X6.8675Y-4.8995
X6.8825Y-3.84
X6.8949Y-4.2086
X6.8996Y-4.0945
X6.9004Y-3.9953
X6.9025Y-5.035
X6.9127Y-3.8388
X6.9216Y-4.195
X6.9275Y-3.065
X6.9325Y-2.325
X6.9325Y-2.715
X6.9375Y-4.42
X6.9406Y-3.865
X6.9475Y-4.8184
X6.9516Y-4.1951
X6.96Y-4.4563
X6.965Y-4.3875
X6.9671Y-3.8509
X6.97Y-3.1125
X6.97Y-4.3575
X6.9705Y-3.1425
X6.9775Y-4.8184
X6.98Y-4.2585
X6.9816Y-4.1941
X6.9863Y-2.8875
X6.99Y-4.4563
X6.9925Y-3.835
X7.0075Y-4.8225
X7.011Y-4.25
X7.02Y-4.4563
X7.0325Y-2.4825
X7.0325Y-5.025
X7.0406Y-4.8364
X7.05Y-4.4563
X7.0649Y-4.854
X7.0675Y-4.7464
X7.07Y-2.4925
X7.0721Y-2.8391
X7.0725Y-2.793
X7.0775Y-3.72
X7.08Y-4.4563
X7.085Y-5.005
X7.092Y-2.8881
X7.1075Y-2.84
X7.11Y-2.495
X7.11Y-2.779
X7.11Y-4.4563
X7.115Y-3.89
X7.12Y-4.7464
X7.13Y-4.845
X7.14Y-4.4563
X7.1525Y-2.605
X7.1625Y-2.765
X7.1625Y-2.86
X7.1625Y-4.875
X7.177Y-3.0652
X7.177Y-3.11
X7.189Y-3.1425
X7.205Y-4.0725
X7.2125Y-2.24
X7.215Y-4.3475
X7.2175Y-4.265
X7.2225Y-3.8125
X7.2225Y-3.9475
X7.225Y-2.39
X7.225Y-4.1925
X7.2275Y-3.705
X7.2371Y-4.7344
X7.2375Y-4.4563
X7.2525Y-3.5225
X7.2665Y-4.7224
X7.2675Y-4.4563
X7.2825Y-3.0825
X7.285Y-3.2775
X7.2875Y-2.49
X7.2964Y-4.7104
X7.2975Y-4.4563
X7.3119Y-4.195
X7.33Y-2.4875
X7.365Y-2.49
X7.4Y-3.25
X7.47Y-2.938
X7.47Y-3.06
X7.5123Y-3.3901
X7.515Y-3.42
X7.54Y-3.26
X7.5675Y-3.1075
X7.6195Y-4.3732
X7.6275Y-4.5925
X7.645Y-4.4003
X7.645Y-4.515
X7.88Y-2.815
T2
X7.3465Y-2.7756
X7.3741Y-2.7088
X7.3741Y-2.8424
X7.4409Y-2.6811
X7.4409Y-2.8701
X7.5078Y-2.7088
X7.5078Y-2.8424
X7.5354Y-2.7756
X7.3465Y-5.1378
X7.3741Y-5.071
X7.3741Y-5.2046
X7.4409Y-5.0433
X7.4409Y-5.2323
X7.5078Y-5.071
X7.5078Y-5.2046
X7.5354Y-5.1378
X4.2756Y-2.7559
X4.3033Y-2.6891
X4.3033Y-2.8227
X4.3701Y-2.6614
X4.3701Y-2.8504
X4.4369Y-2.6891
X4.4369Y-2.8227
X4.4646Y-2.7559
X7.7362Y-2.4744
X7.7362Y-2.5236
X7.7362Y-2.5728
X7.7362Y-2.622
X7.7362Y-2.6713
X7.7362Y-2.7205
X7.7362Y-2.7697
X7.7362Y-2.8189
X6.3543Y-5.1417
X6.4035Y-5.1417
X6.4528Y-5.1417
X6.502Y-5.1417
X6.5512Y-5.1417
X6.6004Y-5.1417
X6.6496Y-5.1417
X6.6988Y-5.1417
X6.748Y-5.1417
X6.7972Y-5.1417
X4.2756Y-5.1378
X4.3033Y-5.071
X4.3033Y-5.2046
X4.3701Y-5.0433
X4.3701Y-5.2323
X4.4369Y-5.071
X4.4369Y-5.2046
X4.4646Y-5.1378
X6.4724Y-4.685
X6.5253Y-4.6321
X5.748Y-5.1417
X5.7972Y-5.1417
X5.8465Y-5.1417
X5.8957Y-5.1417
X5.9449Y-5.1417
X5.9941Y-5.1417
X6.0433Y-5.1417
X6.0925Y-5.1417
X6.1417Y-5.1417
X6.1909Y-5.1417
T4
X5.72Y-3.5125
T5
X4.55Y-2.67
X4.55Y-2.745
X4.5935Y-3.3923
T6
X5.9921Y-2.5433
X6.0823Y-2.5433
X6.122Y-2.2835
X6.1622Y-2.3535
X6.2024Y-2.2835
X6.2425Y-2.3535
X6.2827Y-2.2835
X6.3228Y-2.3535
X6.363Y-2.2835
X6.4031Y-2.3535
X6.4421Y-2.5433
X6.5323Y-2.5433
T7
X5.374Y-2.4606
X5.4724Y-2.4606
X5.5512Y-2.4606
X5.6496Y-2.4606
T8
X7.715Y-3.0213
X7.715Y-3.1213
X7.715Y-3.2213
X7.715Y-3.3213
X7.715Y-3.4213
X7.715Y-3.5213
X7.715Y-3.6213
X7.715Y-3.7213
X7.715Y-3.8213
X7.715Y-3.9213
X7.715Y-4.0213
X7.715Y-4.1213
X7.715Y-4.2213
X7.715Y-4.3213
X7.715Y-4.4213
X7.715Y-4.5213
X7.715Y-4.6213
X7.715Y-4.7213
X7.715Y-4.8213
X7.715Y-4.9213
X7.815Y-3.0213
X7.815Y-3.1213
X7.815Y-3.2213
X7.815Y-3.3213
X7.815Y-3.4213
X7.815Y-3.5213
X7.815Y-3.6213
X7.815Y-3.7213
X7.815Y-3.8213
X7.815Y-3.9213
X7.815Y-4.0213
X7.815Y-4.1213
X7.815Y-4.2213
X7.815Y-4.3213
X7.815Y-4.4213
X7.815Y-4.5213
X7.815Y-4.6213
X7.815Y-4.7213
X7.815Y-4.8213
X7.815Y-4.9213
X6.705Y-3.045
X6.705Y-3.145
X6.705Y-3.245
T9
X4.685Y-5.0
X4.835Y-5.0
X4.985Y-5.0
X5.135Y-5.0
X5.285Y-5.0
X7.6535Y-2.102
X7.6535Y-2.252
X4.3276Y-2.2835
X4.5276Y-2.2835
T10
X5.9421Y-2.3185
X6.5823Y-2.3185
T11
X5.2531Y-2.3539
X5.7705Y-2.3539
T12
X7.4409Y-2.7756
X7.4409Y-5.1378
X4.3701Y-2.7559
X4.3701Y-5.1378
T13
X4.7878Y-2.2028
X5.0154Y-2.2028
T14
X6.9902Y-2.126
X7.3051Y-2.126
T15
X6.0122Y-2.1835
X6.5122Y-2.1835
T3
G00X4.7315Y-2.0417
M15
G01X4.7315Y-2.0732
M16
G05
G00X4.7315Y-2.2
M15
G01X4.7315Y-2.2433
M16
G05
G00X5.0717Y-2.0417
M15
G01X5.0717Y-2.0732
M16
G05
G00X5.0717Y-2.2
M15
G01X5.0717Y-2.2433
M16
G05
T0
M30
