G04 #@! TF.GenerationSoftware,KiCad,Pcbnew,5.1.5*
G04 #@! TF.CreationDate,2020-05-11T13:41:00+00:00*
G04 #@! TF.ProjectId,NUC980,4e554339-3830-42e6-9b69-6361645f7063,rev?*
G04 #@! TF.SameCoordinates,Original*
G04 #@! TF.FileFunction,Legend,Top*
G04 #@! TF.FilePolarity,Positive*
%FSLAX46Y46*%
G04 Gerber Fmt 4.6, Leading zero omitted, Abs format (unit mm)*
G04 Created by KiCad (PCBNEW 5.1.5) date 2020-05-11 13:41:00*
%MOMM*%
%LPD*%
G04 APERTURE LIST*
%ADD10C,0.150000*%
%ADD11C,0.120000*%
G04 APERTURE END LIST*
D10*
X128733704Y-112339380D02*
X128733704Y-111339380D01*
X129114657Y-111339380D01*
X129209895Y-111387000D01*
X129257514Y-111434619D01*
X129305133Y-111529857D01*
X129305133Y-111672714D01*
X129257514Y-111767952D01*
X129209895Y-111815571D01*
X129114657Y-111863190D01*
X128733704Y-111863190D01*
X130257514Y-111387000D02*
X130162276Y-111339380D01*
X130019419Y-111339380D01*
X129876561Y-111387000D01*
X129781323Y-111482238D01*
X129733704Y-111577476D01*
X129686085Y-111767952D01*
X129686085Y-111910809D01*
X129733704Y-112101285D01*
X129781323Y-112196523D01*
X129876561Y-112291761D01*
X130019419Y-112339380D01*
X130114657Y-112339380D01*
X130257514Y-112291761D01*
X130305133Y-112244142D01*
X130305133Y-111910809D01*
X130114657Y-111910809D01*
X131209895Y-111339380D02*
X130733704Y-111339380D01*
X130686085Y-111815571D01*
X130733704Y-111767952D01*
X130828942Y-111720333D01*
X131067038Y-111720333D01*
X131162276Y-111767952D01*
X131209895Y-111815571D01*
X131257514Y-111910809D01*
X131257514Y-112148904D01*
X131209895Y-112244142D01*
X131162276Y-112291761D01*
X131067038Y-112339380D01*
X130828942Y-112339380D01*
X130733704Y-112291761D01*
X130686085Y-112244142D01*
X126828704Y-114930180D02*
X126828704Y-113930180D01*
X127209657Y-113930180D01*
X127304895Y-113977800D01*
X127352514Y-114025419D01*
X127400133Y-114120657D01*
X127400133Y-114263514D01*
X127352514Y-114358752D01*
X127304895Y-114406371D01*
X127209657Y-114453990D01*
X126828704Y-114453990D01*
X128352514Y-113977800D02*
X128257276Y-113930180D01*
X128114419Y-113930180D01*
X127971561Y-113977800D01*
X127876323Y-114073038D01*
X127828704Y-114168276D01*
X127781085Y-114358752D01*
X127781085Y-114501609D01*
X127828704Y-114692085D01*
X127876323Y-114787323D01*
X127971561Y-114882561D01*
X128114419Y-114930180D01*
X128209657Y-114930180D01*
X128352514Y-114882561D01*
X128400133Y-114834942D01*
X128400133Y-114501609D01*
X128209657Y-114501609D01*
X128733466Y-113930180D02*
X129352514Y-113930180D01*
X129019180Y-114311133D01*
X129162038Y-114311133D01*
X129257276Y-114358752D01*
X129304895Y-114406371D01*
X129352514Y-114501609D01*
X129352514Y-114739704D01*
X129304895Y-114834942D01*
X129257276Y-114882561D01*
X129162038Y-114930180D01*
X128876323Y-114930180D01*
X128781085Y-114882561D01*
X128733466Y-114834942D01*
X127006504Y-117520980D02*
X127006504Y-116520980D01*
X127387457Y-116520980D01*
X127482695Y-116568600D01*
X127530314Y-116616219D01*
X127577933Y-116711457D01*
X127577933Y-116854314D01*
X127530314Y-116949552D01*
X127482695Y-116997171D01*
X127387457Y-117044790D01*
X127006504Y-117044790D01*
X128530314Y-116568600D02*
X128435076Y-116520980D01*
X128292219Y-116520980D01*
X128149361Y-116568600D01*
X128054123Y-116663838D01*
X128006504Y-116759076D01*
X127958885Y-116949552D01*
X127958885Y-117092409D01*
X128006504Y-117282885D01*
X128054123Y-117378123D01*
X128149361Y-117473361D01*
X128292219Y-117520980D01*
X128387457Y-117520980D01*
X128530314Y-117473361D01*
X128577933Y-117425742D01*
X128577933Y-117092409D01*
X128387457Y-117092409D01*
X129530314Y-117520980D02*
X128958885Y-117520980D01*
X129244600Y-117520980D02*
X129244600Y-116520980D01*
X129149361Y-116663838D01*
X129054123Y-116759076D01*
X128958885Y-116806695D01*
X127031904Y-120010180D02*
X127031904Y-119010180D01*
X127412857Y-119010180D01*
X127508095Y-119057800D01*
X127555714Y-119105419D01*
X127603333Y-119200657D01*
X127603333Y-119343514D01*
X127555714Y-119438752D01*
X127508095Y-119486371D01*
X127412857Y-119533990D01*
X127031904Y-119533990D01*
X128555714Y-119057800D02*
X128460476Y-119010180D01*
X128317619Y-119010180D01*
X128174761Y-119057800D01*
X128079523Y-119153038D01*
X128031904Y-119248276D01*
X127984285Y-119438752D01*
X127984285Y-119581609D01*
X128031904Y-119772085D01*
X128079523Y-119867323D01*
X128174761Y-119962561D01*
X128317619Y-120010180D01*
X128412857Y-120010180D01*
X128555714Y-119962561D01*
X128603333Y-119914942D01*
X128603333Y-119581609D01*
X128412857Y-119581609D01*
X129222380Y-119010180D02*
X129317619Y-119010180D01*
X129412857Y-119057800D01*
X129460476Y-119105419D01*
X129508095Y-119200657D01*
X129555714Y-119391133D01*
X129555714Y-119629228D01*
X129508095Y-119819704D01*
X129460476Y-119914942D01*
X129412857Y-119962561D01*
X129317619Y-120010180D01*
X129222380Y-120010180D01*
X129127142Y-119962561D01*
X129079523Y-119914942D01*
X129031904Y-119819704D01*
X128984285Y-119629228D01*
X128984285Y-119391133D01*
X129031904Y-119200657D01*
X129079523Y-119105419D01*
X129127142Y-119057800D01*
X129222380Y-119010180D01*
X192730380Y-108512190D02*
X191730380Y-108512190D01*
X192730380Y-107940761D01*
X191730380Y-107940761D01*
X191730380Y-107464571D02*
X192539904Y-107464571D01*
X192635142Y-107416952D01*
X192682761Y-107369333D01*
X192730380Y-107274095D01*
X192730380Y-107083619D01*
X192682761Y-106988380D01*
X192635142Y-106940761D01*
X192539904Y-106893142D01*
X191730380Y-106893142D01*
X192635142Y-105845523D02*
X192682761Y-105893142D01*
X192730380Y-106036000D01*
X192730380Y-106131238D01*
X192682761Y-106274095D01*
X192587523Y-106369333D01*
X192492285Y-106416952D01*
X192301809Y-106464571D01*
X192158952Y-106464571D01*
X191968476Y-106416952D01*
X191873238Y-106369333D01*
X191778000Y-106274095D01*
X191730380Y-106131238D01*
X191730380Y-106036000D01*
X191778000Y-105893142D01*
X191825619Y-105845523D01*
X192730380Y-105369333D02*
X192730380Y-105178857D01*
X192682761Y-105083619D01*
X192635142Y-105036000D01*
X192492285Y-104940761D01*
X192301809Y-104893142D01*
X191920857Y-104893142D01*
X191825619Y-104940761D01*
X191778000Y-104988380D01*
X191730380Y-105083619D01*
X191730380Y-105274095D01*
X191778000Y-105369333D01*
X191825619Y-105416952D01*
X191920857Y-105464571D01*
X192158952Y-105464571D01*
X192254190Y-105416952D01*
X192301809Y-105369333D01*
X192349428Y-105274095D01*
X192349428Y-105083619D01*
X192301809Y-104988380D01*
X192254190Y-104940761D01*
X192158952Y-104893142D01*
X192158952Y-104321714D02*
X192111333Y-104416952D01*
X192063714Y-104464571D01*
X191968476Y-104512190D01*
X191920857Y-104512190D01*
X191825619Y-104464571D01*
X191778000Y-104416952D01*
X191730380Y-104321714D01*
X191730380Y-104131238D01*
X191778000Y-104036000D01*
X191825619Y-103988380D01*
X191920857Y-103940761D01*
X191968476Y-103940761D01*
X192063714Y-103988380D01*
X192111333Y-104036000D01*
X192158952Y-104131238D01*
X192158952Y-104321714D01*
X192206571Y-104416952D01*
X192254190Y-104464571D01*
X192349428Y-104512190D01*
X192539904Y-104512190D01*
X192635142Y-104464571D01*
X192682761Y-104416952D01*
X192730380Y-104321714D01*
X192730380Y-104131238D01*
X192682761Y-104036000D01*
X192635142Y-103988380D01*
X192539904Y-103940761D01*
X192349428Y-103940761D01*
X192254190Y-103988380D01*
X192206571Y-104036000D01*
X192158952Y-104131238D01*
X191730380Y-103321714D02*
X191730380Y-103226476D01*
X191778000Y-103131238D01*
X191825619Y-103083619D01*
X191920857Y-103036000D01*
X192111333Y-102988380D01*
X192349428Y-102988380D01*
X192539904Y-103036000D01*
X192635142Y-103083619D01*
X192682761Y-103131238D01*
X192730380Y-103226476D01*
X192730380Y-103321714D01*
X192682761Y-103416952D01*
X192635142Y-103464571D01*
X192539904Y-103512190D01*
X192349428Y-103559809D01*
X192111333Y-103559809D01*
X191920857Y-103512190D01*
X191825619Y-103464571D01*
X191778000Y-103416952D01*
X191730380Y-103321714D01*
X192730380Y-101321714D02*
X192730380Y-101797904D01*
X191730380Y-101797904D01*
X191825619Y-100274095D02*
X191778000Y-100226476D01*
X191730380Y-100131238D01*
X191730380Y-99893142D01*
X191778000Y-99797904D01*
X191825619Y-99750285D01*
X191920857Y-99702666D01*
X192016095Y-99702666D01*
X192158952Y-99750285D01*
X192730380Y-100321714D01*
X192730380Y-99702666D01*
X191730380Y-99083619D02*
X191730380Y-98988380D01*
X191778000Y-98893142D01*
X191825619Y-98845523D01*
X191920857Y-98797904D01*
X192111333Y-98750285D01*
X192349428Y-98750285D01*
X192539904Y-98797904D01*
X192635142Y-98845523D01*
X192682761Y-98893142D01*
X192730380Y-98988380D01*
X192730380Y-99083619D01*
X192682761Y-99178857D01*
X192635142Y-99226476D01*
X192539904Y-99274095D01*
X192349428Y-99321714D01*
X192111333Y-99321714D01*
X191920857Y-99274095D01*
X191825619Y-99226476D01*
X191778000Y-99178857D01*
X191730380Y-99083619D01*
X191825619Y-98369333D02*
X191778000Y-98321714D01*
X191730380Y-98226476D01*
X191730380Y-97988380D01*
X191778000Y-97893142D01*
X191825619Y-97845523D01*
X191920857Y-97797904D01*
X192016095Y-97797904D01*
X192158952Y-97845523D01*
X192730380Y-98416952D01*
X192730380Y-97797904D01*
X191730380Y-97178857D02*
X191730380Y-97083619D01*
X191778000Y-96988380D01*
X191825619Y-96940761D01*
X191920857Y-96893142D01*
X192111333Y-96845523D01*
X192349428Y-96845523D01*
X192539904Y-96893142D01*
X192635142Y-96940761D01*
X192682761Y-96988380D01*
X192730380Y-97083619D01*
X192730380Y-97178857D01*
X192682761Y-97274095D01*
X192635142Y-97321714D01*
X192539904Y-97369333D01*
X192349428Y-97416952D01*
X192111333Y-97416952D01*
X191920857Y-97369333D01*
X191825619Y-97321714D01*
X191778000Y-97274095D01*
X191730380Y-97178857D01*
X191730380Y-96226476D02*
X191730380Y-96131238D01*
X191778000Y-96036000D01*
X191825619Y-95988380D01*
X191920857Y-95940761D01*
X192111333Y-95893142D01*
X192349428Y-95893142D01*
X192539904Y-95940761D01*
X192635142Y-95988380D01*
X192682761Y-96036000D01*
X192730380Y-96131238D01*
X192730380Y-96226476D01*
X192682761Y-96321714D01*
X192635142Y-96369333D01*
X192539904Y-96416952D01*
X192349428Y-96464571D01*
X192111333Y-96464571D01*
X191920857Y-96416952D01*
X191825619Y-96369333D01*
X191778000Y-96321714D01*
X191730380Y-96226476D01*
X191730380Y-94988380D02*
X191730380Y-95464571D01*
X192206571Y-95512190D01*
X192158952Y-95464571D01*
X192111333Y-95369333D01*
X192111333Y-95131238D01*
X192158952Y-95036000D01*
X192206571Y-94988380D01*
X192301809Y-94940761D01*
X192539904Y-94940761D01*
X192635142Y-94988380D01*
X192682761Y-95036000D01*
X192730380Y-95131238D01*
X192730380Y-95369333D01*
X192682761Y-95464571D01*
X192635142Y-95512190D01*
X192730380Y-93988380D02*
X192730380Y-94559809D01*
X192730380Y-94274095D02*
X191730380Y-94274095D01*
X191873238Y-94369333D01*
X191968476Y-94464571D01*
X192016095Y-94559809D01*
X192730380Y-93036000D02*
X192730380Y-93607428D01*
X192730380Y-93321714D02*
X191730380Y-93321714D01*
X191873238Y-93416952D01*
X191968476Y-93512190D01*
X192016095Y-93607428D01*
X192730380Y-91274095D02*
X192254190Y-91607428D01*
X192730380Y-91845523D02*
X191730380Y-91845523D01*
X191730380Y-91464571D01*
X191778000Y-91369333D01*
X191825619Y-91321714D01*
X191920857Y-91274095D01*
X192063714Y-91274095D01*
X192158952Y-91321714D01*
X192206571Y-91369333D01*
X192254190Y-91464571D01*
X192254190Y-91845523D01*
X192682761Y-90464571D02*
X192730380Y-90559809D01*
X192730380Y-90750285D01*
X192682761Y-90845523D01*
X192587523Y-90893142D01*
X192206571Y-90893142D01*
X192111333Y-90845523D01*
X192063714Y-90750285D01*
X192063714Y-90559809D01*
X192111333Y-90464571D01*
X192206571Y-90416952D01*
X192301809Y-90416952D01*
X192397047Y-90893142D01*
X192063714Y-90083619D02*
X192730380Y-89845523D01*
X192063714Y-89607428D01*
X192730380Y-87940761D02*
X192730380Y-88512190D01*
X192730380Y-88226476D02*
X191730380Y-88226476D01*
X191873238Y-88321714D01*
X191968476Y-88416952D01*
X192016095Y-88512190D01*
X192635142Y-87512190D02*
X192682761Y-87464571D01*
X192730380Y-87512190D01*
X192682761Y-87559809D01*
X192635142Y-87512190D01*
X192730380Y-87512190D01*
X191730380Y-86845523D02*
X191730380Y-86750285D01*
X191778000Y-86655047D01*
X191825619Y-86607428D01*
X191920857Y-86559809D01*
X192111333Y-86512190D01*
X192349428Y-86512190D01*
X192539904Y-86559809D01*
X192635142Y-86607428D01*
X192682761Y-86655047D01*
X192730380Y-86750285D01*
X192730380Y-86845523D01*
X192682761Y-86940761D01*
X192635142Y-86988380D01*
X192539904Y-87036000D01*
X192349428Y-87083619D01*
X192111333Y-87083619D01*
X191920857Y-87036000D01*
X191825619Y-86988380D01*
X191778000Y-86940761D01*
X191730380Y-86845523D01*
X123809952Y-122277166D02*
X124286142Y-122277166D01*
X123714714Y-122562880D02*
X124048047Y-121562880D01*
X124381380Y-122562880D01*
X125809952Y-122039071D02*
X125952809Y-122086690D01*
X126000428Y-122134309D01*
X126048047Y-122229547D01*
X126048047Y-122372404D01*
X126000428Y-122467642D01*
X125952809Y-122515261D01*
X125857571Y-122562880D01*
X125476619Y-122562880D01*
X125476619Y-121562880D01*
X125809952Y-121562880D01*
X125905190Y-121610500D01*
X125952809Y-121658119D01*
X126000428Y-121753357D01*
X126000428Y-121848595D01*
X125952809Y-121943833D01*
X125905190Y-121991452D01*
X125809952Y-122039071D01*
X125476619Y-122039071D01*
X127095666Y-121562880D02*
X127667095Y-121562880D01*
X127381380Y-122562880D02*
X127381380Y-121562880D01*
X127905190Y-121562880D02*
X128571857Y-122562880D01*
X128571857Y-121562880D02*
X127905190Y-122562880D01*
X128952809Y-122562880D02*
X128952809Y-121562880D01*
X129190904Y-121562880D01*
X129333761Y-121610500D01*
X129429000Y-121705738D01*
X129476619Y-121800976D01*
X129524238Y-121991452D01*
X129524238Y-122134309D01*
X129476619Y-122324785D01*
X129429000Y-122420023D01*
X129333761Y-122515261D01*
X129190904Y-122562880D01*
X128952809Y-122562880D01*
X131286142Y-122562880D02*
X130952809Y-122086690D01*
X130714714Y-122562880D02*
X130714714Y-121562880D01*
X131095666Y-121562880D01*
X131190904Y-121610500D01*
X131238523Y-121658119D01*
X131286142Y-121753357D01*
X131286142Y-121896214D01*
X131238523Y-121991452D01*
X131190904Y-122039071D01*
X131095666Y-122086690D01*
X130714714Y-122086690D01*
X131619476Y-121562880D02*
X132286142Y-122562880D01*
X132286142Y-121562880D02*
X131619476Y-122562880D01*
X132667095Y-122562880D02*
X132667095Y-121562880D01*
X132905190Y-121562880D01*
X133048047Y-121610500D01*
X133143285Y-121705738D01*
X133190904Y-121800976D01*
X133238523Y-121991452D01*
X133238523Y-122134309D01*
X133190904Y-122324785D01*
X133143285Y-122420023D01*
X133048047Y-122515261D01*
X132905190Y-122562880D01*
X132667095Y-122562880D01*
X134952809Y-121610500D02*
X134857571Y-121562880D01*
X134714714Y-121562880D01*
X134571857Y-121610500D01*
X134476619Y-121705738D01*
X134429000Y-121800976D01*
X134381380Y-121991452D01*
X134381380Y-122134309D01*
X134429000Y-122324785D01*
X134476619Y-122420023D01*
X134571857Y-122515261D01*
X134714714Y-122562880D01*
X134809952Y-122562880D01*
X134952809Y-122515261D01*
X135000428Y-122467642D01*
X135000428Y-122134309D01*
X134809952Y-122134309D01*
X135429000Y-122562880D02*
X135429000Y-121562880D01*
X136000428Y-122562880D01*
X136000428Y-121562880D01*
X136476619Y-122562880D02*
X136476619Y-121562880D01*
X136714714Y-121562880D01*
X136857571Y-121610500D01*
X136952809Y-121705738D01*
X137000428Y-121800976D01*
X137048047Y-121991452D01*
X137048047Y-122134309D01*
X137000428Y-122324785D01*
X136952809Y-122420023D01*
X136857571Y-122515261D01*
X136714714Y-122562880D01*
X136476619Y-122562880D01*
X114617547Y-61602928D02*
X115379452Y-61602928D01*
X114998500Y-61983880D02*
X114998500Y-61221976D01*
D11*
X181130000Y-133561000D02*
X181130000Y-128040000D01*
X179120000Y-134140000D02*
X179120000Y-133561000D01*
X178470000Y-133561000D02*
X179120000Y-133561000D01*
X178470000Y-133561000D02*
X178470000Y-128040000D01*
X178470000Y-128040000D02*
X179180000Y-128040000D01*
X180420000Y-133561000D02*
X181130000Y-133561000D01*
X180420000Y-128040000D02*
X181130000Y-128040000D01*
X183820000Y-128040000D02*
X184530000Y-128040000D01*
X183820000Y-133561000D02*
X184530000Y-133561000D01*
X181870000Y-128040000D02*
X182580000Y-128040000D01*
X181870000Y-133561000D02*
X181870000Y-128040000D01*
X181870000Y-133561000D02*
X182520000Y-133561000D01*
X182520000Y-134140000D02*
X182520000Y-133561000D01*
X184530000Y-133561000D02*
X184530000Y-128040000D01*
X171960000Y-71023752D02*
X171960000Y-68251248D01*
X168540000Y-71023752D02*
X168540000Y-68251248D01*
X146790000Y-71023752D02*
X146790000Y-68251248D01*
X150210000Y-71023752D02*
X150210000Y-68251248D01*
X141995522Y-80524273D02*
X142225727Y-80754478D01*
X141274273Y-81245522D02*
X141504478Y-81475727D01*
X137254478Y-85725727D02*
X137024273Y-85495522D01*
X137975727Y-85004478D02*
X137745522Y-84774273D01*
X174153922Y-113060000D02*
X174671078Y-113060000D01*
X174153922Y-111640000D02*
X174671078Y-111640000D01*
X174399721Y-110860000D02*
X174725279Y-110860000D01*
X174399721Y-109840000D02*
X174725279Y-109840000D01*
X155924273Y-89154478D02*
X156154478Y-88924273D01*
X156645522Y-89875727D02*
X156875727Y-89645522D01*
X160875727Y-89554478D02*
X160645522Y-89324273D01*
X160154478Y-90275727D02*
X159924273Y-90045522D01*
X117253922Y-79473500D02*
X117771078Y-79473500D01*
X117253922Y-78053500D02*
X117771078Y-78053500D01*
X110000000Y-63265000D02*
X107715000Y-63265000D01*
X107715000Y-63265000D02*
X107715000Y-64735000D01*
X107715000Y-64735000D02*
X110000000Y-64735000D01*
X139927000Y-134479500D02*
X139927000Y-132194500D01*
X138457000Y-134479500D02*
X139927000Y-134479500D01*
X138457000Y-132194500D02*
X138457000Y-134479500D01*
X141441500Y-132194500D02*
X141441500Y-134479500D01*
X141441500Y-134479500D02*
X142911500Y-134479500D01*
X142911500Y-134479500D02*
X142911500Y-132194500D01*
X171310000Y-55141422D02*
X171310000Y-55658578D01*
X169890000Y-55141422D02*
X169890000Y-55658578D01*
X165582117Y-98621975D02*
X165947801Y-98256291D01*
X164578025Y-97617883D02*
X164943709Y-97252199D01*
X150740000Y-49935000D02*
X167380000Y-49935000D01*
X150740000Y-49935000D02*
X150740000Y-57640000D01*
X167380000Y-49935000D02*
X167380000Y-57640000D01*
X150740000Y-65815000D02*
X167380000Y-65815000D01*
X150740000Y-65815000D02*
X150740000Y-60140000D01*
X167380000Y-65815000D02*
X167380000Y-60140000D01*
X150500000Y-57500000D02*
X150000000Y-58000000D01*
X150000000Y-58000000D02*
X150000000Y-57000000D01*
X150000000Y-57000000D02*
X150500000Y-57500000D01*
X144000000Y-63760000D02*
X143000000Y-63760000D01*
X147250000Y-50010000D02*
X147250000Y-49510000D01*
X146250000Y-50010000D02*
X147250000Y-50010000D01*
X146250000Y-58010000D02*
X146250000Y-50010000D01*
X146250000Y-63510000D02*
X146250000Y-61510000D01*
X133750000Y-63510000D02*
X146250000Y-63510000D01*
X133750000Y-61510000D02*
X133750000Y-63510000D01*
X133750000Y-50010000D02*
X133750000Y-58010000D01*
X132750000Y-50010000D02*
X133750000Y-50010000D01*
X132750000Y-49510000D02*
X132750000Y-50010000D01*
X147250000Y-49510000D02*
X132750000Y-49510000D01*
X120030000Y-49660000D02*
X128970000Y-49660000D01*
X120030000Y-55170000D02*
X120030000Y-53370000D01*
X120030000Y-49660000D02*
X120030000Y-51120000D01*
X128970000Y-49660000D02*
X128970000Y-51120000D01*
X128970000Y-55170000D02*
X128970000Y-53370000D01*
X117650000Y-59310000D02*
X117650000Y-49890000D01*
X117650000Y-49890000D02*
X107270000Y-49890000D01*
X107270000Y-49890000D02*
X107270000Y-59310000D01*
X117650000Y-59310000D02*
X116050000Y-59310000D01*
X107270000Y-59310000D02*
X108870000Y-59310000D01*
X113950000Y-59310000D02*
X110970000Y-59310000D01*
X117650000Y-53200000D02*
X107270000Y-53200000D01*
X114700000Y-60600000D02*
X115000000Y-60000000D01*
X115000000Y-60000000D02*
X115300000Y-60600000D01*
X115300000Y-60600000D02*
X114700000Y-60600000D01*
D10*
X189150000Y-63100000D02*
X189150000Y-55800000D01*
X177850000Y-64500000D02*
X174650000Y-64500000D01*
X172650000Y-55700000D02*
X172650000Y-64500000D01*
X172650000Y-53200000D02*
X172650000Y-50000000D01*
X172650000Y-50000000D02*
X189150000Y-50000000D01*
X189150000Y-50000000D02*
X189150000Y-53200000D01*
D11*
X145750000Y-129450000D02*
X145750000Y-129150000D01*
X145750000Y-129150000D02*
X145250000Y-129150000D01*
X151625000Y-129740000D02*
X145460000Y-129740000D01*
X145460000Y-129740000D02*
X145460000Y-129440000D01*
X145460000Y-129440000D02*
X144390000Y-129440000D01*
X144390000Y-129440000D02*
X144390000Y-135160000D01*
X144390000Y-135160000D02*
X151625000Y-135160000D01*
X151625000Y-129740000D02*
X157790000Y-129740000D01*
X157790000Y-129740000D02*
X157790000Y-129440000D01*
X157790000Y-129440000D02*
X158860000Y-129440000D01*
X158860000Y-129440000D02*
X158860000Y-135160000D01*
X158860000Y-135160000D02*
X151625000Y-135160000D01*
X168977000Y-78613000D02*
X171637000Y-78613000D01*
X168977000Y-78613000D02*
X168977000Y-83753000D01*
X168977000Y-83753000D02*
X171637000Y-83753000D01*
X171637000Y-78613000D02*
X171637000Y-83753000D01*
X171637000Y-76013000D02*
X171637000Y-77343000D01*
X170307000Y-76013000D02*
X171637000Y-76013000D01*
X195350000Y-71850000D02*
X195050000Y-71850000D01*
X195050000Y-71850000D02*
X195050000Y-72350000D01*
X195640000Y-67225000D02*
X195640000Y-72140000D01*
X195640000Y-72140000D02*
X195340000Y-72140000D01*
X195340000Y-72140000D02*
X195340000Y-73210000D01*
X195340000Y-73210000D02*
X201060000Y-73210000D01*
X201060000Y-73210000D02*
X201060000Y-67225000D01*
X195640000Y-67225000D02*
X195640000Y-62310000D01*
X195640000Y-62310000D02*
X195340000Y-62310000D01*
X195340000Y-62310000D02*
X195340000Y-61240000D01*
X195340000Y-61240000D02*
X201060000Y-61240000D01*
X201060000Y-61240000D02*
X201060000Y-67225000D01*
X199830000Y-75410000D02*
X194630000Y-75410000D01*
X199830000Y-123730000D02*
X199830000Y-75410000D01*
X194630000Y-126330000D02*
X194630000Y-75410000D01*
X199830000Y-123730000D02*
X197230000Y-123730000D01*
X197230000Y-123730000D02*
X197230000Y-126330000D01*
X197230000Y-126330000D02*
X194630000Y-126330000D01*
X199830000Y-125000000D02*
X199830000Y-126330000D01*
X199830000Y-126330000D02*
X198500000Y-126330000D01*
X174260000Y-135160000D02*
X167025000Y-135160000D01*
X174260000Y-129440000D02*
X174260000Y-135160000D01*
X173190000Y-129440000D02*
X174260000Y-129440000D01*
X173190000Y-129740000D02*
X173190000Y-129440000D01*
X167025000Y-129740000D02*
X173190000Y-129740000D01*
X159790000Y-135160000D02*
X167025000Y-135160000D01*
X159790000Y-129440000D02*
X159790000Y-135160000D01*
X160860000Y-129440000D02*
X159790000Y-129440000D01*
X160860000Y-129740000D02*
X160860000Y-129440000D01*
X167025000Y-129740000D02*
X160860000Y-129740000D01*
X161150000Y-129150000D02*
X160650000Y-129150000D01*
X161150000Y-129450000D02*
X161150000Y-129150000D01*
X116290000Y-125690000D02*
X116290000Y-135110000D01*
X116290000Y-135110000D02*
X136950000Y-135110000D01*
X136950000Y-135110000D02*
X136950000Y-125690000D01*
X116290000Y-125690000D02*
X117950000Y-125690000D01*
X136950000Y-125690000D02*
X135290000Y-125690000D01*
X120050000Y-125690000D02*
X121760000Y-125690000D01*
X123860000Y-125690000D02*
X125570000Y-125690000D01*
X127670000Y-125690000D02*
X129380000Y-125690000D01*
X131480000Y-125690000D02*
X133190000Y-125690000D01*
X116290000Y-131800000D02*
X136950000Y-131800000D01*
X119300000Y-124400000D02*
X119000000Y-125000000D01*
X119000000Y-125000000D02*
X118700000Y-124400000D01*
X118700000Y-124400000D02*
X119300000Y-124400000D01*
X193090000Y-59910000D02*
X202510000Y-59910000D01*
X202510000Y-59910000D02*
X202510000Y-50680000D01*
X202510000Y-50680000D02*
X193090000Y-50680000D01*
X193090000Y-59910000D02*
X193090000Y-58250000D01*
X193090000Y-50680000D02*
X193090000Y-52340000D01*
X193090000Y-56150000D02*
X193090000Y-54440000D01*
X199200000Y-59910000D02*
X199200000Y-50680000D01*
X191800000Y-56900000D02*
X192400000Y-57200000D01*
X192400000Y-57200000D02*
X191800000Y-57500000D01*
X191800000Y-57500000D02*
X191800000Y-56900000D01*
X119825000Y-87163500D02*
X122825000Y-87163500D01*
X119825000Y-90363500D02*
X122825000Y-90363500D01*
X117175000Y-89363500D02*
X117175000Y-92363500D01*
X113975000Y-89363500D02*
X113975000Y-92363500D01*
X117175000Y-83363500D02*
X117175000Y-80363500D01*
X113975000Y-83363500D02*
X113975000Y-80363500D01*
X147717426Y-95688675D02*
X147947631Y-95918880D01*
X148438675Y-94967426D02*
X148668880Y-95197631D01*
X149967426Y-93438675D02*
X150197631Y-93668880D01*
X150688675Y-92717426D02*
X150918880Y-92947631D01*
X149552369Y-93831120D02*
X149782574Y-94061325D01*
X148831120Y-94552369D02*
X149061325Y-94782574D01*
X147302369Y-96081120D02*
X147532574Y-96311325D01*
X146581120Y-96802369D02*
X146811325Y-97032574D01*
X141438675Y-86032574D02*
X141668880Y-85802369D01*
X140717426Y-85311325D02*
X140947631Y-85081120D01*
X124267500Y-60225721D02*
X124267500Y-60551279D01*
X125287500Y-60225721D02*
X125287500Y-60551279D01*
X123446000Y-60225721D02*
X123446000Y-60551279D01*
X122426000Y-60225721D02*
X122426000Y-60551279D01*
X139510000Y-67124721D02*
X139510000Y-67450279D01*
X138490000Y-67124721D02*
X138490000Y-67450279D01*
X140490000Y-67049721D02*
X140490000Y-67375279D01*
X141510000Y-67049721D02*
X141510000Y-67375279D01*
X170649721Y-109840000D02*
X170975279Y-109840000D01*
X170649721Y-110860000D02*
X170975279Y-110860000D01*
X139710000Y-129624721D02*
X139710000Y-129950279D01*
X138690000Y-129624721D02*
X138690000Y-129950279D01*
X141690000Y-129637221D02*
X141690000Y-129962779D01*
X142710000Y-129637221D02*
X142710000Y-129962779D01*
X114421000Y-103270000D02*
X108900000Y-103270000D01*
X115000000Y-105280000D02*
X114421000Y-105280000D01*
X114421000Y-105930000D02*
X114421000Y-105280000D01*
X114421000Y-105930000D02*
X108900000Y-105930000D01*
X108900000Y-105930000D02*
X108900000Y-105220000D01*
X114421000Y-103980000D02*
X114421000Y-103270000D01*
X108900000Y-103980000D02*
X108900000Y-103270000D01*
X177020000Y-128040000D02*
X177730000Y-128040000D01*
X177020000Y-133561000D02*
X177730000Y-133561000D01*
X175070000Y-128040000D02*
X175780000Y-128040000D01*
X175070000Y-133561000D02*
X175070000Y-128040000D01*
X175070000Y-133561000D02*
X175720000Y-133561000D01*
X175720000Y-134140000D02*
X175720000Y-133561000D01*
X177730000Y-133561000D02*
X177730000Y-128040000D01*
X153530000Y-82350000D02*
X153530000Y-80750000D01*
X153530000Y-80750000D02*
X152005000Y-80750000D01*
X152005000Y-80750000D02*
X152005000Y-73550000D01*
X152005000Y-73550000D02*
X153530000Y-73550000D01*
X163580000Y-80750000D02*
X165105000Y-80750000D01*
X165105000Y-80750000D02*
X165105000Y-73550000D01*
X165105000Y-73550000D02*
X163580000Y-73550000D01*
X166983827Y-106471231D02*
X167355058Y-106100000D01*
X167355058Y-106100000D02*
X166983827Y-105728769D01*
X157671231Y-115783827D02*
X157300000Y-116155058D01*
X157300000Y-116155058D02*
X156928769Y-115783827D01*
X156928769Y-96416173D02*
X157300000Y-96044942D01*
X157300000Y-96044942D02*
X157671231Y-96416173D01*
X147616173Y-105728769D02*
X147244942Y-106100000D01*
X147244942Y-106100000D02*
X147616173Y-106471231D01*
X147616173Y-106471231D02*
X146704005Y-107383399D01*
X118640000Y-115800000D02*
X118640000Y-117750000D01*
X118640000Y-115800000D02*
X118640000Y-113850000D01*
X123760000Y-115800000D02*
X123760000Y-117750000D01*
X123760000Y-115800000D02*
X123760000Y-112350000D01*
X139997487Y-80669060D02*
X137169060Y-83497487D01*
X142330940Y-83002513D02*
X139997487Y-80669060D01*
X165496016Y-120449569D02*
X170021499Y-124975052D01*
X170021499Y-124975052D02*
X171718555Y-123277996D01*
X171718555Y-123277996D02*
X167193072Y-118752513D01*
X167193072Y-118752513D02*
X165496016Y-120449569D01*
X166097056Y-119848528D02*
X165036396Y-119636396D01*
X165036396Y-119636396D02*
X164894975Y-119494975D01*
X166592031Y-119353553D02*
X166379899Y-118292893D01*
X166379899Y-118292893D02*
X166238478Y-118151472D01*
X158668629Y-94204163D02*
X161002082Y-91870710D01*
X161002082Y-91870710D02*
X158173655Y-89042283D01*
X175255000Y-99350000D02*
X176055000Y-100150000D01*
X176055000Y-100150000D02*
X176055000Y-109350000D01*
X176055000Y-109350000D02*
X170645000Y-109350000D01*
X170645000Y-109350000D02*
X170645000Y-99350000D01*
X170645000Y-99350000D02*
X175255000Y-99350000D01*
X147986503Y-89002513D02*
X148233991Y-89250000D01*
X148233991Y-89250000D02*
X147986503Y-89497487D01*
X142513497Y-89497487D02*
X142266009Y-89250000D01*
X142266009Y-89250000D02*
X142513497Y-89002513D01*
X145002513Y-91986503D02*
X145250000Y-92233991D01*
X145250000Y-92233991D02*
X145497487Y-91986503D01*
X145497487Y-86513497D02*
X145250000Y-86266009D01*
X117835000Y-84553500D02*
X118285000Y-84553500D01*
X118285000Y-84553500D02*
X118285000Y-85003500D01*
X115515000Y-87773500D02*
X115065000Y-87773500D01*
X115065000Y-87773500D02*
X115065000Y-87323500D01*
X117835000Y-87773500D02*
X118285000Y-87773500D01*
X118285000Y-87773500D02*
X118285000Y-87323500D01*
X115515000Y-84553500D02*
X115065000Y-84553500D01*
X106808000Y-109878600D02*
X117728000Y-109878600D01*
X106808000Y-121718600D02*
X117728000Y-121718600D01*
X106808000Y-109878600D02*
X106808000Y-121718600D01*
X117728000Y-109878600D02*
X117728000Y-121718600D01*
X106568000Y-109638600D02*
X107951000Y-109638600D01*
X106568000Y-109638600D02*
X106568000Y-111021600D01*
X104948000Y-111178600D02*
X106808000Y-111178600D01*
X104948000Y-112798600D02*
X106808000Y-112798600D01*
X104948000Y-111178600D02*
X104948000Y-112798600D01*
X106808000Y-111178600D02*
X106808000Y-112798600D01*
X104948000Y-113718600D02*
X106808000Y-113718600D01*
X104948000Y-115338600D02*
X106808000Y-115338600D01*
X104948000Y-113718600D02*
X104948000Y-115338600D01*
X106808000Y-113718600D02*
X106808000Y-115338600D01*
X104948000Y-116258600D02*
X106808000Y-116258600D01*
X104948000Y-117878600D02*
X106808000Y-117878600D01*
X104948000Y-116258600D02*
X104948000Y-117878600D01*
X106808000Y-116258600D02*
X106808000Y-117878600D01*
X104948000Y-118798600D02*
X106808000Y-118798600D01*
X104948000Y-120418600D02*
X106808000Y-120418600D01*
X104948000Y-118798600D02*
X104948000Y-120418600D01*
X106808000Y-118798600D02*
X106808000Y-120418600D01*
M02*
